<svg width="659" height="428" viewBox="0 0 659 428" version="1.1" xmlns="http://www.w3.org/2000/svg" xmlns:xlink="http://www.w3.org/1999/xlink" xmlns:figma="http://www.figma.com/figma/ns">
<title>Schwerpunkte Grafik</title>
<desc>Created using Figma</desc>
<g id="Canvas" transform="translate(444 584)" figma:type="canvas">
<mask id="mask0_alpha" mask-type="alpha">
<path d="M -444 -584L 215 -584L 215 -156L -444 -156L -444 -584Z" fill="#FFFFFF"/>
</mask>
<g id="Schwerpunkte Grafik" style="mix-blend-mode:normal;" mask="url(#mask0_alpha)" figma:type="frame">
<path d="M -444 -584L 215 -584L 215 -156L -444 -156L -444 -584Z" fill="#FFFFFF"/>
<g id="Group" style="mix-blend-mode:normal;" figma:type="frame">
<g id="Ellipse" style="mix-blend-mode:normal;" opacity="0.7" figma:type="ellipse">
<use xlink:href="#path0_fill" transform="translate(-275 -410)" fill="#F42154" style="mix-blend-mode:normal;"/>
</g>
<g id="Ellipse" style="mix-blend-mode:normal;" opacity="0.7" figma:type="ellipse">
<use xlink:href="#path0_fill" transform="translate(-155 -410)" fill="#FA2A9E" style="mix-blend-mode:normal;"/>
</g>
<g id="Ellipse" style="mix-blend-mode:normal;" opacity="0.7" figma:type="ellipse">
<use xlink:href="#path0_fill" transform="translate(-155 -530)" fill="#2F62ED" style="mix-blend-mode:normal;"/>
</g>
<g id="Ellipse" style="mix-blend-mode:normal;" opacity="0.7" figma:type="ellipse">
<use xlink:href="#path0_fill" transform="translate(-275 -530)" fill="#9B51E0" style="mix-blend-mode:normal;"/>
</g>
<g id="Ellipse" style="mix-blend-mode:normal;" opacity="0.7" figma:type="ellipse">
<mask id="mask1_outline_ins">
<use xlink:href="#path1_fill" fill="white" transform="translate(-215 -470)"/>
</mask>
<g mask="url(#mask1_outline_ins)">
<use xlink:href="#path2_stroke_2x" transform="translate(-215 -470)" fill="#000000" fill-opacity="0.5" style="mix-blend-mode:normal;"/>
</g>
</g>
<g id="Visual Computing" style="mix-blend-mode:normal;" figma:type="text">
<use xlink:href="#path3_fill" transform="translate(-218 -452)" fill="#FFFFFF" style="mix-blend-mode:normal;"/>
</g>
<g id="Social Computing" style="mix-blend-mode:normal;" figma:type="text">
<use xlink:href="#path4_fill" transform="translate(-92 -452)" fill="#FFFFFF" style="mix-blend-mode:normal;"/>
</g>
<g id="Human- Computer Interaction" style="mix-blend-mode:normal;" figma:type="text">
<use xlink:href="#path5_fill" transform="translate(-217 -336)" fill="#FFFFFF" style="mix-blend-mode:normal;"/>
</g>
<g id="Multiperspective Product Development" style="mix-blend-mode:normal;" figma:type="text">
<use xlink:href="#path6_fill" transform="translate(-441 -389)" fill="#333333" style="mix-blend-mode:normal;"/>
</g>
<g id="Weaving the Web" style="mix-blend-mode:normal;" figma:type="text">
<use xlink:href="#path7_fill" transform="translate(-82 -336)" fill="#FFFFFF" style="mix-blend-mode:normal;"/>
</g>
</g>
<g id="Line" style="mix-blend-mode:normal;" figma:type="line">
<use xlink:href="#path8_stroke" transform="matrix(-1 1.22465e-16 -1.22465e-16 -1 -215 -370)" fill="#333333" fill-opacity="0.3" style="mix-blend-mode:normal;"/>
</g>
</g>
</g>
<defs>
<path id="path0_fill" d="M 200 100C 200 155.228 155.228 200 100 200C 44.7715 200 0 155.228 0 100C 0 44.7715 44.7715 0 100 0C 155.228 0 200 44.7715 200 100Z"/>
<path id="path1_fill" d="M 200 100C 200 155.228 155.228 200 100 200C 44.7715 200 0 155.228 0 100C 0 44.7715 44.7715 0 100 0C 155.228 0 200 44.7715 200 100Z"/>
<path id="path2_stroke_2x" d="M 198 100C 198 154.124 154.124 198 100 198L 100 202C 156.333 202 202 156.333 202 100L 198 100ZM 100 198C 45.8761 198 2 154.124 2 100L -2 100C -2 156.333 43.667 202 100 202L 100 198ZM 2 100C 2 45.8761 45.8761 2 100 2L 100 -2C 43.667 -2 -2 43.667 -2 100L 2 100ZM 100 2C 154.124 2 198 45.8761 198 100L 202 100C 202 43.667 156.333 -2 100 -2L 100 2Z"/>
<path id="path3_fill" d="M 26.7786 14L 31.1166 1.868L 29.4426 1.868L 27.3906 7.862C 26.8326 9.446 26.3466 10.976 26.0046 12.38L 25.9686 12.38C 25.6266 10.976 25.1766 9.482 24.6726 7.844L 22.7826 1.868L 21.0726 1.868L 25.0506 14L 26.7786 14ZM 33.6724 14L 33.6724 5.288L 32.0884 5.288L 32.0884 14L 33.6724 14ZM 32.8624 3.812C 33.4744 3.812 33.8524 3.362 33.8524 2.84C 33.8524 2.282 33.4564 1.85 32.8804 1.85C 32.2864 1.85 31.8904 2.282 31.8904 2.84C 31.8904 3.362 32.2684 3.812 32.8444 3.812L 32.8624 3.812ZM 35.7132 13.568C 36.3252 13.928 37.2072 14.18 38.1612 14.18C 40.1952 14.18 41.4012 13.1 41.4012 11.552C 41.4012 10.256 40.6092 9.5 39.1152 8.942C 37.9812 8.492 37.4772 8.168 37.4772 7.448C 37.4772 6.8 37.9812 6.26 38.9172 6.26C 39.7272 6.26 40.3572 6.566 40.6992 6.764L 41.0772 5.63C 40.6092 5.324 39.8352 5.09 38.9532 5.09C 37.0992 5.09 35.9472 6.242 35.9472 7.646C 35.9472 8.672 36.6852 9.536 38.2692 10.112C 39.4212 10.544 39.8712 10.94 39.8712 11.696C 39.8712 12.434 39.3312 12.992 38.1972 12.992C 37.4052 12.992 36.5772 12.668 36.0912 12.38L 35.7132 13.568ZM 50.7339 5.288L 49.1499 5.288L 49.1499 10.616C 49.1499 10.922 49.0959 11.21 49.0059 11.426C 48.7179 12.146 47.9799 12.884 46.9179 12.884C 45.4959 12.884 44.9739 11.75 44.9739 10.094L 44.9739 5.288L 43.3899 5.288L 43.3899 10.382C 43.3899 13.424 45.0279 14.198 46.3959 14.198C 47.9439 14.198 48.8799 13.28 49.2759 12.578L 49.3119 12.578L 49.4019 14L 50.8059 14C 50.7519 13.316 50.7339 12.524 50.7339 11.606L 50.7339 5.288ZM 59.4959 8.654C 59.4959 6.908 58.8479 5.09 56.1659 5.09C 55.0679 5.09 54.0059 5.396 53.2859 5.846L 53.6459 6.908C 54.2579 6.494 55.1039 6.26 55.9319 6.26C 57.7139 6.242 57.9119 7.556 57.9119 8.276L 57.9119 8.456C 54.5459 8.438 52.6739 9.59 52.6739 11.696C 52.6739 12.956 53.5739 14.198 55.3379 14.198C 56.5799 14.198 57.5339 13.586 58.0019 12.902L 58.0559 12.902L 58.1999 14L 59.6219 14C 59.5319 13.406 59.4959 12.668 59.4959 11.912L 59.4959 8.654ZM 57.9479 11.066C 57.9479 11.228 57.9299 11.408 57.8759 11.57C 57.6239 12.308 56.8859 13.028 55.7339 13.028C 54.9419 13.028 54.2579 12.56 54.2579 11.516C 54.2579 9.824 56.2199 9.518 57.9479 9.554L 57.9479 11.066ZM 62.0415 14L 63.6255 14L 63.6255 1.22L 62.0415 1.22L 62.0415 14ZM 9.76321 33.344C 9.13321 33.65 8.16121 33.848 7.18921 33.848C 4.25521 33.848 2.54521 31.958 2.54521 28.988C 2.54521 25.82 4.43521 24.002 7.27921 24.002C 8.28721 24.002 9.13321 24.218 9.70921 24.506L 10.1052 23.21C 9.69121 23.012 8.71921 22.688 7.22521 22.688C 3.46321 22.688 0.889211 25.244 0.889211 29.042C 0.889211 33.02 3.44521 35.18 6.86521 35.18C 8.34121 35.18 9.51121 34.892 10.0692 34.604L 9.76321 33.344ZM 15.3673 35.198C 17.4373 35.198 19.6873 33.794 19.6873 30.554C 19.6873 27.908 17.9953 26.09 15.4933 26.09C 13.0993 26.09 11.1733 27.8 11.1733 30.716C 11.1733 33.47 13.0093 35.198 15.3493 35.198L 15.3673 35.198ZM 15.4033 34.01C 13.8733 34.01 12.7933 32.57 12.7933 30.662C 12.7933 29.006 13.6033 27.278 15.4573 27.278C 17.3293 27.278 18.0673 29.132 18.0673 30.608C 18.0673 32.588 16.9333 34.01 15.4213 34.01L 15.4033 34.01ZM 21.6822 35L 23.2302 35L 23.2302 29.744C 23.2302 29.474 23.2662 29.204 23.3562 28.97C 23.6082 28.178 24.3462 27.386 25.3182 27.386C 26.5242 27.386 27.1362 28.376 27.1362 29.762L 27.1362 35L 28.6842 35L 28.6842 29.6C 28.6842 29.33 28.7382 29.042 28.8102 28.808C 29.0982 28.052 29.7822 27.386 30.7002 27.386C 31.9602 27.386 32.5902 28.376 32.5902 30.068L 32.5902 35L 34.1382 35L 34.1382 29.87C 34.1382 26.846 32.4282 26.09 31.2582 26.09C 30.4302 26.09 29.8722 26.306 29.3502 26.702C 28.9902 26.972 28.6302 27.332 28.3602 27.836L 28.3242 27.836C 27.9462 26.81 27.0462 26.09 25.8762 26.09C 24.4182 26.09 23.6082 26.864 23.1222 27.692L 23.0682 27.692L 22.9962 26.288L 21.6102 26.288C 21.6462 27.008 21.6822 27.728 21.6822 28.646L 21.6822 35ZM 36.6939 38.564L 38.2779 38.564L 38.2779 33.83L 38.3139 33.83C 38.8359 34.694 39.8259 35.198 40.9959 35.198C 43.0299 35.198 44.9559 33.65 44.9559 30.518C 44.9559 27.872 43.3719 26.09 41.2479 26.09C 39.8439 26.09 38.7999 26.702 38.1699 27.782L 38.1339 27.782L 38.0439 26.288L 36.6219 26.288C 36.6759 27.116 36.6939 28.016 36.6939 29.132L 36.6939 38.564ZM 38.2779 29.942C 38.2779 29.744 38.3319 29.51 38.3679 29.312C 38.6739 28.106 39.6999 27.35 40.7799 27.35C 42.4539 27.35 43.3539 28.844 43.3539 30.59C 43.3539 32.588 42.3819 33.956 40.7079 33.956C 39.5919 33.956 38.6199 33.2 38.3499 32.102C 38.2959 31.904 38.2779 31.67 38.2779 31.454L 38.2779 29.942ZM 54.2319 26.288L 52.6479 26.288L 52.6479 31.616C 52.6479 31.922 52.5939 32.21 52.5039 32.426C 52.2159 33.146 51.4779 33.884 50.4159 33.884C 48.9939 33.884 48.4719 32.75 48.4719 31.094L 48.4719 26.288L 46.8879 26.288L 46.8879 31.382C 46.8879 34.424 48.5259 35.198 49.8939 35.198C 51.4419 35.198 52.3779 34.28 52.7739 33.578L 52.8099 33.578L 52.8999 35L 54.3039 35C 54.2499 34.316 54.2319 33.524 54.2319 32.606L 54.2319 26.288ZM 57.216 24.686L 57.216 26.288L 55.866 26.288L 55.866 27.494L 57.216 27.494L 57.216 32.228C 57.216 33.254 57.396 34.028 57.828 34.514C 58.206 34.928 58.8 35.18 59.538 35.18C 60.15 35.18 60.636 35.072 60.942 34.964L 60.87 33.758C 60.636 33.83 60.384 33.866 59.952 33.866C 59.07 33.866 58.764 33.254 58.764 32.174L 58.764 27.494L 61.032 27.494L 61.032 26.288L 58.764 26.288L 58.764 24.2L 57.216 24.686ZM 64.399 35L 64.399 26.288L 62.815 26.288L 62.815 35L 64.399 35ZM 63.589 24.812C 64.201 24.812 64.579 24.362 64.579 23.84C 64.579 23.282 64.183 22.85 63.607 22.85C 63.013 22.85 62.617 23.282 62.617 23.84C 62.617 24.362 62.995 24.812 63.571 24.812L 63.589 24.812ZM 67.0337 35L 68.6177 35L 68.6177 29.744C 68.6177 29.492 68.6537 29.204 68.7257 29.006C 69.0137 28.124 69.8237 27.386 70.8497 27.386C 72.3437 27.386 72.8657 28.574 72.8657 29.978L 72.8657 35L 74.4497 35L 74.4497 29.798C 74.4497 26.81 72.5777 26.09 71.3717 26.09C 69.9317 26.09 68.9237 26.9 68.4917 27.71L 68.4557 27.71L 68.3657 26.288L 66.9617 26.288C 67.0157 27.008 67.0337 27.728 67.0337 28.646L 67.0337 35ZM 84.4701 28.664C 84.4701 27.62 84.4881 26.9 84.5421 26.288L 83.1381 26.288L 83.0841 27.602L 83.0481 27.602C 82.6521 26.864 81.8421 26.09 80.3301 26.09C 78.3141 26.09 76.3881 27.746 76.3881 30.698C 76.3881 33.128 77.9361 34.964 80.0961 34.964C 81.4461 34.964 82.4001 34.316 82.8681 33.506L 82.9041 33.506L 82.9041 34.46C 82.9041 36.674 81.7161 37.52 80.0961 37.52C 79.0161 37.52 78.1161 37.196 77.5401 36.818L 77.1441 38.042C 77.8461 38.51 78.9981 38.762 80.0421 38.762C 81.1401 38.762 82.3641 38.492 83.2281 37.718C 84.0561 36.944 84.4701 35.738 84.4701 33.722L 84.4701 28.664ZM 82.8861 31.274C 82.8861 31.562 82.8501 31.868 82.7601 32.12C 82.4361 33.146 81.5541 33.758 80.5641 33.758C 78.8721 33.758 77.9901 32.318 77.9901 30.626C 77.9901 28.592 79.0701 27.314 80.5821 27.314C 81.7521 27.314 82.5081 28.07 82.7961 29.006C 82.8681 29.222 82.8861 29.456 82.8861 29.708L 82.8861 31.274Z"/>
<path id="path4_fill" d="M 21.713 13.388C 22.361 13.82 23.639 14.18 24.809 14.18C 27.671 14.18 29.039 12.542 29.039 10.688C 29.039 8.906 28.013 7.934 25.961 7.124C 24.287 6.476 23.549 5.918 23.549 4.802C 23.549 3.974 24.179 2.984 25.835 2.984C 26.933 2.984 27.743 3.326 28.121 3.56L 28.553 2.264C 28.031 1.976 27.113 1.688 25.889 1.688C 23.531 1.688 21.965 3.092 21.965 4.982C 21.965 6.674 23.189 7.718 25.169 8.402C 26.807 9.014 27.455 9.68 27.455 10.814C 27.455 12.038 26.519 12.866 24.917 12.866C 23.837 12.866 22.829 12.524 22.127 12.092L 21.713 13.388ZM 34.8175 14.198C 36.8875 14.198 39.1375 12.794 39.1375 9.554C 39.1375 6.908 37.4455 5.09 34.9435 5.09C 32.5495 5.09 30.6235 6.8 30.6235 9.716C 30.6235 12.47 32.4595 14.198 34.7995 14.198L 34.8175 14.198ZM 34.8535 13.01C 33.3235 13.01 32.2435 11.57 32.2435 9.662C 32.2435 8.006 33.0535 6.278 34.9075 6.278C 36.7795 6.278 37.5175 8.132 37.5175 9.608C 37.5175 11.588 36.3835 13.01 34.8715 13.01L 34.8535 13.01ZM 47.0724 12.488C 46.6224 12.686 46.0284 12.902 45.1284 12.902C 43.4004 12.902 42.1044 11.66 42.1044 9.644C 42.1044 7.844 43.1844 6.35 45.1824 6.35C 46.0464 6.35 46.6404 6.566 47.0184 6.764L 47.3784 5.558C 46.9464 5.324 46.1184 5.09 45.1824 5.09C 42.3384 5.09 40.5024 7.052 40.5024 9.734C 40.5024 12.398 42.2124 14.18 44.8404 14.18C 46.0104 14.18 46.9284 13.874 47.3424 13.676L 47.0724 12.488ZM 50.7847 14L 50.7847 5.288L 49.2007 5.288L 49.2007 14L 50.7847 14ZM 49.9747 3.812C 50.5867 3.812 50.9647 3.362 50.9647 2.84C 50.9647 2.282 50.5687 1.85 49.9927 1.85C 49.3987 1.85 49.0027 2.282 49.0027 2.84C 49.0027 3.362 49.3807 3.812 49.9567 3.812L 49.9747 3.812ZM 59.5575 8.654C 59.5575 6.908 58.9095 5.09 56.2275 5.09C 55.1295 5.09 54.0675 5.396 53.3475 5.846L 53.7075 6.908C 54.3195 6.494 55.1655 6.26 55.9935 6.26C 57.7755 6.242 57.9735 7.556 57.9735 8.276L 57.9735 8.456C 54.6075 8.438 52.7355 9.59 52.7355 11.696C 52.7355 12.956 53.6355 14.198 55.3995 14.198C 56.6415 14.198 57.5955 13.586 58.0635 12.902L 58.1175 12.902L 58.2615 14L 59.6835 14C 59.5935 13.406 59.5575 12.668 59.5575 11.912L 59.5575 8.654ZM 58.0095 11.066C 58.0095 11.228 57.9915 11.408 57.9375 11.57C 57.6855 12.308 56.9475 13.028 55.7955 13.028C 55.0035 13.028 54.3195 12.56 54.3195 11.516C 54.3195 9.824 56.2815 9.518 58.0095 9.554L 58.0095 11.066ZM 62.1031 14L 63.6871 14L 63.6871 1.22L 62.1031 1.22L 62.1031 14ZM 9.76321 33.344C 9.13321 33.65 8.16121 33.848 7.18921 33.848C 4.25521 33.848 2.54521 31.958 2.54521 28.988C 2.54521 25.82 4.43521 24.002 7.27921 24.002C 8.28721 24.002 9.13321 24.218 9.70921 24.506L 10.1052 23.21C 9.69121 23.012 8.71921 22.688 7.22521 22.688C 3.46321 22.688 0.889211 25.244 0.889211 29.042C 0.889211 33.02 3.44521 35.18 6.86521 35.18C 8.34121 35.18 9.51121 34.892 10.0692 34.604L 9.76321 33.344ZM 15.3673 35.198C 17.4373 35.198 19.6873 33.794 19.6873 30.554C 19.6873 27.908 17.9953 26.09 15.4933 26.09C 13.0993 26.09 11.1733 27.8 11.1733 30.716C 11.1733 33.47 13.0093 35.198 15.3493 35.198L 15.3673 35.198ZM 15.4033 34.01C 13.8733 34.01 12.7933 32.57 12.7933 30.662C 12.7933 29.006 13.6033 27.278 15.4573 27.278C 17.3293 27.278 18.0673 29.132 18.0673 30.608C 18.0673 32.588 16.9333 34.01 15.4213 34.01L 15.4033 34.01ZM 21.6822 35L 23.2302 35L 23.2302 29.744C 23.2302 29.474 23.2662 29.204 23.3562 28.97C 23.6082 28.178 24.3462 27.386 25.3182 27.386C 26.5242 27.386 27.1362 28.376 27.1362 29.762L 27.1362 35L 28.6842 35L 28.6842 29.6C 28.6842 29.33 28.7382 29.042 28.8102 28.808C 29.0982 28.052 29.7822 27.386 30.7002 27.386C 31.9602 27.386 32.5902 28.376 32.5902 30.068L 32.5902 35L 34.1382 35L 34.1382 29.87C 34.1382 26.846 32.4282 26.09 31.2582 26.09C 30.4302 26.09 29.8722 26.306 29.3502 26.702C 28.9902 26.972 28.6302 27.332 28.3602 27.836L 28.3242 27.836C 27.9462 26.81 27.0462 26.09 25.8762 26.09C 24.4182 26.09 23.6082 26.864 23.1222 27.692L 23.0682 27.692L 22.9962 26.288L 21.6102 26.288C 21.6462 27.008 21.6822 27.728 21.6822 28.646L 21.6822 35ZM 36.6939 38.564L 38.2779 38.564L 38.2779 33.83L 38.3139 33.83C 38.8359 34.694 39.8259 35.198 40.9959 35.198C 43.0299 35.198 44.9559 33.65 44.9559 30.518C 44.9559 27.872 43.3719 26.09 41.2479 26.09C 39.8439 26.09 38.7999 26.702 38.1699 27.782L 38.1339 27.782L 38.0439 26.288L 36.6219 26.288C 36.6759 27.116 36.6939 28.016 36.6939 29.132L 36.6939 38.564ZM 38.2779 29.942C 38.2779 29.744 38.3319 29.51 38.3679 29.312C 38.6739 28.106 39.6999 27.35 40.7799 27.35C 42.4539 27.35 43.3539 28.844 43.3539 30.59C 43.3539 32.588 42.3819 33.956 40.7079 33.956C 39.5919 33.956 38.6199 33.2 38.3499 32.102C 38.2959 31.904 38.2779 31.67 38.2779 31.454L 38.2779 29.942ZM 54.2319 26.288L 52.6479 26.288L 52.6479 31.616C 52.6479 31.922 52.5939 32.21 52.5039 32.426C 52.2159 33.146 51.4779 33.884 50.4159 33.884C 48.9939 33.884 48.4719 32.75 48.4719 31.094L 48.4719 26.288L 46.8879 26.288L 46.8879 31.382C 46.8879 34.424 48.5259 35.198 49.8939 35.198C 51.4419 35.198 52.3779 34.28 52.7739 33.578L 52.8099 33.578L 52.8999 35L 54.3039 35C 54.2499 34.316 54.2319 33.524 54.2319 32.606L 54.2319 26.288ZM 57.216 24.686L 57.216 26.288L 55.866 26.288L 55.866 27.494L 57.216 27.494L 57.216 32.228C 57.216 33.254 57.396 34.028 57.828 34.514C 58.206 34.928 58.8 35.18 59.538 35.18C 60.15 35.18 60.636 35.072 60.942 34.964L 60.87 33.758C 60.636 33.83 60.384 33.866 59.952 33.866C 59.07 33.866 58.764 33.254 58.764 32.174L 58.764 27.494L 61.032 27.494L 61.032 26.288L 58.764 26.288L 58.764 24.2L 57.216 24.686ZM 64.399 35L 64.399 26.288L 62.815 26.288L 62.815 35L 64.399 35ZM 63.589 24.812C 64.201 24.812 64.579 24.362 64.579 23.84C 64.579 23.282 64.183 22.85 63.607 22.85C 63.013 22.85 62.617 23.282 62.617 23.84C 62.617 24.362 62.995 24.812 63.571 24.812L 63.589 24.812ZM 67.0337 35L 68.6177 35L 68.6177 29.744C 68.6177 29.492 68.6537 29.204 68.7257 29.006C 69.0137 28.124 69.8237 27.386 70.8497 27.386C 72.3437 27.386 72.8657 28.574 72.8657 29.978L 72.8657 35L 74.4497 35L 74.4497 29.798C 74.4497 26.81 72.5777 26.09 71.3717 26.09C 69.9317 26.09 68.9237 26.9 68.4917 27.71L 68.4557 27.71L 68.3657 26.288L 66.9617 26.288C 67.0157 27.008 67.0337 27.728 67.0337 28.646L 67.0337 35ZM 84.4701 28.664C 84.4701 27.62 84.4881 26.9 84.5421 26.288L 83.1381 26.288L 83.0841 27.602L 83.0481 27.602C 82.6521 26.864 81.8421 26.09 80.3301 26.09C 78.3141 26.09 76.3881 27.746 76.3881 30.698C 76.3881 33.128 77.9361 34.964 80.0961 34.964C 81.4461 34.964 82.4001 34.316 82.8681 33.506L 82.9041 33.506L 82.9041 34.46C 82.9041 36.674 81.7161 37.52 80.0961 37.52C 79.0161 37.52 78.1161 37.196 77.5401 36.818L 77.1441 38.042C 77.8461 38.51 78.9981 38.762 80.0421 38.762C 81.1401 38.762 82.3641 38.492 83.2281 37.718C 84.0561 36.944 84.4701 35.738 84.4701 33.722L 84.4701 28.664ZM 82.8861 31.274C 82.8861 31.562 82.8501 31.868 82.7601 32.12C 82.4361 33.146 81.5541 33.758 80.5641 33.758C 78.8721 33.758 77.9901 32.318 77.9901 30.626C 77.9901 28.592 79.0701 27.314 80.5821 27.314C 81.7521 27.314 82.5081 28.07 82.7961 29.006C 82.8681 29.222 82.8861 29.456 82.8861 29.708L 82.8861 31.274Z"/>
<path id="path5_fill" d="M 12.4223 1.868L 12.4223 14L 14.0063 14L 14.0063 8.312L 19.8743 8.312L 19.8743 14L 21.4583 14L 21.4583 1.868L 19.8743 1.868L 19.8743 6.944L 14.0063 6.944L 14.0063 1.868L 12.4223 1.868ZM 31.4185 5.288L 29.8345 5.288L 29.8345 10.616C 29.8345 10.922 29.7805 11.21 29.6905 11.426C 29.4025 12.146 28.6645 12.884 27.6025 12.884C 26.1805 12.884 25.6585 11.75 25.6585 10.094L 25.6585 5.288L 24.0745 5.288L 24.0745 10.382C 24.0745 13.424 25.7125 14.198 27.0805 14.198C 28.6285 14.198 29.5645 13.28 29.9605 12.578L 29.9965 12.578L 30.0865 14L 31.4905 14C 31.4365 13.316 31.4185 12.524 31.4185 11.606L 31.4185 5.288ZM 34.0425 14L 35.5905 14L 35.5905 8.744C 35.5905 8.474 35.6265 8.204 35.7165 7.97C 35.9685 7.178 36.7065 6.386 37.6785 6.386C 38.8845 6.386 39.4965 7.376 39.4965 8.762L 39.4965 14L 41.0445 14L 41.0445 8.6C 41.0445 8.33 41.0985 8.042 41.1705 7.808C 41.4585 7.052 42.1425 6.386 43.0605 6.386C 44.3205 6.386 44.9505 7.376 44.9505 9.068L 44.9505 14L 46.4985 14L 46.4985 8.87C 46.4985 5.846 44.7885 5.09 43.6185 5.09C 42.7905 5.09 42.2325 5.306 41.7105 5.702C 41.3505 5.972 40.9905 6.332 40.7205 6.836L 40.6845 6.836C 40.3065 5.81 39.4065 5.09 38.2365 5.09C 36.7785 5.09 35.9685 5.864 35.4825 6.692L 35.4285 6.692L 35.3565 5.288L 33.9705 5.288C 34.0065 6.008 34.0425 6.728 34.0425 7.646L 34.0425 14ZM 55.1922 8.654C 55.1922 6.908 54.5442 5.09 51.8622 5.09C 50.7642 5.09 49.7022 5.396 48.9822 5.846L 49.3422 6.908C 49.9542 6.494 50.8002 6.26 51.6282 6.26C 53.4102 6.242 53.6082 7.556 53.6082 8.276L 53.6082 8.456C 50.2422 8.438 48.3702 9.59 48.3702 11.696C 48.3702 12.956 49.2702 14.198 51.0342 14.198C 52.2762 14.198 53.2302 13.586 53.6982 12.902L 53.7522 12.902L 53.8962 14L 55.3182 14C 55.2282 13.406 55.1922 12.668 55.1922 11.912L 55.1922 8.654ZM 53.6442 11.066C 53.6442 11.228 53.6262 11.408 53.5722 11.57C 53.3202 12.308 52.5822 13.028 51.4302 13.028C 50.6382 13.028 49.9542 12.56 49.9542 11.516C 49.9542 9.824 51.9162 9.518 53.6442 9.554L 53.6442 11.066ZM 57.7378 14L 59.3218 14L 59.3218 8.744C 59.3218 8.492 59.3578 8.204 59.4298 8.006C 59.7178 7.124 60.5278 6.386 61.5538 6.386C 63.0478 6.386 63.5698 7.574 63.5698 8.978L 63.5698 14L 65.1538 14L 65.1538 8.798C 65.1538 5.81 63.2818 5.09 62.0758 5.09C 60.6358 5.09 59.6278 5.9 59.1958 6.71L 59.1598 6.71L 59.0698 5.288L 57.6658 5.288C 57.7198 6.008 57.7378 6.728 57.7378 7.646L 57.7378 14ZM 66.9482 8.564L 66.9482 9.716L 71.3942 9.716L 71.3942 8.564L 66.9482 8.564ZM 12.9917 33.344C 12.3617 33.65 11.3897 33.848 10.4177 33.848C 7.48373 33.848 5.77373 31.958 5.77373 28.988C 5.77373 25.82 7.66373 24.002 10.5077 24.002C 11.5157 24.002 12.3617 24.218 12.9377 24.506L 13.3337 23.21C 12.9197 23.012 11.9477 22.688 10.4537 22.688C 6.69173 22.688 4.11773 25.244 4.11773 29.042C 4.11773 33.02 6.67373 35.18 10.0937 35.18C 11.5697 35.18 12.7397 34.892 13.2977 34.604L 12.9917 33.344ZM 18.5958 35.198C 20.6658 35.198 22.9158 33.794 22.9158 30.554C 22.9158 27.908 21.2238 26.09 18.7218 26.09C 16.3278 26.09 14.4018 27.8 14.4018 30.716C 14.4018 33.47 16.2378 35.198 18.5778 35.198L 18.5958 35.198ZM 18.6318 34.01C 17.1018 34.01 16.0218 32.57 16.0218 30.662C 16.0218 29.006 16.8318 27.278 18.6858 27.278C 20.5578 27.278 21.2958 29.132 21.2958 30.608C 21.2958 32.588 20.1618 34.01 18.6498 34.01L 18.6318 34.01ZM 24.9107 35L 26.4587 35L 26.4587 29.744C 26.4587 29.474 26.4947 29.204 26.5847 28.97C 26.8367 28.178 27.5747 27.386 28.5467 27.386C 29.7527 27.386 30.3647 28.376 30.3647 29.762L 30.3647 35L 31.9127 35L 31.9127 29.6C 31.9127 29.33 31.9667 29.042 32.0387 28.808C 32.3267 28.052 33.0107 27.386 33.9287 27.386C 35.1887 27.386 35.8187 28.376 35.8187 30.068L 35.8187 35L 37.3667 35L 37.3667 29.87C 37.3667 26.846 35.6567 26.09 34.4867 26.09C 33.6587 26.09 33.1007 26.306 32.5787 26.702C 32.2187 26.972 31.8587 27.332 31.5887 27.836L 31.5527 27.836C 31.1747 26.81 30.2747 26.09 29.1047 26.09C 27.6467 26.09 26.8367 26.864 26.3507 27.692L 26.2967 27.692L 26.2247 26.288L 24.8387 26.288C 24.8747 27.008 24.9107 27.728 24.9107 28.646L 24.9107 35ZM 39.9224 38.564L 41.5064 38.564L 41.5064 33.83L 41.5424 33.83C 42.0644 34.694 43.0544 35.198 44.2244 35.198C 46.2584 35.198 48.1844 33.65 48.1844 30.518C 48.1844 27.872 46.6004 26.09 44.4764 26.09C 43.0724 26.09 42.0284 26.702 41.3984 27.782L 41.3624 27.782L 41.2724 26.288L 39.8504 26.288C 39.9044 27.116 39.9224 28.016 39.9224 29.132L 39.9224 38.564ZM 41.5064 29.942C 41.5064 29.744 41.5604 29.51 41.5964 29.312C 41.9024 28.106 42.9284 27.35 44.0084 27.35C 45.6824 27.35 46.5824 28.844 46.5824 30.59C 46.5824 32.588 45.6104 33.956 43.9364 33.956C 42.8204 33.956 41.8484 33.2 41.5784 32.102C 41.5244 31.904 41.5064 31.67 41.5064 31.454L 41.5064 29.942ZM 57.4604 26.288L 55.8764 26.288L 55.8764 31.616C 55.8764 31.922 55.8224 32.21 55.7324 32.426C 55.4444 33.146 54.7064 33.884 53.6444 33.884C 52.2224 33.884 51.7004 32.75 51.7004 31.094L 51.7004 26.288L 50.1164 26.288L 50.1164 31.382C 50.1164 34.424 51.7544 35.198 53.1224 35.198C 54.6704 35.198 55.6064 34.28 56.0024 33.578L 56.0384 33.578L 56.1284 35L 57.5324 35C 57.4784 34.316 57.4604 33.524 57.4604 32.606L 57.4604 26.288ZM 60.4445 24.686L 60.4445 26.288L 59.0945 26.288L 59.0945 27.494L 60.4445 27.494L 60.4445 32.228C 60.4445 33.254 60.6245 34.028 61.0565 34.514C 61.4345 34.928 62.0285 35.18 62.7665 35.18C 63.3785 35.18 63.8645 35.072 64.1705 34.964L 64.0985 33.758C 63.8645 33.83 63.6125 33.866 63.1805 33.866C 62.2985 33.866 61.9925 33.254 61.9925 32.174L 61.9925 27.494L 64.2605 27.494L 64.2605 26.288L 61.9925 26.288L 61.9925 24.2L 60.4445 24.686ZM 72.94 30.932C 72.976 30.752 72.994 30.518 72.994 30.194C 72.994 28.592 72.256 26.09 69.412 26.09C 66.874 26.09 65.308 28.16 65.308 30.788C 65.308 33.398 66.928 35.18 69.592 35.18C 70.978 35.18 71.95 34.874 72.508 34.622L 72.22 33.488C 71.644 33.74 70.942 33.938 69.808 33.938C 68.224 33.938 66.874 33.056 66.838 30.932L 72.94 30.932ZM 66.856 29.798C 66.982 28.7 67.666 27.224 69.286 27.224C 71.05 27.224 71.482 28.79 71.464 29.798L 66.856 29.798ZM 74.9556 35L 76.5396 35L 76.5396 30.338C 76.5396 30.086 76.5576 29.834 76.5936 29.6C 76.8096 28.43 77.6016 27.584 78.7176 27.584C 78.9336 27.584 79.0956 27.602 79.2576 27.62L 79.2576 26.126C 79.1136 26.108 78.9876 26.09 78.8256 26.09C 77.7636 26.09 76.7916 26.828 76.3956 27.998L 76.3416 27.998L 76.2696 26.288L 74.8836 26.288C 74.9376 27.098 74.9556 27.98 74.9556 29.006L 74.9556 35ZM 1.80508 44.868L 1.80508 57L 3.38908 57L 3.38908 44.868L 1.80508 44.868ZM 6.2515 57L 7.8355 57L 7.8355 51.744C 7.8355 51.492 7.8715 51.204 7.9435 51.006C 8.2315 50.124 9.0415 49.386 10.0675 49.386C 11.5615 49.386 12.0835 50.574 12.0835 51.978L 12.0835 57L 13.6675 57L 13.6675 51.798C 13.6675 48.81 11.7955 48.09 10.5895 48.09C 9.1495 48.09 8.1415 48.9 7.7095 49.71L 7.6735 49.71L 7.5835 48.288L 6.1795 48.288C 6.2335 49.008 6.2515 49.728 6.2515 50.646L 6.2515 57ZM 16.5256 46.686L 16.5256 48.288L 15.1756 48.288L 15.1756 49.494L 16.5256 49.494L 16.5256 54.228C 16.5256 55.254 16.7056 56.028 17.1376 56.514C 17.5156 56.928 18.1096 57.18 18.8476 57.18C 19.4596 57.18 19.9456 57.072 20.2516 56.964L 20.1796 55.758C 19.9456 55.83 19.6936 55.866 19.2616 55.866C 18.3796 55.866 18.0736 55.254 18.0736 54.174L 18.0736 49.494L 20.3416 49.494L 20.3416 48.288L 18.0736 48.288L 18.0736 46.2L 16.5256 46.686ZM 29.0211 52.932C 29.0571 52.752 29.0751 52.518 29.0751 52.194C 29.0751 50.592 28.3371 48.09 25.4931 48.09C 22.9551 48.09 21.3891 50.16 21.3891 52.788C 21.3891 55.398 23.0091 57.18 25.6731 57.18C 27.0591 57.18 28.0311 56.874 28.5891 56.622L 28.3011 55.488C 27.7251 55.74 27.0231 55.938 25.8891 55.938C 24.3051 55.938 22.9551 55.056 22.9191 52.932L 29.0211 52.932ZM 22.9371 51.798C 23.0631 50.7 23.7471 49.224 25.3671 49.224C 27.1311 49.224 27.5631 50.79 27.5451 51.798L 22.9371 51.798ZM 31.0367 57L 32.6207 57L 32.6207 52.338C 32.6207 52.086 32.6387 51.834 32.6747 51.6C 32.8907 50.43 33.6827 49.584 34.7987 49.584C 35.0147 49.584 35.1767 49.602 35.3387 49.62L 35.3387 48.126C 35.1947 48.108 35.0687 48.09 34.9067 48.09C 33.8447 48.09 32.8727 48.828 32.4767 49.998L 32.4227 49.998L 32.3507 48.288L 30.9647 48.288C 31.0187 49.098 31.0367 49.98 31.0367 51.006L 31.0367 57ZM 42.9754 51.654C 42.9754 49.908 42.3274 48.09 39.6454 48.09C 38.5474 48.09 37.4854 48.396 36.7654 48.846L 37.1254 49.908C 37.7374 49.494 38.5834 49.26 39.4114 49.26C 41.1934 49.242 41.3914 50.556 41.3914 51.276L 41.3914 51.456C 38.0254 51.438 36.1534 52.59 36.1534 54.696C 36.1534 55.956 37.0534 57.198 38.8174 57.198C 40.0594 57.198 41.0134 56.586 41.4814 55.902L 41.5354 55.902L 41.6794 57L 43.1014 57C 43.0114 56.406 42.9754 55.668 42.9754 54.912L 42.9754 51.654ZM 41.4274 54.066C 41.4274 54.228 41.4094 54.408 41.3554 54.57C 41.1034 55.308 40.3654 56.028 39.2134 56.028C 38.4214 56.028 37.7374 55.56 37.7374 54.516C 37.7374 52.824 39.6994 52.518 41.4274 52.554L 41.4274 54.066ZM 51.461 55.488C 51.011 55.686 50.417 55.902 49.517 55.902C 47.789 55.902 46.493 54.66 46.493 52.644C 46.493 50.844 47.573 49.35 49.571 49.35C 50.435 49.35 51.029 49.566 51.407 49.764L 51.767 48.558C 51.335 48.324 50.507 48.09 49.571 48.09C 46.727 48.09 44.891 50.052 44.891 52.734C 44.891 55.398 46.601 57.18 49.229 57.18C 50.399 57.18 51.317 56.874 51.731 56.676L 51.461 55.488ZM 54.1779 46.686L 54.1779 48.288L 52.8279 48.288L 52.8279 49.494L 54.1779 49.494L 54.1779 54.228C 54.1779 55.254 54.3579 56.028 54.7899 56.514C 55.1679 56.928 55.7619 57.18 56.4999 57.18C 57.1119 57.18 57.5979 57.072 57.9039 56.964L 57.8319 55.758C 57.5979 55.83 57.3459 55.866 56.9139 55.866C 56.0319 55.866 55.7259 55.254 55.7259 54.174L 55.7259 49.494L 57.9939 49.494L 57.9939 48.288L 55.7259 48.288L 55.7259 46.2L 54.1779 46.686ZM 61.3609 57L 61.3609 48.288L 59.7769 48.288L 59.7769 57L 61.3609 57ZM 60.5509 46.812C 61.1629 46.812 61.5409 46.362 61.5409 45.84C 61.5409 45.282 61.1449 44.85 60.5689 44.85C 59.9749 44.85 59.5789 45.282 59.5789 45.84C 59.5789 46.362 59.9569 46.812 60.5329 46.812L 60.5509 46.812ZM 67.5596 57.198C 69.6296 57.198 71.8796 55.794 71.8796 52.554C 71.8796 49.908 70.1876 48.09 67.6856 48.09C 65.2916 48.09 63.3656 49.8 63.3656 52.716C 63.3656 55.47 65.2016 57.198 67.5416 57.198L 67.5596 57.198ZM 67.5956 56.01C 66.0656 56.01 64.9856 54.57 64.9856 52.662C 64.9856 51.006 65.7956 49.278 67.6496 49.278C 69.5216 49.278 70.2596 51.132 70.2596 52.608C 70.2596 54.588 69.1256 56.01 67.6136 56.01L 67.5956 56.01ZM 73.8745 57L 75.4585 57L 75.4585 51.744C 75.4585 51.492 75.4945 51.204 75.5665 51.006C 75.8545 50.124 76.6645 49.386 77.6905 49.386C 79.1845 49.386 79.7065 50.574 79.7065 51.978L 79.7065 57L 81.2905 57L 81.2905 51.798C 81.2905 48.81 79.4185 48.09 78.2125 48.09C 76.7725 48.09 75.7645 48.9 75.3325 49.71L 75.2965 49.71L 75.2065 48.288L 73.8025 48.288C 73.8565 49.008 73.8745 49.728 73.8745 50.646L 73.8745 57Z"/>
<path id="path6_fill" d="M 31.6959 14L 33.2259 14L 32.4699 1.868L 30.4719 1.868L 28.3119 7.736C 27.7719 9.266 27.3399 10.598 27.0339 11.822L 26.9799 11.822C 26.6739 10.562 26.2599 9.23 25.7559 7.736L 23.6859 1.868L 21.6879 1.868L 20.8419 14L 22.3359 14L 22.6599 8.798C 22.7679 6.98 22.8579 4.946 22.8939 3.434L 22.9299 3.434C 23.2719 4.874 23.7579 6.44 24.3339 8.15L 26.2959 13.928L 27.4839 13.928L 29.6259 8.042C 30.2379 6.386 30.7419 4.856 31.1559 3.434L 31.2099 3.434C 31.1919 4.946 31.2999 6.98 31.3899 8.672L 31.6959 14ZM 42.9214 5.288L 41.3374 5.288L 41.3374 10.634C 41.3374 10.922 41.2834 11.21 41.1934 11.444C 40.9054 12.146 40.1674 12.884 39.1054 12.884C 37.6654 12.884 37.1614 11.768 37.1614 10.112L 37.1614 5.288L 35.5774 5.288L 35.5774 10.382C 35.5774 13.442 37.2154 14.198 38.5834 14.198C 40.1314 14.198 41.0494 13.28 41.4634 12.578L 41.4994 12.578L 41.5894 14L 42.9934 14C 42.9394 13.316 42.9214 12.524 42.9214 11.624L 42.9214 5.288ZM 45.5454 14L 47.1294 14L 47.1294 1.22L 45.5454 1.22L 45.5454 14ZM 50.1594 3.686L 50.1594 5.288L 48.8094 5.288L 48.8094 6.494L 50.1594 6.494L 50.1594 11.246C 50.1594 12.272 50.3214 13.046 50.7714 13.514C 51.1494 13.946 51.7434 14.198 52.4814 14.198C 53.0934 14.198 53.5794 14.09 53.8854 13.964L 53.8134 12.776C 53.5794 12.848 53.3274 12.884 52.8954 12.884C 52.0134 12.884 51.7074 12.272 51.7074 11.192L 51.7074 6.494L 53.9754 6.494L 53.9754 5.288L 51.7074 5.288L 51.7074 3.2L 50.1594 3.686ZM 57.3423 14L 57.3423 5.288L 55.7583 5.288L 55.7583 14L 57.3423 14ZM 56.5503 1.85C 55.9743 1.85 55.5603 2.282 55.5603 2.84C 55.5603 3.38 55.9563 3.812 56.5143 3.812C 57.1443 3.812 57.5403 3.38 57.5223 2.84C 57.5223 2.282 57.1443 1.85 56.5503 1.85ZM 59.9771 17.564L 61.5431 17.564L 61.5431 12.83L 61.5791 12.83C 62.1011 13.694 63.1091 14.198 64.2611 14.198C 66.3131 14.198 68.2211 12.65 68.2211 9.518C 68.2211 6.872 66.6371 5.09 64.5311 5.09C 63.1091 5.09 62.0831 5.72 61.4351 6.782L 61.3991 6.782L 61.3271 5.288L 59.9051 5.288C 59.9411 6.116 59.9771 7.016 59.9771 8.132L 59.9771 17.564ZM 61.5431 8.96C 61.5431 8.744 61.5971 8.51 61.6511 8.312C 61.9571 7.124 62.9651 6.35 64.0451 6.35C 65.7191 6.35 66.6371 7.844 66.6371 9.59C 66.6371 11.588 65.6651 12.956 63.9911 12.956C 62.8571 12.956 61.9031 12.2 61.6151 11.102C 61.5791 10.904 61.5431 10.688 61.5431 10.454L 61.5431 8.96ZM 77.2271 9.932C 77.2451 9.77 77.2811 9.518 77.2811 9.194C 77.2811 7.592 76.5251 5.09 73.6811 5.09C 71.1431 5.09 69.5951 7.16 69.5951 9.788C 69.5951 12.416 71.1971 14.198 73.8791 14.198C 75.2651 14.198 76.2191 13.892 76.7771 13.64L 76.5071 12.506C 75.9131 12.758 75.2291 12.956 74.0951 12.956C 72.5111 12.956 71.1431 12.074 71.1071 9.932L 77.2271 9.932ZM 71.1251 8.798C 71.2511 7.7 71.9531 6.224 73.5551 6.224C 75.3371 6.224 75.7691 7.79 75.7511 8.798L 71.1251 8.798ZM 79.2427 14L 80.8087 14L 80.8087 9.356C 80.8087 9.086 80.8447 8.834 80.8807 8.618C 81.0967 7.43 81.8887 6.584 83.0047 6.584C 83.2207 6.584 83.3827 6.602 83.5447 6.638L 83.5447 5.144C 83.4007 5.108 83.2747 5.09 83.0947 5.09C 82.0327 5.09 81.0787 5.828 80.6827 6.998L 80.6107 6.998L 80.5567 5.288L 79.1707 5.288C 79.2247 6.098 79.2427 6.98 79.2427 8.006L 79.2427 14ZM 84.5194 13.586C 85.1314 13.946 86.0134 14.198 86.9674 14.198C 89.0374 14.198 90.2254 13.1 90.2254 11.57C 90.2254 10.274 89.4514 9.518 87.9394 8.942C 86.8054 8.51 86.2834 8.186 86.2834 7.466C 86.2834 6.818 86.8054 6.278 87.7414 6.278C 88.5514 6.278 89.1814 6.566 89.5234 6.782L 89.9194 5.63C 89.4334 5.342 88.6594 5.09 87.7774 5.09C 85.9054 5.09 84.7714 6.242 84.7714 7.646C 84.7714 8.69 85.5094 9.554 87.0754 10.112C 88.2454 10.544 88.6954 10.958 88.6954 11.714C 88.6954 12.434 88.1554 13.01 87.0034 13.01C 86.2114 13.01 85.3834 12.686 84.9154 12.38L 84.5194 13.586ZM 92.2681 17.564L 93.8341 17.564L 93.8341 12.83L 93.8701 12.83C 94.3921 13.694 95.4001 14.198 96.5521 14.198C 98.6041 14.198 100.512 12.65 100.512 9.518C 100.512 6.872 98.9281 5.09 96.8221 5.09C 95.4001 5.09 94.3741 5.72 93.7261 6.782L 93.6901 6.782L 93.6181 5.288L 92.1961 5.288C 92.2321 6.116 92.2681 7.016 92.2681 8.132L 92.2681 17.564ZM 93.8341 8.96C 93.8341 8.744 93.8881 8.51 93.9421 8.312C 94.2481 7.124 95.2561 6.35 96.3361 6.35C 98.0101 6.35 98.9281 7.844 98.9281 9.59C 98.9281 11.588 97.9561 12.956 96.2821 12.956C 95.1481 12.956 94.1941 12.2 93.9061 11.102C 93.8701 10.904 93.8341 10.688 93.8341 10.454L 93.8341 8.96ZM 109.518 9.932C 109.536 9.77 109.572 9.518 109.572 9.194C 109.572 7.592 108.816 5.09 105.972 5.09C 103.434 5.09 101.886 7.16 101.886 9.788C 101.886 12.416 103.488 14.198 106.17 14.198C 107.556 14.198 108.51 13.892 109.068 13.64L 108.798 12.506C 108.204 12.758 107.52 12.956 106.386 12.956C 104.802 12.956 103.434 12.074 103.398 9.932L 109.518 9.932ZM 103.416 8.798C 103.542 7.7 104.244 6.224 105.846 6.224C 107.628 6.224 108.06 7.79 108.042 8.798L 103.416 8.798ZM 117.474 12.488C 117.024 12.686 116.43 12.92 115.53 12.92C 113.802 12.92 112.506 11.678 112.506 9.662C 112.506 7.844 113.586 6.368 115.584 6.368C 116.448 6.368 117.042 6.566 117.42 6.782L 117.78 5.558C 117.348 5.342 116.52 5.108 115.584 5.108C 112.74 5.108 110.904 7.052 110.904 9.734C 110.904 12.398 112.614 14.198 115.242 14.198C 116.412 14.198 117.33 13.892 117.744 13.676L 117.474 12.488ZM 120.191 3.686L 120.191 5.288L 118.841 5.288L 118.841 6.494L 120.191 6.494L 120.191 11.246C 120.191 12.272 120.353 13.046 120.803 13.514C 121.181 13.946 121.775 14.198 122.513 14.198C 123.125 14.198 123.611 14.09 123.917 13.964L 123.845 12.776C 123.611 12.848 123.359 12.884 122.927 12.884C 122.045 12.884 121.739 12.272 121.739 11.192L 121.739 6.494L 124.007 6.494L 124.007 5.288L 121.739 5.288L 121.739 3.2L 120.191 3.686ZM 127.374 14L 127.374 5.288L 125.79 5.288L 125.79 14L 127.374 14ZM 126.582 1.85C 126.006 1.85 125.592 2.282 125.592 2.84C 125.592 3.38 125.988 3.812 126.546 3.812C 127.176 3.812 127.572 3.38 127.554 2.84C 127.554 2.282 127.176 1.85 126.582 1.85ZM 128.928 5.288L 132.24 14L 133.752 14L 137.172 5.288L 135.516 5.288L 133.824 10.184C 133.536 10.976 133.284 11.696 133.086 12.416L 133.032 12.416C 132.852 11.696 132.618 10.976 132.33 10.184L 130.62 5.288L 128.928 5.288ZM 145.501 9.932C 145.519 9.77 145.555 9.518 145.555 9.194C 145.555 7.592 144.799 5.09 141.955 5.09C 139.417 5.09 137.869 7.16 137.869 9.788C 137.869 12.416 139.471 14.198 142.153 14.198C 143.539 14.198 144.493 13.892 145.051 13.64L 144.781 12.506C 144.187 12.758 143.503 12.956 142.369 12.956C 140.785 12.956 139.417 12.074 139.381 9.932L 145.501 9.932ZM 139.399 8.798C 139.525 7.7 140.227 6.224 141.829 6.224C 143.611 6.224 144.043 7.79 144.025 8.798L 139.399 8.798ZM 1.41683 35L 2.98283 35L 2.98283 30.14C 3.34283 30.23 3.77483 30.248 4.24283 30.248C 5.77283 30.248 7.12283 29.798 7.95083 28.916C 8.56283 28.286 8.88683 27.422 8.88683 26.324C 8.88683 25.244 8.49083 24.362 7.82483 23.786C 7.10483 23.138 5.97083 22.778 4.42283 22.778C 3.16283 22.778 2.17283 22.886 1.41683 23.012L 1.41683 35ZM 2.98283 24.146C 3.25283 24.074 3.77483 24.02 4.45883 24.02C 6.18683 24.02 7.32083 24.794 7.32083 26.396C 7.32083 28.07 6.16883 28.988 4.27883 28.988C 3.75683 28.988 3.32483 28.952 2.98283 28.862L 2.98283 24.146ZM 10.6617 35L 12.2277 35L 12.2277 30.356C 12.2277 30.086 12.2637 29.834 12.2997 29.618C 12.5157 28.43 13.3077 27.584 14.4237 27.584C 14.6397 27.584 14.8017 27.602 14.9637 27.638L 14.9637 26.144C 14.8197 26.108 14.6937 26.09 14.5137 26.09C 13.4517 26.09 12.4977 26.828 12.1017 27.998L 12.0297 27.998L 11.9757 26.288L 10.5897 26.288C 10.6437 27.098 10.6617 27.98 10.6617 29.006L 10.6617 35ZM 20.0645 26.09C 17.6525 26.09 15.7445 27.8 15.7445 30.716C 15.7445 33.47 17.5625 35.198 19.9205 35.198C 22.0265 35.198 24.2585 33.794 24.2585 30.572C 24.2585 27.908 22.5665 26.09 20.0645 26.09ZM 20.0285 27.278C 21.9005 27.278 22.6385 29.15 22.6385 30.626C 22.6385 32.588 21.5045 34.01 19.9925 34.01C 18.4445 34.01 17.3465 32.57 17.3465 30.662C 17.3465 29.006 18.1565 27.278 20.0285 27.278ZM 32.1935 22.22L 32.1935 27.422L 32.1575 27.422C 31.7615 26.72 30.8615 26.09 29.5295 26.09C 27.4055 26.09 25.6055 27.872 25.6235 30.77C 25.6235 33.416 27.2435 35.198 29.3495 35.198C 30.7715 35.198 31.8335 34.46 32.3195 33.488L 32.3555 33.488L 32.4275 35L 33.8495 35C 33.7955 34.406 33.7775 33.524 33.7775 32.75L 33.7775 22.22L 32.1935 22.22ZM 32.1935 31.346C 32.1935 31.598 32.1755 31.814 32.1215 32.03C 31.8335 33.218 30.8615 33.92 29.7995 33.92C 28.0895 33.92 27.2255 32.462 27.2255 30.698C 27.2255 28.772 28.1975 27.332 29.8355 27.332C 31.0235 27.332 31.8875 28.16 32.1215 29.168C 32.1755 29.366 32.1935 29.636 32.1935 29.834L 32.1935 31.346ZM 43.7036 26.288L 42.1196 26.288L 42.1196 31.634C 42.1196 31.922 42.0656 32.21 41.9756 32.444C 41.6876 33.146 40.9496 33.884 39.8876 33.884C 38.4476 33.884 37.9436 32.768 37.9436 31.112L 37.9436 26.288L 36.3596 26.288L 36.3596 31.382C 36.3596 34.442 37.9976 35.198 39.3656 35.198C 40.9136 35.198 41.8316 34.28 42.2456 33.578L 42.2816 33.578L 42.3716 35L 43.7756 35C 43.7216 34.316 43.7036 33.524 43.7036 32.624L 43.7036 26.288ZM 52.2677 33.488C 51.8177 33.686 51.2237 33.92 50.3237 33.92C 48.5957 33.92 47.2997 32.678 47.2997 30.662C 47.2997 28.844 48.3797 27.368 50.3777 27.368C 51.2417 27.368 51.8357 27.566 52.2137 27.782L 52.5737 26.558C 52.1417 26.342 51.3137 26.108 50.3777 26.108C 47.5337 26.108 45.6977 28.052 45.6977 30.734C 45.6977 33.398 47.4077 35.198 50.0357 35.198C 51.2057 35.198 52.1237 34.892 52.5377 34.676L 52.2677 33.488ZM 54.9845 24.686L 54.9845 26.288L 53.6345 26.288L 53.6345 27.494L 54.9845 27.494L 54.9845 32.246C 54.9845 33.272 55.1465 34.046 55.5965 34.514C 55.9745 34.946 56.5685 35.198 57.3065 35.198C 57.9185 35.198 58.4045 35.09 58.7105 34.964L 58.6385 33.776C 58.4045 33.848 58.1525 33.884 57.7205 33.884C 56.8385 33.884 56.5325 33.272 56.5325 32.192L 56.5325 27.494L 58.8005 27.494L 58.8005 26.288L 56.5325 26.288L 56.5325 24.2L 54.9845 24.686ZM 64.452 34.964C 65.244 35.054 66.18 35.108 67.296 35.108C 69.654 35.108 71.526 34.496 72.66 33.362C 73.794 32.246 74.406 30.626 74.406 28.646C 74.406 26.684 73.776 25.28 72.696 24.29C 71.634 23.3 70.032 22.778 67.782 22.778C 66.54 22.778 65.406 22.886 64.452 23.03L 64.452 34.964ZM 66.018 24.182C 66.432 24.092 67.044 24.02 67.854 24.02C 71.166 24.02 72.786 25.838 72.768 28.7C 72.768 31.976 70.95 33.848 67.602 33.848C 66.99 33.848 66.414 33.83 66.018 33.758L 66.018 24.182ZM 83.4586 30.932C 83.4766 30.77 83.5126 30.518 83.5126 30.194C 83.5126 28.592 82.7566 26.09 79.9126 26.09C 77.3746 26.09 75.8266 28.16 75.8266 30.788C 75.8266 33.416 77.4286 35.198 80.1106 35.198C 81.4966 35.198 82.4506 34.892 83.0086 34.64L 82.7386 33.506C 82.1446 33.758 81.4606 33.956 80.3266 33.956C 78.7426 33.956 77.3746 33.074 77.3386 30.932L 83.4586 30.932ZM 77.3566 29.798C 77.4826 28.7 78.1846 27.224 79.7866 27.224C 81.5686 27.224 82.0006 28.79 81.9826 29.798L 77.3566 29.798ZM 84.3942 26.288L 87.7062 35L 89.2182 35L 92.6382 26.288L 90.9822 26.288L 89.2902 31.184C 89.0022 31.976 88.7502 32.696 88.5522 33.416L 88.4982 33.416C 88.3182 32.696 88.0842 31.976 87.7962 31.184L 86.0862 26.288L 84.3942 26.288ZM 100.966 30.932C 100.984 30.77 101.02 30.518 101.02 30.194C 101.02 28.592 100.264 26.09 97.4204 26.09C 94.8824 26.09 93.3344 28.16 93.3344 30.788C 93.3344 33.416 94.9364 35.198 97.6184 35.198C 99.0044 35.198 99.9584 34.892 100.516 34.64L 100.246 33.506C 99.6524 33.758 98.9684 33.956 97.8344 33.956C 96.2504 33.956 94.8824 33.074 94.8464 30.932L 100.966 30.932ZM 94.8644 29.798C 94.9904 28.7 95.6924 27.224 97.2944 27.224C 99.0764 27.224 99.5084 28.79 99.4904 29.798L 94.8644 29.798ZM 102.982 35L 104.566 35L 104.566 22.22L 102.982 22.22L 102.982 35ZM 110.926 26.09C 108.514 26.09 106.606 27.8 106.606 30.716C 106.606 33.47 108.424 35.198 110.782 35.198C 112.888 35.198 115.12 33.794 115.12 30.572C 115.12 27.908 113.428 26.09 110.926 26.09ZM 110.89 27.278C 112.762 27.278 113.5 29.15 113.5 30.626C 113.5 32.588 112.366 34.01 110.854 34.01C 109.306 34.01 108.208 32.57 108.208 30.662C 108.208 29.006 109.018 27.278 110.89 27.278ZM 117.115 38.564L 118.681 38.564L 118.681 33.83L 118.717 33.83C 119.239 34.694 120.247 35.198 121.399 35.198C 123.451 35.198 125.359 33.65 125.359 30.518C 125.359 27.872 123.775 26.09 121.669 26.09C 120.247 26.09 119.221 26.72 118.573 27.782L 118.537 27.782L 118.465 26.288L 117.043 26.288C 117.079 27.116 117.115 28.016 117.115 29.132L 117.115 38.564ZM 118.681 29.96C 118.681 29.744 118.735 29.51 118.789 29.312C 119.095 28.124 120.103 27.35 121.183 27.35C 122.857 27.35 123.775 28.844 123.775 30.59C 123.775 32.588 122.803 33.956 121.129 33.956C 119.995 33.956 119.041 33.2 118.753 32.102C 118.717 31.904 118.681 31.688 118.681 31.454L 118.681 29.96ZM 127.363 35L 128.911 35L 128.911 29.744C 128.911 29.474 128.947 29.204 129.037 28.97C 129.289 28.178 130.009 27.386 130.999 27.386C 132.205 27.386 132.817 28.394 132.817 29.78L 132.817 35L 134.365 35L 134.365 29.618C 134.365 29.33 134.419 29.042 134.491 28.826C 134.761 28.052 135.463 27.386 136.363 27.386C 137.641 27.386 138.253 28.394 138.253 30.068L 138.253 35L 139.801 35L 139.801 29.87C 139.801 26.846 138.091 26.09 136.939 26.09C 136.111 26.09 135.535 26.306 135.013 26.702C 134.653 26.972 134.311 27.35 134.041 27.836L 134.005 27.836C 133.627 26.81 132.727 26.09 131.539 26.09C 130.099 26.09 129.289 26.864 128.803 27.692L 128.749 27.692L 128.677 26.288L 127.291 26.288C 127.345 27.008 127.363 27.746 127.363 28.646L 127.363 35ZM 149.377 30.932C 149.395 30.77 149.431 30.518 149.431 30.194C 149.431 28.592 148.675 26.09 145.831 26.09C 143.293 26.09 141.745 28.16 141.745 30.788C 141.745 33.416 143.347 35.198 146.029 35.198C 147.415 35.198 148.369 34.892 148.927 34.64L 148.657 33.506C 148.063 33.758 147.379 33.956 146.245 33.956C 144.661 33.956 143.293 33.074 143.257 30.932L 149.377 30.932ZM 143.275 29.798C 143.401 28.7 144.103 27.224 145.705 27.224C 147.487 27.224 147.919 28.79 147.901 29.798L 143.275 29.798ZM 151.392 35L 152.976 35L 152.976 29.762C 152.976 29.492 153.012 29.222 153.084 29.024C 153.354 28.142 154.164 27.404 155.208 27.404C 156.702 27.404 157.224 28.574 157.224 29.978L 157.224 35L 158.808 35L 158.808 29.798C 158.808 26.81 156.936 26.09 155.73 26.09C 154.29 26.09 153.282 26.9 152.85 27.728L 152.814 27.728L 152.724 26.288L 151.32 26.288C 151.374 27.008 151.392 27.746 151.392 28.646L 151.392 35ZM 161.666 24.686L 161.666 26.288L 160.316 26.288L 160.316 27.494L 161.666 27.494L 161.666 32.246C 161.666 33.272 161.828 34.046 162.278 34.514C 162.656 34.946 163.25 35.198 163.988 35.198C 164.6 35.198 165.086 35.09 165.392 34.964L 165.32 33.776C 165.086 33.848 164.834 33.884 164.402 33.884C 163.52 33.884 163.214 33.272 163.214 32.192L 163.214 27.494L 165.482 27.494L 165.482 26.288L 163.214 26.288L 163.214 24.2L 161.666 24.686Z"/>
<path id="path7_fill" d="M 5.42252 14L 7.15052 7.682C 7.60052 6.116 7.88852 4.946 8.08652 3.722L 8.12252 3.722C 8.28452 4.946 8.53652 6.134 8.91452 7.7L 10.4445 14L 12.0825 14L 15.5205 1.868L 13.9185 1.868L 12.3165 7.988C 11.9385 9.5 11.5965 10.85 11.3445 12.182L 11.3085 12.182C 11.1285 10.904 10.8045 9.482 10.4625 8.024L 8.98652 1.868L 7.34852 1.868L 5.72852 7.988C 5.31452 9.554 4.93652 10.994 4.73852 12.2L 4.70252 12.2C 4.48652 11.03 4.16252 9.536 3.80252 8.006L 2.36252 1.868L 0.706523 1.868L 3.78452 14L 5.42252 14ZM 23.3951 9.932C 23.4311 9.752 23.4491 9.518 23.4491 9.194C 23.4491 7.592 22.7111 5.09 19.8671 5.09C 17.3291 5.09 15.7631 7.16 15.7631 9.788C 15.7631 12.398 17.3831 14.18 20.0471 14.18C 21.4331 14.18 22.4051 13.874 22.9631 13.622L 22.6751 12.488C 22.0991 12.74 21.3971 12.938 20.2631 12.938C 18.6791 12.938 17.3291 12.056 17.2931 9.932L 23.3951 9.932ZM 17.3111 8.798C 17.4371 7.7 18.1211 6.224 19.7411 6.224C 21.5051 6.224 21.9371 7.79 21.9191 8.798L 17.3111 8.798ZM 31.5487 8.654C 31.5487 6.908 30.9007 5.09 28.2187 5.09C 27.1207 5.09 26.0587 5.396 25.3387 5.846L 25.6987 6.908C 26.3107 6.494 27.1567 6.26 27.9847 6.26C 29.7667 6.242 29.9647 7.556 29.9647 8.276L 29.9647 8.456C 26.5987 8.438 24.7267 9.59 24.7267 11.696C 24.7267 12.956 25.6267 14.198 27.3907 14.198C 28.6327 14.198 29.5867 13.586 30.0547 12.902L 30.1087 12.902L 30.2527 14L 31.6747 14C 31.5847 13.406 31.5487 12.668 31.5487 11.912L 31.5487 8.654ZM 30.0007 11.066C 30.0007 11.228 29.9827 11.408 29.9287 11.57C 29.6767 12.308 28.9387 13.028 27.7867 13.028C 26.9947 13.028 26.3107 12.56 26.3107 11.516C 26.3107 9.824 28.2727 9.518 30.0007 9.554L 30.0007 11.066ZM 32.8736 5.288L 36.1856 14L 37.6976 14L 41.1176 5.288L 39.4616 5.288L 37.7696 10.166C 37.4816 10.976 37.2296 11.696 37.0316 12.416L 36.9776 12.416C 36.7976 11.696 36.5636 10.976 36.2756 10.166L 34.5656 5.288L 32.8736 5.288ZM 44.2037 14L 44.2037 5.288L 42.6197 5.288L 42.6197 14L 44.2037 14ZM 43.3937 3.812C 44.0057 3.812 44.3837 3.362 44.3837 2.84C 44.3837 2.282 43.9877 1.85 43.4117 1.85C 42.8177 1.85 42.4217 2.282 42.4217 2.84C 42.4217 3.362 42.7997 3.812 43.3757 3.812L 43.3937 3.812ZM 46.8384 14L 48.4224 14L 48.4224 8.744C 48.4224 8.492 48.4584 8.204 48.5304 8.006C 48.8184 7.124 49.6284 6.386 50.6544 6.386C 52.1484 6.386 52.6704 7.574 52.6704 8.978L 52.6704 14L 54.2544 14L 54.2544 8.798C 54.2544 5.81 52.3824 5.09 51.1764 5.09C 49.7364 5.09 48.7284 5.9 48.2964 6.71L 48.2604 6.71L 48.1704 5.288L 46.7664 5.288C 46.8204 6.008 46.8384 6.728 46.8384 7.646L 46.8384 14ZM 64.2748 7.664C 64.2748 6.62 64.2928 5.9 64.3468 5.288L 62.9428 5.288L 62.8888 6.602L 62.8528 6.602C 62.4568 5.864 61.6468 5.09 60.1348 5.09C 58.1188 5.09 56.1928 6.746 56.1928 9.698C 56.1928 12.128 57.7408 13.964 59.9008 13.964C 61.2508 13.964 62.2048 13.316 62.6728 12.506L 62.7088 12.506L 62.7088 13.46C 62.7088 15.674 61.5208 16.52 59.9008 16.52C 58.8208 16.52 57.9208 16.196 57.3448 15.818L 56.9488 17.042C 57.6508 17.51 58.8028 17.762 59.8468 17.762C 60.9448 17.762 62.1688 17.492 63.0328 16.718C 63.8608 15.944 64.2748 14.738 64.2748 12.722L 64.2748 7.664ZM 62.6908 10.274C 62.6908 10.562 62.6548 10.868 62.5648 11.12C 62.2408 12.146 61.3588 12.758 60.3688 12.758C 58.6768 12.758 57.7948 11.318 57.7948 9.626C 57.7948 7.592 58.8748 6.314 60.3868 6.314C 61.5568 6.314 62.3128 7.07 62.6008 8.006C 62.6728 8.222 62.6908 8.456 62.6908 8.708L 62.6908 10.274ZM 22.1935 24.686L 22.1935 26.288L 20.8435 26.288L 20.8435 27.494L 22.1935 27.494L 22.1935 32.228C 22.1935 33.254 22.3735 34.028 22.8055 34.514C 23.1835 34.928 23.7775 35.18 24.5155 35.18C 25.1275 35.18 25.6135 35.072 25.9195 34.964L 25.8475 33.758C 25.6135 33.83 25.3615 33.866 24.9295 33.866C 24.0475 33.866 23.7415 33.254 23.7415 32.174L 23.7415 27.494L 26.0095 27.494L 26.0095 26.288L 23.7415 26.288L 23.7415 24.2L 22.1935 24.686ZM 27.7925 35L 29.3765 35L 29.3765 29.744C 29.3765 29.438 29.3945 29.204 29.4845 28.988C 29.7905 28.124 30.5825 27.404 31.6085 27.404C 33.1025 27.404 33.6245 28.574 33.6245 29.978L 33.6245 35L 35.2085 35L 35.2085 29.816C 35.2085 26.81 33.3365 26.09 32.1665 26.09C 31.5725 26.09 31.0145 26.252 30.5465 26.54C 30.0605 26.792 29.6645 27.206 29.4125 27.656L 29.3765 27.656L 29.3765 22.22L 27.7925 22.22L 27.7925 35ZM 44.7789 30.932C 44.8149 30.752 44.8329 30.518 44.8329 30.194C 44.8329 28.592 44.0949 26.09 41.2509 26.09C 38.7129 26.09 37.1469 28.16 37.1469 30.788C 37.1469 33.398 38.7669 35.18 41.4309 35.18C 42.8169 35.18 43.7889 34.874 44.3469 34.622L 44.0589 33.488C 43.4829 33.74 42.7809 33.938 41.6469 33.938C 40.0629 33.938 38.7129 33.056 38.6769 30.932L 44.7789 30.932ZM 38.6949 29.798C 38.8209 28.7 39.5049 27.224 41.1249 27.224C 42.8889 27.224 43.3209 28.79 43.3029 29.798L 38.6949 29.798ZM 21.0319 57L 22.7599 50.682C 23.2099 49.116 23.4979 47.946 23.6959 46.722L 23.7319 46.722C 23.8939 47.946 24.1459 49.134 24.5239 50.7L 26.0539 57L 27.6919 57L 31.1299 44.868L 29.5279 44.868L 27.9259 50.988C 27.5479 52.5 27.2059 53.85 26.9539 55.182L 26.9179 55.182C 26.7379 53.904 26.4139 52.482 26.0719 51.024L 24.5959 44.868L 22.9579 44.868L 21.3379 50.988C 20.9239 52.554 20.5459 53.994 20.3479 55.2L 20.3119 55.2C 20.0959 54.03 19.7719 52.536 19.4119 51.006L 17.9719 44.868L 16.3159 44.868L 19.3939 57L 21.0319 57ZM 39.0045 52.932C 39.0405 52.752 39.0585 52.518 39.0585 52.194C 39.0585 50.592 38.3205 48.09 35.4765 48.09C 32.9385 48.09 31.3725 50.16 31.3725 52.788C 31.3725 55.398 32.9925 57.18 35.6565 57.18C 37.0425 57.18 38.0145 56.874 38.5725 56.622L 38.2845 55.488C 37.7085 55.74 37.0065 55.938 35.8725 55.938C 34.2885 55.938 32.9385 55.056 32.9025 52.932L 39.0045 52.932ZM 32.9205 51.798C 33.0465 50.7 33.7305 49.224 35.3505 49.224C 37.1145 49.224 37.5465 50.79 37.5285 51.798L 32.9205 51.798ZM 41.0201 54.75C 41.0201 55.524 41.0021 56.406 40.9481 57L 42.3161 57L 42.4061 55.56L 42.4421 55.56C 43.1081 56.712 44.0981 57.198 45.3581 57.198C 47.3021 57.198 49.2821 55.65 49.2821 52.518C 49.2821 49.89 47.7701 48.09 45.6101 48.09C 44.2061 48.09 43.1981 48.702 42.6401 49.674L 42.6041 49.674L 42.6041 44.22L 41.0201 44.22L 41.0201 54.75ZM 42.6041 51.942C 42.6041 51.69 42.6401 51.474 42.6941 51.276C 43.0001 50.088 44.0081 49.332 45.0881 49.332C 46.7801 49.332 47.6801 50.826 47.6801 52.59C 47.6801 54.588 46.7081 55.938 45.0341 55.938C 43.9001 55.938 42.9641 55.182 42.6581 54.084C 42.6221 53.904 42.6041 53.706 42.6041 53.508L 42.6041 51.942Z"/>
<path id="path8_stroke" d="M 0 0L 226 0L 226 -1L 0 -1L 0 0Z"/>
</defs>
</svg>
