<svg width="666" height="919" viewBox="0 0 666 919" version="1.1" xmlns="http://www.w3.org/2000/svg" xmlns:xlink="http://www.w3.org/1999/xlink" xmlns:figma="http://www.figma.com/figma/ns">
<title>S&#195;&#164;ulen</title>
<desc>Created using Figma</desc>
<g id="Canvas" transform="translate(444 745)" figma:type="canvas">
<mask id="mask0_alpha" mask-type="alpha">
<path d="M -444 -745L 222 -745L 222 174L -444 174L -444 -745Z" fill="#FFFFFF"/>
</mask>
<g id="S&#195;&#164;ulen" style="mix-blend-mode:normal;" mask="url(#mask0_alpha)" figma:type="frame">
<path d="M -444 -745L 222 -745L 222 174L -444 174L -444 -745Z" fill="#FFFFFF"/>
<g id="Text" style="mix-blend-mode:normal;" figma:type="frame">
<g id="Studienphasen" style="mix-blend-mode:normal;" figma:type="text">
<use xlink:href="#path0_fill" transform="translate(-443.5 -745)" style="mix-blend-mode:normal;"/>
</g>
<g id="Informatik Kern" style="mix-blend-mode:normal;" figma:type="text">
<use xlink:href="#path1_fill" transform="translate(-285.5 159)" style="mix-blend-mode:normal;"/>
</g>
<g id="Medieninformatik spezifische Module" style="mix-blend-mode:normal;" figma:type="text">
<use xlink:href="#path2_fill" transform="translate(-28 159)" style="mix-blend-mode:normal;"/>
</g>
</g>
<g id="Semester" style="mix-blend-mode:normal;" figma:type="frame">
<g id="Semester" style="mix-blend-mode:normal;" figma:type="symbol">
<g id="1. Fachsemester" style="mix-blend-mode:normal;" figma:type="text">
<use xlink:href="#path3_fill" transform="translate(-443.5 16)" style="mix-blend-mode:normal;"/>
</g>
<g id="Line" style="mix-blend-mode:normal;" figma:type="line">
<use xlink:href="#path4_stroke" transform="translate(-444 12)" fill="#E0E0E0" style="mix-blend-mode:normal;"/>
</g>
</g>
<g id="Semester" style="mix-blend-mode:normal;" figma:type="instance">
<g id="2. Fachsemester" style="mix-blend-mode:normal;" figma:type="text">
<use xlink:href="#path5_fill" transform="translate(-443.5 -118)" style="mix-blend-mode:normal;"/>
</g>
<g id="Line" style="mix-blend-mode:normal;" figma:type="line">
<use xlink:href="#path4_stroke" transform="translate(-444 -122)" fill="#E0E0E0" style="mix-blend-mode:normal;"/>
</g>
</g>
<g id="Semester" style="mix-blend-mode:normal;" figma:type="instance">
<g id="3. Fachsemester" style="mix-blend-mode:normal;" figma:type="text">
<use xlink:href="#path6_fill" transform="translate(-443.5 -252)" style="mix-blend-mode:normal;"/>
</g>
<g id="Line" style="mix-blend-mode:normal;" figma:type="line">
<use xlink:href="#path4_stroke" transform="translate(-444 -256)" fill="#E0E0E0" style="mix-blend-mode:normal;"/>
</g>
</g>
<g id="Semester" style="mix-blend-mode:normal;" figma:type="instance">
<g id="4. Fachsemester" style="mix-blend-mode:normal;" figma:type="text">
<use xlink:href="#path7_fill" transform="translate(-443.5 -385)" style="mix-blend-mode:normal;"/>
</g>
<g id="Line" style="mix-blend-mode:normal;" figma:type="line">
<use xlink:href="#path4_stroke" transform="translate(-444 -389)" fill="#E0E0E0" style="mix-blend-mode:normal;"/>
</g>
</g>
<g id="Semester" style="mix-blend-mode:normal;" figma:type="instance">
<g id="5. Fachsemester" style="mix-blend-mode:normal;" figma:type="text">
<use xlink:href="#path8_fill" transform="translate(-443.5 -518)" style="mix-blend-mode:normal;"/>
</g>
<g id="Line" style="mix-blend-mode:normal;" figma:type="line">
<use xlink:href="#path4_stroke" transform="translate(-444 -522)" fill="#E0E0E0" style="mix-blend-mode:normal;"/>
</g>
</g>
<g id="Semester" style="mix-blend-mode:normal;" figma:type="instance">
<g id="6. Fachsemester" style="mix-blend-mode:normal;" figma:type="text">
<use xlink:href="#path9_fill" transform="translate(-443.5 -653)" style="mix-blend-mode:normal;"/>
</g>
<g id="Line" style="mix-blend-mode:normal;" figma:type="line">
<use xlink:href="#path4_stroke" transform="translate(-444 -657)" fill="#E0E0E0" style="mix-blend-mode:normal;"/>
</g>
</g>
</g>
<g id="Spezialisierung" style="mix-blend-mode:normal;" figma:type="symbol">
<g id="Rectangle 3" style="mix-blend-mode:normal;" figma:type="rounded-rectangle">
<use xlink:href="#path10_fill" transform="translate(-286 -653)" fill="#4F4F4F" style="mix-blend-mode:normal;"/>
</g>
<g id="Spezialisierung" style="mix-blend-mode:normal;" figma:type="text">
<use xlink:href="#path11_fill" transform="translate(-271 -428)" fill="#FFFFFF" style="mix-blend-mode:normal;"/>
</g>
</g>
<g id="Vertiefung" style="mix-blend-mode:normal;" figma:type="symbol">
<g id="Rectangle 3" style="mix-blend-mode:normal;" figma:type="rounded-rectangle">
<use xlink:href="#path12_fill" transform="translate(-286 -384)" fill="#4F4F4F" fill-opacity="0.8" style="mix-blend-mode:normal;"/>
</g>
<g id="Vertiefung" style="mix-blend-mode:normal;" figma:type="text">
<use xlink:href="#path13_fill" transform="translate(-271 -160)" fill="#FFFFFF" style="mix-blend-mode:normal;"/>
</g>
</g>
<g id="Grundlagen" style="mix-blend-mode:normal;" figma:type="symbol">
<g id="Rectangle 3" style="mix-blend-mode:normal;" figma:type="rounded-rectangle">
<use xlink:href="#path14_fill" transform="translate(-286 -116)" fill="#4F4F4F" fill-opacity="0.5" style="mix-blend-mode:normal;"/>
</g>
<g id="Grundlagen" style="mix-blend-mode:normal;" figma:type="text">
<use xlink:href="#path15_fill" transform="translate(-271 87)" fill="#FFFFFF" style="mix-blend-mode:normal;"/>
</g>
</g>
</g>
</g>
<defs>
<path id="path0_fill" d="M 0.756 13.37C 1.386 13.838 2.61 14.198 3.654 14.198C 6.246 14.198 7.506 12.614 7.506 10.85C 7.506 9.032 6.444 8.132 4.446 7.322C 2.7 6.638 1.926 5.954 1.926 4.604C 1.926 3.65 2.592 2.39 4.554 2.39C 5.598 2.39 6.372 2.732 6.696 2.966L 7.02 2.246C 6.606 1.976 5.742 1.67 4.608 1.67C 2.556 1.67 1.08 2.966 1.08 4.748C 1.08 6.404 2.25 7.412 4.212 8.096C 5.958 8.78 6.66 9.572 6.66 10.94C 6.66 12.434 5.544 13.46 3.744 13.46C 2.718 13.46 1.764 13.118 1.08 12.65L 0.756 13.37ZM 10.1316 3.776L 10.1316 5.36L 8.67361 5.36L 8.67361 6.044L 10.1316 6.044L 10.1316 11.516C 10.1316 12.398 10.2756 13.118 10.6716 13.568C 10.9956 13.982 11.5176 14.198 12.1476 14.198C 12.6696 14.198 13.0656 14.108 13.3536 13.982L 13.2456 13.316C 13.0296 13.388 12.7056 13.46 12.2556 13.46C 11.3376 13.46 10.9956 12.758 10.9956 11.66L 10.9956 6.044L 13.4616 6.044L 13.4616 5.36L 10.9956 5.36L 10.9956 3.452L 10.1316 3.776ZM 22.0043 5.36L 21.1583 5.36L 21.1583 10.742C 21.1583 11.084 21.0683 11.426 20.9783 11.696C 20.6183 12.56 19.7003 13.442 18.4403 13.442C 16.7303 13.442 16.1363 12.092 16.1363 10.22L 16.1363 5.36L 15.2903 5.36L 15.2903 10.382C 15.2903 13.658 17.1263 14.198 18.2243 14.198C 19.7723 14.198 20.7623 13.262 21.1943 12.47L 21.2303 12.47L 21.2843 14L 22.0763 14C 22.0403 13.334 22.0043 12.65 22.0043 11.894L 22.0043 5.36ZM 30.9548 1.22L 30.9548 6.674L 30.9188 6.674C 30.5228 5.936 29.5868 5.162 28.0928 5.162C 25.9688 5.162 24.1868 6.962 24.2048 9.842C 24.2048 12.416 25.8068 14.198 27.9308 14.198C 29.5328 14.198 30.5588 13.316 31.0088 12.362L 31.0448 12.362L 31.0988 14L 31.8728 14C 31.8368 13.388 31.8008 12.632 31.8008 11.984L 31.8008 1.22L 30.9548 1.22ZM 30.9548 10.508C 30.9548 10.778 30.9188 10.994 30.8648 11.228C 30.4868 12.668 29.3348 13.478 28.0928 13.478C 26.0408 13.478 25.0688 11.696 25.0688 9.752C 25.0688 7.502 26.2568 5.864 28.1468 5.864C 29.5508 5.864 30.5588 6.836 30.8648 7.988C 30.9188 8.222 30.9548 8.546 30.9548 8.78L 30.9548 10.508ZM 35.5618 14L 35.5618 5.36L 34.7158 5.36L 34.7158 14L 35.5618 14ZM 35.1478 2.138C 34.7518 2.138 34.4458 2.498 34.4458 2.894C 34.4458 3.29 34.7158 3.632 35.1118 3.632C 35.5618 3.632 35.8318 3.29 35.8318 2.894C 35.8318 2.48 35.5618 2.138 35.1478 2.138ZM 44.9755 9.59C 45.0115 9.446 45.0115 9.302 45.0115 9.068C 45.0115 7.826 44.4715 5.162 41.6455 5.162C 39.4135 5.162 37.7575 6.962 37.7575 9.842C 37.7575 12.38 39.3055 14.198 41.7895 14.198C 43.3015 14.198 44.1835 13.82 44.5075 13.64L 44.2915 12.956C 43.8055 13.19 43.1575 13.442 41.8975 13.442C 40.1155 13.442 38.6035 12.362 38.6035 9.59L 44.9755 9.59ZM 38.6575 8.906C 38.8015 7.574 39.6295 5.864 41.5375 5.864C 43.6255 5.864 44.1295 7.7 44.1115 8.906L 38.6575 8.906ZM 47.2139 14L 48.0599 14L 48.0599 8.654C 48.0599 8.384 48.1139 8.096 48.1859 7.88C 48.5279 6.764 49.5539 5.9 50.7779 5.9C 52.5599 5.9 53.1719 7.322 53.1719 8.888L 53.1719 14L 54.0179 14L 54.0179 8.816C 54.0179 5.576 51.8399 5.162 51.0119 5.162C 49.5899 5.162 48.5099 5.954 48.0419 6.926L 48.0059 6.926L 47.9339 5.36L 47.1419 5.36C 47.1779 6.044 47.2139 6.638 47.2139 7.43L 47.2139 14ZM 56.8642 17.564L 57.7103 17.564L 57.7103 12.596L 57.7463 12.596C 58.3403 13.64 59.4383 14.198 60.6803 14.198C 62.7683 14.198 64.6043 12.632 64.6043 9.536C 64.6043 6.998 63.1103 5.162 60.8963 5.162C 59.3843 5.162 58.3223 5.846 57.7103 6.998L 57.6743 6.998L 57.6022 5.36L 56.7923 5.36C 56.8283 6.17 56.8642 7.034 56.8642 8.114L 56.8642 17.564ZM 57.7103 8.906C 57.7103 8.672 57.7822 8.402 57.8362 8.168C 58.2142 6.746 59.4383 5.864 60.6983 5.864C 62.6603 5.864 63.7403 7.628 63.7403 9.572C 63.7403 11.876 62.6063 13.478 60.6262 13.478C 59.2942 13.478 58.1422 12.614 57.7822 11.282C 57.7462 11.066 57.7103 10.832 57.7103 10.598L 57.7103 8.906ZM 66.7959 14L 67.6419 14L 67.6419 8.708C 67.6419 8.366 67.6779 8.114 67.7679 7.862C 68.1279 6.782 69.1539 5.9 70.3779 5.9C 72.1419 5.9 72.7539 7.322 72.7539 8.888L 72.7539 14L 73.5999 14L 73.5999 8.78C 73.5999 5.576 71.4219 5.162 70.6119 5.162C 69.9459 5.162 69.3519 5.342 68.8659 5.648C 68.3439 5.954 67.9299 6.422 67.6779 6.908L 67.6419 6.908L 67.6419 1.22L 66.7959 1.22L 66.7959 14ZM 81.8103 8.582C 81.8103 7.034 81.3423 5.162 78.8403 5.162C 78.0663 5.162 77.0943 5.378 76.3203 5.9L 76.5903 6.53C 77.2023 6.08 77.9943 5.882 78.7503 5.882C 80.8023 5.864 80.9643 7.574 80.9643 8.438L 80.9643 8.654C 77.4543 8.618 75.6903 9.824 75.6903 11.822C 75.6903 12.974 76.5003 14.198 78.2283 14.198C 79.6143 14.198 80.5683 13.424 80.9823 12.758L 81.0363 12.758L 81.1623 14L 81.9363 14C 81.8463 13.334 81.8103 12.632 81.8103 11.948L 81.8103 8.582ZM 80.9643 11.228C 80.9643 11.39 80.9283 11.57 80.8743 11.75C 80.5683 12.596 79.7583 13.478 78.3183 13.478C 77.4183 13.478 76.5903 12.92 76.5903 11.678C 76.5903 9.608 79.0743 9.32 80.9643 9.374L 80.9643 11.228ZM 83.9541 13.586C 84.5301 13.946 85.3041 14.198 86.1501 14.198C 87.9141 14.198 89.0661 13.19 89.0661 11.714C 89.0661 10.4 88.2381 9.698 86.8341 9.158C 85.6641 8.672 85.0521 8.276 85.0521 7.376C 85.0521 6.584 85.6281 5.882 86.7261 5.882C 87.5901 5.882 88.1481 6.188 88.4361 6.404L 88.7781 5.702C 88.3281 5.396 87.6621 5.162 86.8701 5.162C 85.1781 5.162 84.2061 6.26 84.2061 7.502C 84.2061 8.546 84.9801 9.32 86.4021 9.86C 87.6441 10.364 88.2201 10.868 88.2201 11.822C 88.2201 12.722 87.5721 13.46 86.2041 13.46C 85.4301 13.46 84.7281 13.154 84.2601 12.866L 83.9541 13.586ZM 97.833 9.59C 97.869 9.446 97.869 9.302 97.869 9.068C 97.869 7.826 97.329 5.162 94.503 5.162C 92.271 5.162 90.615 6.962 90.615 9.842C 90.615 12.38 92.163 14.198 94.647 14.198C 96.159 14.198 97.041 13.82 97.365 13.64L 97.149 12.956C 96.663 13.19 96.015 13.442 94.755 13.442C 92.973 13.442 91.461 12.362 91.461 9.59L 97.833 9.59ZM 91.515 8.906C 91.659 7.574 92.487 5.864 94.395 5.864C 96.483 5.864 96.987 7.7 96.969 8.906L 91.515 8.906ZM 100.071 14L 100.917 14L 100.917 8.654C 100.917 8.384 100.971 8.096 101.043 7.88C 101.385 6.764 102.411 5.9 103.635 5.9C 105.417 5.9 106.029 7.322 106.029 8.888L 106.029 14L 106.875 14L 106.875 8.816C 106.875 5.576 104.697 5.162 103.869 5.162C 102.447 5.162 101.367 5.954 100.899 6.926L 100.863 6.926L 100.791 5.36L 99.9993 5.36C 100.035 6.044 100.071 6.638 100.071 7.43L 100.071 14Z"/>
<path id="path1_fill" d="M 0.912 0.912L 0.912 9L 1.956 9L 1.956 0.912L 0.912 0.912ZM 3.86428 9L 4.92028 9L 4.92028 5.508C 4.92028 5.328 4.94428 5.148 4.99228 5.016C 5.17228 4.428 5.71228 3.936 6.40828 3.936C 7.40428 3.936 7.75228 4.716 7.75228 5.652L 7.75228 9L 8.80828 9L 8.80828 5.532C 8.80828 3.54 7.56028 3.06 6.75628 3.06C 5.79628 3.06 5.12428 3.6 4.83628 4.152L 4.81228 4.152L 4.75228 3.192L 3.81628 3.192C 3.85228 3.672 3.86428 4.164 3.86428 4.764L 3.86428 9ZM 11.6725 9L 11.6725 3.996L 13.0765 3.996L 13.0765 3.192L 11.6725 3.192L 11.6725 2.88C 11.6725 1.992 11.9005 1.2 12.8005 1.2C 13.1005 1.2 13.3165 1.26 13.4725 1.332L 13.6165 0.516C 13.4125 0.432 13.0885 0.348 12.7165 0.348C 12.2245 0.348 11.6965 0.504 11.3005 0.888C 10.8085 1.356 10.6285 2.1 10.6285 2.916L 10.6285 3.192L 9.81253 3.192L 9.81253 3.996L 10.6285 3.996L 10.6285 9L 11.6725 9ZM 16.3321 3.06C 14.7241 3.06 13.4521 4.2 13.4521 6.144C 13.4521 7.98 14.6641 9.132 16.2361 9.132C 17.6401 9.132 19.1281 8.196 19.1281 6.048C 19.1281 4.272 18.0001 3.06 16.3321 3.06ZM 16.3081 3.852C 17.5561 3.852 18.0481 5.1 18.0481 6.084C 18.0481 7.392 17.2921 8.34 16.2841 8.34C 15.2521 8.34 14.5201 7.38 14.5201 6.108C 14.5201 5.004 15.0601 3.852 16.3081 3.852ZM 20.458 9L 21.502 9L 21.502 5.904C 21.502 5.724 21.526 5.556 21.55 5.412C 21.694 4.62 22.222 4.056 22.966 4.056C 23.11 4.056 23.218 4.068 23.326 4.092L 23.326 3.096C 23.23 3.072 23.146 3.06 23.026 3.06C 22.318 3.06 21.682 3.552 21.418 4.332L 21.37 4.332L 21.334 3.192L 20.41 3.192C 20.446 3.732 20.458 4.32 20.458 5.004L 20.458 9ZM 24.4307 9L 25.4627 9L 25.4627 5.496C 25.4627 5.316 25.4867 5.136 25.5467 4.98C 25.7147 4.452 26.1947 3.924 26.8547 3.924C 27.6587 3.924 28.0667 4.596 28.0667 5.52L 28.0667 9L 29.0987 9L 29.0987 5.412C 29.0987 5.22 29.1347 5.028 29.1827 4.884C 29.3627 4.368 29.8307 3.924 30.4307 3.924C 31.2827 3.924 31.6907 4.596 31.6907 5.712L 31.6907 9L 32.7227 9L 32.7227 5.58C 32.7227 3.564 31.5827 3.06 30.8147 3.06C 30.2627 3.06 29.8787 3.204 29.5307 3.468C 29.2907 3.648 29.0627 3.9 28.8827 4.224L 28.8587 4.224C 28.6067 3.54 28.0067 3.06 27.2147 3.06C 26.2547 3.06 25.7147 3.576 25.3907 4.128L 25.3547 4.128L 25.3067 3.192L 24.3827 3.192C 24.4187 3.672 24.4307 4.164 24.4307 4.764L 24.4307 9ZM 38.5185 5.436C 38.5185 4.272 38.0865 3.06 36.3105 3.06C 35.5785 3.06 34.8825 3.264 34.4025 3.576L 34.6425 4.272C 35.0505 4.008 35.6145 3.84 36.1545 3.84C 37.3425 3.84 37.4745 4.704 37.4745 5.184L 37.4745 5.304C 35.2305 5.292 33.9825 6.06 33.9825 7.464C 33.9825 8.304 34.5825 9.132 35.7585 9.132C 36.5865 9.132 37.2105 8.724 37.5345 8.268L 37.5705 8.268L 37.6545 9L 38.6145 9C 38.5425 8.604 38.5185 8.112 38.5185 7.608L 38.5185 5.436ZM 37.4985 7.044C 37.4985 7.152 37.4745 7.272 37.4385 7.38C 37.2705 7.872 36.7905 8.352 36.0345 8.352C 35.4945 8.352 35.0385 8.028 35.0385 7.344C 35.0385 6.216 36.3465 6.012 37.4985 6.036L 37.4985 7.044ZM 40.4207 2.124L 40.4207 3.192L 39.5207 3.192L 39.5207 3.996L 40.4207 3.996L 40.4207 7.164C 40.4207 7.848 40.5287 8.364 40.8287 8.676C 41.0807 8.964 41.4767 9.132 41.9687 9.132C 42.3767 9.132 42.7007 9.06 42.9047 8.976L 42.8567 8.184C 42.7007 8.232 42.5327 8.256 42.2447 8.256C 41.6567 8.256 41.4527 7.848 41.4527 7.128L 41.4527 3.996L 42.9647 3.996L 42.9647 3.192L 41.4527 3.192L 41.4527 1.8L 40.4207 2.124ZM 45.2093 9L 45.2093 3.192L 44.1533 3.192L 44.1533 9L 45.2093 9ZM 44.6813 0.9C 44.2973 0.9 44.0213 1.188 44.0213 1.56C 44.0213 1.92 44.2853 2.208 44.6573 2.208C 45.0773 2.208 45.3413 1.92 45.3293 1.56C 45.3293 1.188 45.0773 0.9 44.6813 0.9ZM 48.0098 0.48L 46.9658 0.48L 46.9658 9L 48.0098 9L 48.0098 6.816L 48.5498 6.216L 50.5538 9L 51.8378 9L 49.2818 5.58L 51.5258 3.192L 50.2538 3.192L 48.5498 5.196C 48.3818 5.4 48.1778 5.652 48.0338 5.856L 48.0098 5.856L 48.0098 0.48ZM 55.1698 9L 56.2138 9L 56.2138 5.916L 56.9818 5.028L 59.6458 9L 60.8818 9L 57.7258 4.344L 60.6538 0.912L 59.3578 0.912L 56.8858 3.948C 56.6818 4.212 56.4658 4.5 56.2498 4.812L 56.2138 4.812L 56.2138 0.912L 55.1698 0.912L 55.1698 9ZM 66.3057 6.288C 66.3177 6.18 66.3417 6.012 66.3417 5.796C 66.3417 4.728 65.8377 3.06 63.9417 3.06C 62.2497 3.06 61.2177 4.44 61.2177 6.192C 61.2177 7.944 62.2857 9.132 64.0737 9.132C 64.9977 9.132 65.6337 8.928 66.0057 8.76L 65.8257 8.004C 65.4297 8.172 64.9737 8.304 64.2177 8.304C 63.1617 8.304 62.2497 7.716 62.2257 6.288L 66.3057 6.288ZM 62.2377 5.532C 62.3217 4.8 62.7897 3.816 63.8577 3.816C 65.0457 3.816 65.3337 4.86 65.3217 5.532L 62.2377 5.532ZM 67.6494 9L 68.6934 9L 68.6934 5.904C 68.6934 5.724 68.7174 5.556 68.7414 5.412C 68.8854 4.62 69.4134 4.056 70.1574 4.056C 70.3014 4.056 70.4094 4.068 70.5174 4.092L 70.5174 3.096C 70.4214 3.072 70.3374 3.06 70.2174 3.06C 69.5094 3.06 68.8734 3.552 68.6094 4.332L 68.5614 4.332L 68.5254 3.192L 67.6014 3.192C 67.6374 3.732 67.6494 4.32 67.6494 5.004L 67.6494 9ZM 71.6221 9L 72.6781 9L 72.6781 5.508C 72.6781 5.328 72.7021 5.148 72.7501 5.016C 72.9301 4.428 73.4701 3.936 74.1661 3.936C 75.1621 3.936 75.5101 4.716 75.5101 5.652L 75.5101 9L 76.5661 9L 76.5661 5.532C 76.5661 3.54 75.3181 3.06 74.5141 3.06C 73.5541 3.06 72.8821 3.6 72.5941 4.152L 72.5701 4.152L 72.5101 3.192L 71.5741 3.192C 71.6101 3.672 71.6221 4.164 71.6221 4.764L 71.6221 9Z"/>
<path id="path2_fill" d="M 7.932 9L 8.952 9L 8.448 0.912L 7.116 0.912L 5.676 4.824C 5.316 5.844 5.028 6.732 4.824 7.548L 4.788 7.548C 4.584 6.708 4.308 5.82 3.972 4.824L 2.592 0.912L 1.26 0.912L 0.696 9L 1.692 9L 1.908 5.532C 1.98 4.32 2.04 2.964 2.064 1.956L 2.088 1.956C 2.316 2.916 2.64 3.96 3.024 5.1L 4.332 8.952L 5.124 8.952L 6.552 5.028C 6.96 3.924 7.296 2.904 7.572 1.956L 7.608 1.956C 7.596 2.964 7.668 4.32 7.728 5.448L 7.932 9ZM 15.2588 6.288C 15.2708 6.18 15.2948 6.012 15.2948 5.796C 15.2948 4.728 14.7908 3.06 12.8948 3.06C 11.2028 3.06 10.1708 4.44 10.1708 6.192C 10.1708 7.944 11.2388 9.132 13.0268 9.132C 13.9508 9.132 14.5868 8.928 14.9588 8.76L 14.7788 8.004C 14.3828 8.172 13.9268 8.304 13.1708 8.304C 12.1148 8.304 11.2028 7.716 11.1788 6.288L 15.2588 6.288ZM 11.1908 5.532C 11.2748 4.8 11.7428 3.816 12.8108 3.816C 13.9988 3.816 14.2868 4.86 14.2748 5.532L 11.1908 5.532ZM 20.5626 0.48L 20.5626 3.948L 20.5386 3.948C 20.2746 3.48 19.6746 3.06 18.7866 3.06C 17.3706 3.06 16.1706 4.248 16.1826 6.18C 16.1826 7.944 17.2626 9.132 18.6666 9.132C 19.6146 9.132 20.3226 8.64 20.6466 7.992L 20.6706 7.992L 20.7186 9L 21.6666 9C 21.6306 8.604 21.6186 8.016 21.6186 7.5L 21.6186 0.48L 20.5626 0.48ZM 20.5626 6.564C 20.5626 6.732 20.5506 6.876 20.5146 7.02C 20.3226 7.812 19.6746 8.28 18.9666 8.28C 17.8266 8.28 17.2506 7.308 17.2506 6.132C 17.2506 4.848 17.8986 3.888 18.9906 3.888C 19.7826 3.888 20.3586 4.44 20.5146 5.112C 20.5506 5.244 20.5626 5.424 20.5626 5.556L 20.5626 6.564ZM 24.432 9L 24.432 3.192L 23.376 3.192L 23.376 9L 24.432 9ZM 23.904 0.9C 23.52 0.9 23.244 1.188 23.244 1.56C 23.244 1.92 23.508 2.208 23.88 2.208C 24.3 2.208 24.564 1.92 24.552 1.56C 24.552 1.188 24.3 0.9 23.904 0.9ZM 30.8565 6.288C 30.8685 6.18 30.8925 6.012 30.8925 5.796C 30.8925 4.728 30.3885 3.06 28.4925 3.06C 26.8005 3.06 25.7685 4.44 25.7685 6.192C 25.7685 7.944 26.8365 9.132 28.6245 9.132C 29.5485 9.132 30.1845 8.928 30.5565 8.76L 30.3765 8.004C 29.9805 8.172 29.5245 8.304 28.7685 8.304C 27.7125 8.304 26.8005 7.716 26.7765 6.288L 30.8565 6.288ZM 26.7885 5.532C 26.8725 4.8 27.3405 3.816 28.4085 3.816C 29.5965 3.816 29.8845 4.86 29.8725 5.532L 26.7885 5.532ZM 32.2002 9L 33.2562 9L 33.2562 5.508C 33.2562 5.328 33.2802 5.148 33.3282 5.016C 33.5082 4.428 34.0482 3.936 34.7442 3.936C 35.7402 3.936 36.0882 4.716 36.0882 5.652L 36.0882 9L 37.1442 9L 37.1442 5.532C 37.1442 3.54 35.8962 3.06 35.0922 3.06C 34.1322 3.06 33.4602 3.6 33.1722 4.152L 33.1482 4.152L 33.0882 3.192L 32.1522 3.192C 32.1882 3.672 32.2002 4.164 32.2002 4.764L 32.2002 9ZM 39.9125 9L 39.9125 3.192L 38.8565 3.192L 38.8565 9L 39.9125 9ZM 39.3845 0.9C 39.0005 0.9 38.7245 1.188 38.7245 1.56C 38.7245 1.92 38.9885 2.208 39.3605 2.208C 39.7805 2.208 40.0445 1.92 40.0325 1.56C 40.0325 1.188 39.7805 0.9 39.3845 0.9ZM 41.669 9L 42.725 9L 42.725 5.508C 42.725 5.328 42.749 5.148 42.797 5.016C 42.977 4.428 43.517 3.936 44.213 3.936C 45.209 3.936 45.557 4.716 45.557 5.652L 45.557 9L 46.613 9L 46.613 5.532C 46.613 3.54 45.365 3.06 44.561 3.06C 43.601 3.06 42.929 3.6 42.641 4.152L 42.617 4.152L 42.557 3.192L 41.621 3.192C 41.657 3.672 41.669 4.164 41.669 4.764L 41.669 9ZM 49.4772 9L 49.4772 3.996L 50.8812 3.996L 50.8812 3.192L 49.4772 3.192L 49.4772 2.88C 49.4772 1.992 49.7052 1.2 50.6052 1.2C 50.9052 1.2 51.1212 1.26 51.2772 1.332L 51.4212 0.516C 51.2172 0.432 50.8932 0.348 50.5212 0.348C 50.0292 0.348 49.5012 0.504 49.1052 0.888C 48.6132 1.356 48.4332 2.1 48.4332 2.916L 48.4332 3.192L 47.6172 3.192L 47.6172 3.996L 48.4332 3.996L 48.4332 9L 49.4772 9ZM 54.1368 3.06C 52.5288 3.06 51.2568 4.2 51.2568 6.144C 51.2568 7.98 52.4688 9.132 54.0408 9.132C 55.4448 9.132 56.9328 8.196 56.9328 6.048C 56.9328 4.272 55.8048 3.06 54.1368 3.06ZM 54.1128 3.852C 55.3608 3.852 55.8528 5.1 55.8528 6.084C 55.8528 7.392 55.0968 8.34 54.0888 8.34C 53.0568 8.34 52.3248 7.38 52.3248 6.108C 52.3248 5.004 52.8648 3.852 54.1128 3.852ZM 58.2627 9L 59.3067 9L 59.3067 5.904C 59.3067 5.724 59.3307 5.556 59.3547 5.412C 59.4987 4.62 60.0267 4.056 60.7707 4.056C 60.9147 4.056 61.0227 4.068 61.1307 4.092L 61.1307 3.096C 61.0347 3.072 60.9507 3.06 60.8307 3.06C 60.1227 3.06 59.4867 3.552 59.2227 4.332L 59.1747 4.332L 59.1387 3.192L 58.2147 3.192C 58.2507 3.732 58.2627 4.32 58.2627 5.004L 58.2627 9ZM 62.2354 9L 63.2674 9L 63.2674 5.496C 63.2674 5.316 63.2914 5.136 63.3514 4.98C 63.5194 4.452 63.9994 3.924 64.6594 3.924C 65.4634 3.924 65.8714 4.596 65.8714 5.52L 65.8714 9L 66.9034 9L 66.9034 5.412C 66.9034 5.22 66.9394 5.028 66.9874 4.884C 67.1674 4.368 67.6354 3.924 68.2354 3.924C 69.0874 3.924 69.4954 4.596 69.4954 5.712L 69.4954 9L 70.5274 9L 70.5274 5.58C 70.5274 3.564 69.3874 3.06 68.6194 3.06C 68.0674 3.06 67.6834 3.204 67.3354 3.468C 67.0954 3.648 66.8674 3.9 66.6874 4.224L 66.6634 4.224C 66.4114 3.54 65.8114 3.06 65.0194 3.06C 64.0594 3.06 63.5194 3.576 63.1954 4.128L 63.1594 4.128L 63.1114 3.192L 62.1874 3.192C 62.2234 3.672 62.2354 4.164 62.2354 4.764L 62.2354 9ZM 76.3232 5.436C 76.3232 4.272 75.8912 3.06 74.1152 3.06C 73.3832 3.06 72.6872 3.264 72.2072 3.576L 72.4472 4.272C 72.8552 4.008 73.4192 3.84 73.9592 3.84C 75.1472 3.84 75.2792 4.704 75.2792 5.184L 75.2792 5.304C 73.0352 5.292 71.7872 6.06 71.7872 7.464C 71.7872 8.304 72.3872 9.132 73.5632 9.132C 74.3912 9.132 75.0152 8.724 75.3392 8.268L 75.3752 8.268L 75.4592 9L 76.4192 9C 76.3472 8.604 76.3232 8.112 76.3232 7.608L 76.3232 5.436ZM 75.3032 7.044C 75.3032 7.152 75.2792 7.272 75.2432 7.38C 75.0752 7.872 74.5952 8.352 73.8392 8.352C 73.2992 8.352 72.8432 8.028 72.8432 7.344C 72.8432 6.216 74.1512 6.012 75.3032 6.036L 75.3032 7.044ZM 78.2254 2.124L 78.2254 3.192L 77.3254 3.192L 77.3254 3.996L 78.2254 3.996L 78.2254 7.164C 78.2254 7.848 78.3334 8.364 78.6334 8.676C 78.8854 8.964 79.2814 9.132 79.7734 9.132C 80.1814 9.132 80.5054 9.06 80.7094 8.976L 80.6614 8.184C 80.5054 8.232 80.3374 8.256 80.0494 8.256C 79.4614 8.256 79.2574 7.848 79.2574 7.128L 79.2574 3.996L 80.7694 3.996L 80.7694 3.192L 79.2574 3.192L 79.2574 1.8L 78.2254 2.124ZM 83.014 9L 83.014 3.192L 81.958 3.192L 81.958 9L 83.014 9ZM 82.486 0.9C 82.102 0.9 81.826 1.188 81.826 1.56C 81.826 1.92 82.09 2.208 82.462 2.208C 82.882 2.208 83.146 1.92 83.134 1.56C 83.134 1.188 82.882 0.9 82.486 0.9ZM 85.8145 0.48L 84.7705 0.48L 84.7705 9L 85.8145 9L 85.8145 6.816L 86.3545 6.216L 88.3585 9L 89.6425 9L 87.0865 5.58L 89.3305 3.192L 88.0585 3.192L 86.3545 5.196C 86.1865 5.4 85.9825 5.652 85.8385 5.856L 85.8145 5.856L 85.8145 0.48ZM 92.5305 8.724C 92.9385 8.964 93.5265 9.132 94.1625 9.132C 95.5425 9.132 96.3345 8.4 96.3345 7.38C 96.3345 6.516 95.8185 6.012 94.8105 5.628C 94.0545 5.34 93.7065 5.124 93.7065 4.644C 93.7065 4.212 94.0545 3.852 94.6785 3.852C 95.2185 3.852 95.6385 4.044 95.8665 4.188L 96.1305 3.42C 95.8065 3.228 95.2905 3.06 94.7025 3.06C 93.4545 3.06 92.6985 3.828 92.6985 4.764C 92.6985 5.46 93.1905 6.036 94.2345 6.408C 95.0145 6.696 95.3145 6.972 95.3145 7.476C 95.3145 7.956 94.9545 8.34 94.1865 8.34C 93.6585 8.34 93.1065 8.124 92.7945 7.92L 92.5305 8.724ZM 97.6963 11.376L 98.7403 11.376L 98.7403 8.22L 98.7643 8.22C 99.1123 8.796 99.7843 9.132 100.552 9.132C 101.92 9.132 103.192 8.1 103.192 6.012C 103.192 4.248 102.136 3.06 100.732 3.06C 99.7843 3.06 99.1003 3.48 98.6683 4.188L 98.6443 4.188L 98.5963 3.192L 97.6483 3.192C 97.6723 3.744 97.6963 4.344 97.6963 5.088L 97.6963 11.376ZM 98.7403 5.64C 98.7403 5.496 98.7763 5.34 98.8123 5.208C 99.0163 4.416 99.6883 3.9 100.408 3.9C 101.524 3.9 102.136 4.896 102.136 6.06C 102.136 7.392 101.488 8.304 100.372 8.304C 99.6163 8.304 98.9803 7.8 98.7883 7.068C 98.7643 6.936 98.7403 6.792 98.7403 6.636L 98.7403 5.64ZM 109.196 6.288C 109.208 6.18 109.232 6.012 109.232 5.796C 109.232 4.728 108.728 3.06 106.832 3.06C 105.14 3.06 104.108 4.44 104.108 6.192C 104.108 7.944 105.176 9.132 106.964 9.132C 107.888 9.132 108.524 8.928 108.896 8.76L 108.716 8.004C 108.32 8.172 107.864 8.304 107.108 8.304C 106.052 8.304 105.14 7.716 105.116 6.288L 109.196 6.288ZM 105.128 5.532C 105.212 4.8 105.68 3.816 106.748 3.816C 107.936 3.816 108.224 4.86 108.212 5.532L 105.128 5.532ZM 109.88 9L 114.596 9L 114.596 8.16L 111.2 8.16L 111.2 8.136C 111.464 7.836 111.704 7.548 111.944 7.224L 114.536 3.852L 114.548 3.192L 110.12 3.192L 110.12 4.044L 113.264 4.044L 113.264 4.068C 113 4.38 112.76 4.656 112.508 4.968L 109.88 8.388L 109.88 9ZM 116.729 9L 116.729 3.192L 115.673 3.192L 115.673 9L 116.729 9ZM 116.201 0.9C 115.817 0.9 115.541 1.188 115.541 1.56C 115.541 1.92 115.805 2.208 116.177 2.208C 116.597 2.208 116.861 1.92 116.849 1.56C 116.849 1.188 116.597 0.9 116.201 0.9ZM 119.637 9L 119.637 3.996L 121.965 3.996L 121.965 9L 123.009 9L 123.009 3.192L 119.637 3.192L 119.637 2.904C 119.637 1.98 119.961 1.2 121.077 1.2C 121.593 1.2 122.049 1.356 122.301 1.536L 122.601 0.732C 122.301 0.516 121.665 0.348 121.125 0.348C 119.493 0.348 118.593 1.344 118.593 2.88L 118.593 3.192L 117.777 3.192L 117.777 3.996L 118.593 3.996L 118.593 9L 119.637 9ZM 124.359 8.724C 124.767 8.964 125.355 9.132 125.991 9.132C 127.371 9.132 128.163 8.4 128.163 7.38C 128.163 6.516 127.647 6.012 126.639 5.628C 125.883 5.34 125.535 5.124 125.535 4.644C 125.535 4.212 125.883 3.852 126.507 3.852C 127.047 3.852 127.467 4.044 127.695 4.188L 127.959 3.42C 127.635 3.228 127.119 3.06 126.531 3.06C 125.283 3.06 124.527 3.828 124.527 4.764C 124.527 5.46 125.019 6.036 126.063 6.408C 126.843 6.696 127.143 6.972 127.143 7.476C 127.143 7.956 126.783 8.34 126.015 8.34C 125.487 8.34 124.935 8.124 124.623 7.92L 124.359 8.724ZM 133.484 7.992C 133.184 8.124 132.788 8.28 132.188 8.28C 131.036 8.28 130.172 7.452 130.172 6.108C 130.172 4.896 130.892 3.912 132.224 3.912C 132.8 3.912 133.196 4.044 133.448 4.188L 133.688 3.372C 133.4 3.228 132.848 3.072 132.224 3.072C 130.328 3.072 129.104 4.368 129.104 6.156C 129.104 7.932 130.244 9.132 131.996 9.132C 132.776 9.132 133.388 8.928 133.664 8.784L 133.484 7.992ZM 134.903 9L 135.959 9L 135.959 5.496C 135.959 5.292 135.971 5.136 136.031 4.992C 136.223 4.416 136.763 3.936 137.447 3.936C 138.443 3.936 138.791 4.728 138.791 5.664L 138.791 9L 139.847 9L 139.847 5.544C 139.847 3.54 138.599 3.06 137.819 3.06C 137.423 3.06 137.051 3.18 136.739 3.36C 136.415 3.54 136.151 3.804 135.983 4.104L 135.959 4.104L 135.959 0.48L 134.903 0.48L 134.903 9ZM 146.228 6.288C 146.24 6.18 146.264 6.012 146.264 5.796C 146.264 4.728 145.76 3.06 143.864 3.06C 142.172 3.06 141.14 4.44 141.14 6.192C 141.14 7.944 142.208 9.132 143.996 9.132C 144.92 9.132 145.556 8.928 145.928 8.76L 145.748 8.004C 145.352 8.172 144.896 8.304 144.14 8.304C 143.084 8.304 142.172 7.716 142.148 6.288L 146.228 6.288ZM 142.16 5.532C 142.244 4.8 142.712 3.816 143.78 3.816C 144.968 3.816 145.256 4.86 145.244 5.532L 142.16 5.532ZM 157.17 9L 158.19 9L 157.686 0.912L 156.354 0.912L 154.914 4.824C 154.554 5.844 154.266 6.732 154.062 7.548L 154.026 7.548C 153.822 6.708 153.546 5.82 153.21 4.824L 151.83 0.912L 150.498 0.912L 149.934 9L 150.93 9L 151.146 5.532C 151.218 4.32 151.278 2.964 151.302 1.956L 151.326 1.956C 151.554 2.916 151.878 3.96 152.262 5.1L 153.57 8.952L 154.362 8.952L 155.79 5.028C 156.198 3.924 156.534 2.904 156.81 1.956L 156.846 1.956C 156.834 2.964 156.906 4.32 156.966 5.448L 157.17 9ZM 162.289 3.06C 160.681 3.06 159.409 4.2 159.409 6.144C 159.409 7.98 160.621 9.132 162.193 9.132C 163.597 9.132 165.085 8.196 165.085 6.048C 165.085 4.272 163.957 3.06 162.289 3.06ZM 162.265 3.852C 163.513 3.852 164.005 5.1 164.005 6.084C 164.005 7.392 163.249 8.34 162.241 8.34C 161.209 8.34 160.477 7.38 160.477 6.108C 160.477 5.004 161.017 3.852 162.265 3.852ZM 170.375 0.48L 170.375 3.948L 170.351 3.948C 170.087 3.48 169.487 3.06 168.599 3.06C 167.183 3.06 165.983 4.248 165.995 6.18C 165.995 7.944 167.075 9.132 168.479 9.132C 169.427 9.132 170.135 8.64 170.459 7.992L 170.483 7.992L 170.531 9L 171.479 9C 171.443 8.604 171.431 8.016 171.431 7.5L 171.431 0.48L 170.375 0.48ZM 170.375 6.564C 170.375 6.732 170.363 6.876 170.327 7.02C 170.135 7.812 169.487 8.28 168.779 8.28C 167.639 8.28 167.063 7.308 167.063 6.132C 167.063 4.848 167.711 3.888 168.803 3.888C 169.595 3.888 170.171 4.44 170.327 5.112C 170.363 5.244 170.375 5.424 170.375 5.556L 170.375 6.564ZM 178.048 3.192L 176.992 3.192L 176.992 6.756C 176.992 6.948 176.956 7.14 176.896 7.296C 176.704 7.764 176.212 8.256 175.505 8.256C 174.545 8.256 174.209 7.512 174.209 6.408L 174.209 3.192L 173.153 3.192L 173.153 6.588C 173.153 8.628 174.244 9.132 175.157 9.132C 176.189 9.132 176.801 8.52 177.077 8.052L 177.1 8.052L 177.161 9L 178.096 9C 178.061 8.544 178.048 8.016 178.048 7.416L 178.048 3.192ZM 179.798 9L 180.854 9L 180.854 0.48L 179.798 0.48L 179.798 9ZM 187.302 6.288C 187.314 6.18 187.338 6.012 187.338 5.796C 187.338 4.728 186.834 3.06 184.938 3.06C 183.246 3.06 182.214 4.44 182.214 6.192C 182.214 7.944 183.282 9.132 185.07 9.132C 185.994 9.132 186.63 8.928 187.002 8.76L 186.822 8.004C 186.426 8.172 185.97 8.304 185.214 8.304C 184.158 8.304 183.246 7.716 183.222 6.288L 187.302 6.288ZM 183.234 5.532C 183.318 4.8 183.786 3.816 184.854 3.816C 186.042 3.816 186.33 4.86 186.318 5.532L 183.234 5.532Z"/>
<path id="path3_fill" d="M 2.832 9L 3.852 9L 3.852 1.2L 2.952 1.2L 1.248 2.112L 1.452 2.916L 2.808 2.184L 2.832 2.184L 2.832 9ZM 7.48434 9.132C 7.92834 9.132 8.20434 8.808 8.20434 8.376C 8.20434 7.932 7.91634 7.62 7.49634 7.62C 7.07634 7.62 6.77634 7.932 6.77634 8.376C 6.77634 8.808 7.06434 9.132 7.47234 9.132L 7.48434 9.132ZM 12.0917 9L 13.1357 9L 13.1357 5.34L 16.1957 5.34L 16.1957 4.476L 13.1357 4.476L 13.1357 1.788L 16.4477 1.788L 16.4477 0.912L 12.0917 0.912L 12.0917 9ZM 21.4443 5.436C 21.4443 4.272 21.0123 3.06 19.2363 3.06C 18.5043 3.06 17.8083 3.264 17.3283 3.576L 17.5683 4.272C 17.9763 4.008 18.5403 3.84 19.0803 3.84C 20.2683 3.84 20.4003 4.704 20.4003 5.184L 20.4003 5.304C 18.1563 5.292 16.9083 6.06 16.9083 7.464C 16.9083 8.304 17.5083 9.132 18.6843 9.132C 19.5123 9.132 20.1363 8.724 20.4603 8.268L 20.4963 8.268L 20.5803 9L 21.5403 9C 21.4683 8.604 21.4443 8.112 21.4443 7.608L 21.4443 5.436ZM 20.4243 7.044C 20.4243 7.152 20.4003 7.272 20.3643 7.38C 20.1963 7.872 19.7163 8.352 18.9603 8.352C 18.4203 8.352 17.9643 8.028 17.9643 7.344C 17.9643 6.216 19.2723 6.012 20.4243 6.036L 20.4243 7.044ZM 27.1133 7.992C 26.8133 8.124 26.4173 8.28 25.8173 8.28C 24.6653 8.28 23.8013 7.452 23.8013 6.108C 23.8013 4.896 24.5213 3.912 25.8533 3.912C 26.4293 3.912 26.8253 4.044 27.0773 4.188L 27.3173 3.372C 27.0293 3.228 26.4773 3.072 25.8533 3.072C 23.9573 3.072 22.7333 4.368 22.7333 6.156C 22.7333 7.932 23.8733 9.132 25.6253 9.132C 26.4053 9.132 27.0173 8.928 27.2933 8.784L 27.1133 7.992ZM 28.5322 9L 29.5882 9L 29.5882 5.496C 29.5882 5.292 29.6003 5.136 29.6602 4.992C 29.8522 4.416 30.3923 3.936 31.0762 3.936C 32.0723 3.936 32.4203 4.728 32.4203 5.664L 32.4203 9L 33.4763 9L 33.4763 5.544C 33.4763 3.54 32.2283 3.06 31.4483 3.06C 31.0522 3.06 30.6803 3.18 30.3682 3.36C 30.0443 3.54 29.7803 3.804 29.6123 4.104L 29.5882 4.104L 29.5882 0.48L 28.5322 0.48L 28.5322 9ZM 34.7805 8.724C 35.1885 8.964 35.7765 9.132 36.4125 9.132C 37.7925 9.132 38.5845 8.4 38.5845 7.38C 38.5845 6.516 38.0685 6.012 37.0605 5.628C 36.3045 5.34 35.9565 5.124 35.9565 4.644C 35.9565 4.212 36.3045 3.852 36.9285 3.852C 37.4685 3.852 37.8885 4.044 38.1165 4.188L 38.3805 3.42C 38.0565 3.228 37.5405 3.06 36.9525 3.06C 35.7045 3.06 34.9485 3.828 34.9485 4.764C 34.9485 5.46 35.4405 6.036 36.4845 6.408C 37.2645 6.696 37.5645 6.972 37.5645 7.476C 37.5645 7.956 37.2045 8.34 36.4365 8.34C 35.9085 8.34 35.3565 8.124 35.0445 7.92L 34.7805 8.724ZM 44.6143 6.288C 44.6263 6.18 44.6503 6.012 44.6503 5.796C 44.6503 4.728 44.1463 3.06 42.2503 3.06C 40.5583 3.06 39.5263 4.44 39.5263 6.192C 39.5263 7.944 40.5943 9.132 42.3823 9.132C 43.3063 9.132 43.9423 8.928 44.3143 8.76L 44.1343 8.004C 43.7383 8.172 43.2823 8.304 42.5263 8.304C 41.4703 8.304 40.5583 7.716 40.5343 6.288L 44.6143 6.288ZM 40.5463 5.532C 40.6303 4.8 41.0983 3.816 42.1663 3.816C 43.3543 3.816 43.6423 4.86 43.6303 5.532L 40.5463 5.532ZM 45.958 9L 46.99 9L 46.99 5.496C 46.99 5.316 47.014 5.136 47.074 4.98C 47.242 4.452 47.722 3.924 48.382 3.924C 49.186 3.924 49.594 4.596 49.594 5.52L 49.594 9L 50.626 9L 50.626 5.412C 50.626 5.22 50.662 5.028 50.71 4.884C 50.89 4.368 51.358 3.924 51.958 3.924C 52.81 3.924 53.218 4.596 53.218 5.712L 53.218 9L 54.25 9L 54.25 5.58C 54.25 3.564 53.11 3.06 52.342 3.06C 51.79 3.06 51.406 3.204 51.058 3.468C 50.818 3.648 50.59 3.9 50.41 4.224L 50.386 4.224C 50.134 3.54 49.534 3.06 48.742 3.06C 47.782 3.06 47.242 3.576 46.918 4.128L 46.882 4.128L 46.834 3.192L 45.91 3.192C 45.946 3.672 45.958 4.164 45.958 4.764L 45.958 9ZM 60.6338 6.288C 60.6458 6.18 60.6698 6.012 60.6698 5.796C 60.6698 4.728 60.1658 3.06 58.2698 3.06C 56.5778 3.06 55.5458 4.44 55.5458 6.192C 55.5458 7.944 56.6138 9.132 58.4018 9.132C 59.3258 9.132 59.9618 8.928 60.3338 8.76L 60.1538 8.004C 59.7578 8.172 59.3018 8.304 58.5458 8.304C 57.4898 8.304 56.5778 7.716 56.5538 6.288L 60.6338 6.288ZM 56.5658 5.532C 56.6498 4.8 57.1178 3.816 58.1858 3.816C 59.3738 3.816 59.6618 4.86 59.6498 5.532L 56.5658 5.532ZM 61.5696 8.724C 61.9776 8.964 62.5656 9.132 63.2016 9.132C 64.5816 9.132 65.3736 8.4 65.3736 7.38C 65.3736 6.516 64.8576 6.012 63.8496 5.628C 63.0936 5.34 62.7456 5.124 62.7456 4.644C 62.7456 4.212 63.0936 3.852 63.7176 3.852C 64.2576 3.852 64.6776 4.044 64.9056 4.188L 65.1696 3.42C 64.8456 3.228 64.3296 3.06 63.7416 3.06C 62.4936 3.06 61.7376 3.828 61.7376 4.764C 61.7376 5.46 62.2296 6.036 63.2736 6.408C 64.0536 6.696 64.3536 6.972 64.3536 7.476C 64.3536 7.956 63.9936 8.34 63.2256 8.34C 62.6976 8.34 62.1456 8.124 61.8336 7.92L 61.5696 8.724ZM 66.9754 2.124L 66.9754 3.192L 66.0754 3.192L 66.0754 3.996L 66.9754 3.996L 66.9754 7.164C 66.9754 7.848 67.0834 8.364 67.3834 8.676C 67.6354 8.964 68.0314 9.132 68.5234 9.132C 68.9314 9.132 69.2554 9.06 69.4594 8.976L 69.4114 8.184C 69.2554 8.232 69.0874 8.256 68.7994 8.256C 68.2114 8.256 68.0074 7.848 68.0074 7.128L 68.0074 3.996L 69.5194 3.996L 69.5194 3.192L 68.0074 3.192L 68.0074 1.8L 66.9754 2.124ZM 75.3057 6.288C 75.3177 6.18 75.3417 6.012 75.3417 5.796C 75.3417 4.728 74.8377 3.06 72.9417 3.06C 71.2497 3.06 70.2177 4.44 70.2177 6.192C 70.2177 7.944 71.2857 9.132 73.0737 9.132C 73.9977 9.132 74.6337 8.928 75.0057 8.76L 74.8257 8.004C 74.4297 8.172 73.9737 8.304 73.2177 8.304C 72.1617 8.304 71.2497 7.716 71.2257 6.288L 75.3057 6.288ZM 71.2377 5.532C 71.3217 4.8 71.7897 3.816 72.8577 3.816C 74.0457 3.816 74.3337 4.86 74.3217 5.532L 71.2377 5.532ZM 76.6494 9L 77.6934 9L 77.6934 5.904C 77.6934 5.724 77.7174 5.556 77.7414 5.412C 77.8854 4.62 78.4134 4.056 79.1574 4.056C 79.3014 4.056 79.4094 4.068 79.5174 4.092L 79.5174 3.096C 79.4214 3.072 79.3374 3.06 79.2174 3.06C 78.5094 3.06 77.8734 3.552 77.6094 4.332L 77.5614 4.332L 77.5254 3.192L 76.6014 3.192C 76.6374 3.732 76.6494 4.32 76.6494 5.004L 76.6494 9Z"/>
<path id="path4_stroke" d="M 0 0L 1302 0L 1302 -1L 0 -1L 0 0Z"/>
<path id="path5_fill" d="M 5.52 9L 5.52 8.124L 2.016 8.124L 2.016 8.1L 2.64 7.524C 4.284 5.94 5.328 4.776 5.328 3.336C 5.328 2.22 4.62 1.068 2.94 1.068C 2.04 1.068 1.272 1.404 0.732 1.86L 1.068 2.604C 1.428 2.304 2.016 1.944 2.724 1.944C 3.888 1.944 4.272 2.676 4.272 3.468C 4.26 4.644 3.36 5.652 1.368 7.548L 0.54 8.352L 0.54 9L 5.52 9ZM 7.48434 9.132C 7.92834 9.132 8.20434 8.808 8.20434 8.376C 8.20434 7.932 7.91634 7.62 7.49634 7.62C 7.07634 7.62 6.77634 7.932 6.77634 8.376C 6.77634 8.808 7.06434 9.132 7.47234 9.132L 7.48434 9.132ZM 12.0917 9L 13.1357 9L 13.1357 5.34L 16.1957 5.34L 16.1957 4.476L 13.1357 4.476L 13.1357 1.788L 16.4477 1.788L 16.4477 0.912L 12.0917 0.912L 12.0917 9ZM 21.4443 5.436C 21.4443 4.272 21.0123 3.06 19.2363 3.06C 18.5043 3.06 17.8083 3.264 17.3283 3.576L 17.5683 4.272C 17.9763 4.008 18.5403 3.84 19.0803 3.84C 20.2683 3.84 20.4003 4.704 20.4003 5.184L 20.4003 5.304C 18.1563 5.292 16.9083 6.06 16.9083 7.464C 16.9083 8.304 17.5083 9.132 18.6843 9.132C 19.5123 9.132 20.1363 8.724 20.4603 8.268L 20.4963 8.268L 20.5803 9L 21.5403 9C 21.4683 8.604 21.4443 8.112 21.4443 7.608L 21.4443 5.436ZM 20.4243 7.044C 20.4243 7.152 20.4003 7.272 20.3643 7.38C 20.1963 7.872 19.7163 8.352 18.9603 8.352C 18.4203 8.352 17.9643 8.028 17.9643 7.344C 17.9643 6.216 19.2723 6.012 20.4243 6.036L 20.4243 7.044ZM 27.1133 7.992C 26.8133 8.124 26.4173 8.28 25.8173 8.28C 24.6653 8.28 23.8013 7.452 23.8013 6.108C 23.8013 4.896 24.5213 3.912 25.8533 3.912C 26.4293 3.912 26.8253 4.044 27.0773 4.188L 27.3173 3.372C 27.0293 3.228 26.4773 3.072 25.8533 3.072C 23.9573 3.072 22.7333 4.368 22.7333 6.156C 22.7333 7.932 23.8733 9.132 25.6253 9.132C 26.4053 9.132 27.0173 8.928 27.2933 8.784L 27.1133 7.992ZM 28.5323 9L 29.5882 9L 29.5882 5.496C 29.5882 5.292 29.6003 5.136 29.6603 4.992C 29.8523 4.416 30.3923 3.936 31.0763 3.936C 32.0723 3.936 32.4203 4.728 32.4203 5.664L 32.4203 9L 33.4763 9L 33.4763 5.544C 33.4763 3.54 32.2283 3.06 31.4483 3.06C 31.0523 3.06 30.6803 3.18 30.3682 3.36C 30.0442 3.54 29.7802 3.804 29.6122 4.104L 29.5882 4.104L 29.5882 0.48L 28.5323 0.48L 28.5323 9ZM 34.7805 8.724C 35.1885 8.964 35.7765 9.132 36.4125 9.132C 37.7925 9.132 38.5845 8.4 38.5845 7.38C 38.5845 6.516 38.0685 6.012 37.0605 5.628C 36.3045 5.34 35.9565 5.124 35.9565 4.644C 35.9565 4.212 36.3045 3.852 36.9285 3.852C 37.4685 3.852 37.8885 4.044 38.1165 4.188L 38.3805 3.42C 38.0565 3.228 37.5405 3.06 36.9525 3.06C 35.7045 3.06 34.9485 3.828 34.9485 4.764C 34.9485 5.46 35.4405 6.036 36.4845 6.408C 37.2645 6.696 37.5645 6.972 37.5645 7.476C 37.5645 7.956 37.2045 8.34 36.4365 8.34C 35.9085 8.34 35.3565 8.124 35.0445 7.92L 34.7805 8.724ZM 44.6143 6.288C 44.6263 6.18 44.6503 6.012 44.6503 5.796C 44.6503 4.728 44.1463 3.06 42.2503 3.06C 40.5583 3.06 39.5263 4.44 39.5263 6.192C 39.5263 7.944 40.5943 9.132 42.3823 9.132C 43.3063 9.132 43.9423 8.928 44.3143 8.76L 44.1343 8.004C 43.7383 8.172 43.2823 8.304 42.5263 8.304C 41.4703 8.304 40.5583 7.716 40.5343 6.288L 44.6143 6.288ZM 40.5463 5.532C 40.6303 4.8 41.0983 3.816 42.1663 3.816C 43.3543 3.816 43.6423 4.86 43.6303 5.532L 40.5463 5.532ZM 45.958 9L 46.99 9L 46.99 5.496C 46.99 5.316 47.014 5.136 47.074 4.98C 47.242 4.452 47.722 3.924 48.382 3.924C 49.186 3.924 49.594 4.596 49.594 5.52L 49.594 9L 50.626 9L 50.626 5.412C 50.626 5.22 50.662 5.028 50.71 4.884C 50.89 4.368 51.358 3.924 51.958 3.924C 52.81 3.924 53.218 4.596 53.218 5.712L 53.218 9L 54.25 9L 54.25 5.58C 54.25 3.564 53.11 3.06 52.342 3.06C 51.79 3.06 51.406 3.204 51.058 3.468C 50.818 3.648 50.59 3.9 50.41 4.224L 50.386 4.224C 50.134 3.54 49.534 3.06 48.742 3.06C 47.782 3.06 47.242 3.576 46.918 4.128L 46.882 4.128L 46.834 3.192L 45.91 3.192C 45.946 3.672 45.958 4.164 45.958 4.764L 45.958 9ZM 60.6338 6.288C 60.6458 6.18 60.6698 6.012 60.6698 5.796C 60.6698 4.728 60.1658 3.06 58.2698 3.06C 56.5778 3.06 55.5458 4.44 55.5458 6.192C 55.5458 7.944 56.6138 9.132 58.4018 9.132C 59.3258 9.132 59.9618 8.928 60.3338 8.76L 60.1538 8.004C 59.7578 8.172 59.3018 8.304 58.5458 8.304C 57.4898 8.304 56.5778 7.716 56.5538 6.288L 60.6338 6.288ZM 56.5658 5.532C 56.6498 4.8 57.1178 3.816 58.1858 3.816C 59.3738 3.816 59.6618 4.86 59.6498 5.532L 56.5658 5.532ZM 61.5696 8.724C 61.9776 8.964 62.5656 9.132 63.2016 9.132C 64.5816 9.132 65.3736 8.4 65.3736 7.38C 65.3736 6.516 64.8576 6.012 63.8496 5.628C 63.0936 5.34 62.7456 5.124 62.7456 4.644C 62.7456 4.212 63.0936 3.852 63.7176 3.852C 64.2576 3.852 64.6776 4.044 64.9056 4.188L 65.1696 3.42C 64.8456 3.228 64.3296 3.06 63.7416 3.06C 62.4936 3.06 61.7376 3.828 61.7376 4.764C 61.7376 5.46 62.2296 6.036 63.2736 6.408C 64.0536 6.696 64.3536 6.972 64.3536 7.476C 64.3536 7.956 63.9936 8.34 63.2256 8.34C 62.6976 8.34 62.1456 8.124 61.8336 7.92L 61.5696 8.724ZM 66.9754 2.124L 66.9754 3.192L 66.0754 3.192L 66.0754 3.996L 66.9754 3.996L 66.9754 7.164C 66.9754 7.848 67.0834 8.364 67.3834 8.676C 67.6354 8.964 68.0314 9.132 68.5234 9.132C 68.9314 9.132 69.2554 9.06 69.4594 8.976L 69.4114 8.184C 69.2554 8.232 69.0874 8.256 68.7994 8.256C 68.2114 8.256 68.0074 7.848 68.0074 7.128L 68.0074 3.996L 69.5194 3.996L 69.5194 3.192L 68.0074 3.192L 68.0074 1.8L 66.9754 2.124ZM 75.3057 6.288C 75.3177 6.18 75.3417 6.012 75.3417 5.796C 75.3417 4.728 74.8377 3.06 72.9417 3.06C 71.2497 3.06 70.2177 4.44 70.2177 6.192C 70.2177 7.944 71.2857 9.132 73.0737 9.132C 73.9977 9.132 74.6337 8.928 75.0057 8.76L 74.8257 8.004C 74.4297 8.172 73.9737 8.304 73.2177 8.304C 72.1617 8.304 71.2497 7.716 71.2257 6.288L 75.3057 6.288ZM 71.2377 5.532C 71.3217 4.8 71.7897 3.816 72.8577 3.816C 74.0457 3.816 74.3337 4.86 74.3217 5.532L 71.2377 5.532ZM 76.6494 9L 77.6934 9L 77.6934 5.904C 77.6934 5.724 77.7174 5.556 77.7414 5.412C 77.8854 4.62 78.4134 4.056 79.1574 4.056C 79.3014 4.056 79.4094 4.068 79.5174 4.092L 79.5174 3.096C 79.4214 3.072 79.3374 3.06 79.2174 3.06C 78.5094 3.06 77.8734 3.552 77.6094 4.332L 77.5614 4.332L 77.5254 3.192L 76.6014 3.192C 76.6374 3.732 76.6494 4.32 76.6494 5.004L 76.6494 9Z"/>
<path id="path6_fill" d="M 0.504 8.604C 0.888 8.856 1.656 9.132 2.532 9.132C 4.404 9.132 5.376 8.04 5.376 6.792C 5.376 5.7 4.596 4.98 3.636 4.788L 3.636 4.764C 4.596 4.416 5.076 3.732 5.076 2.928C 5.076 1.98 4.38 1.068 2.844 1.068C 2.004 1.068 1.212 1.368 0.804 1.668L 1.08 2.436C 1.416 2.196 2.016 1.92 2.64 1.92C 3.612 1.92 4.008 2.472 4.008 3.096C 4.008 4.02 3.036 4.416 2.268 4.416L 1.68 4.416L 1.68 5.208L 2.268 5.208C 3.288 5.208 4.272 5.676 4.284 6.768C 4.296 7.416 3.876 8.28 2.52 8.28C 1.788 8.28 1.092 7.98 0.792 7.788L 0.504 8.604ZM 7.48434 9.132C 7.92834 9.132 8.20434 8.808 8.20434 8.376C 8.20434 7.932 7.91634 7.62 7.49634 7.62C 7.07634 7.62 6.77634 7.932 6.77634 8.376C 6.77634 8.808 7.06434 9.132 7.47234 9.132L 7.48434 9.132ZM 12.0917 9L 13.1357 9L 13.1357 5.34L 16.1957 5.34L 16.1957 4.476L 13.1357 4.476L 13.1357 1.788L 16.4477 1.788L 16.4477 0.912L 12.0917 0.912L 12.0917 9ZM 21.4443 5.436C 21.4443 4.272 21.0123 3.06 19.2363 3.06C 18.5043 3.06 17.8083 3.264 17.3283 3.576L 17.5683 4.272C 17.9763 4.008 18.5403 3.84 19.0803 3.84C 20.2683 3.84 20.4003 4.704 20.4003 5.184L 20.4003 5.304C 18.1563 5.292 16.9083 6.06 16.9083 7.464C 16.9083 8.304 17.5083 9.132 18.6843 9.132C 19.5123 9.132 20.1363 8.724 20.4603 8.268L 20.4963 8.268L 20.5803 9L 21.5403 9C 21.4683 8.604 21.4443 8.112 21.4443 7.608L 21.4443 5.436ZM 20.4243 7.044C 20.4243 7.152 20.4003 7.272 20.3643 7.38C 20.1963 7.872 19.7163 8.352 18.9603 8.352C 18.4203 8.352 17.9643 8.028 17.9643 7.344C 17.9643 6.216 19.2723 6.012 20.4243 6.036L 20.4243 7.044ZM 27.1133 7.992C 26.8133 8.124 26.4173 8.28 25.8173 8.28C 24.6653 8.28 23.8013 7.452 23.8013 6.108C 23.8013 4.896 24.5213 3.912 25.8533 3.912C 26.4293 3.912 26.8253 4.044 27.0773 4.188L 27.3173 3.372C 27.0293 3.228 26.4773 3.072 25.8533 3.072C 23.9573 3.072 22.7333 4.368 22.7333 6.156C 22.7333 7.932 23.8733 9.132 25.6253 9.132C 26.4053 9.132 27.0173 8.928 27.2933 8.784L 27.1133 7.992ZM 28.5323 9L 29.5882 9L 29.5882 5.496C 29.5882 5.292 29.6003 5.136 29.6603 4.992C 29.8523 4.416 30.3923 3.936 31.0763 3.936C 32.0723 3.936 32.4203 4.728 32.4203 5.664L 32.4203 9L 33.4763 9L 33.4763 5.544C 33.4763 3.54 32.2283 3.06 31.4483 3.06C 31.0523 3.06 30.6803 3.18 30.3682 3.36C 30.0442 3.54 29.7802 3.804 29.6122 4.104L 29.5882 4.104L 29.5882 0.48L 28.5323 0.48L 28.5323 9ZM 34.7805 8.724C 35.1885 8.964 35.7765 9.132 36.4125 9.132C 37.7925 9.132 38.5845 8.4 38.5845 7.38C 38.5845 6.516 38.0685 6.012 37.0605 5.628C 36.3045 5.34 35.9565 5.124 35.9565 4.644C 35.9565 4.212 36.3045 3.852 36.9285 3.852C 37.4685 3.852 37.8885 4.044 38.1165 4.188L 38.3805 3.42C 38.0565 3.228 37.5405 3.06 36.9525 3.06C 35.7045 3.06 34.9485 3.828 34.9485 4.764C 34.9485 5.46 35.4405 6.036 36.4845 6.408C 37.2645 6.696 37.5645 6.972 37.5645 7.476C 37.5645 7.956 37.2045 8.34 36.4365 8.34C 35.9085 8.34 35.3565 8.124 35.0445 7.92L 34.7805 8.724ZM 44.6143 6.288C 44.6263 6.18 44.6503 6.012 44.6503 5.796C 44.6503 4.728 44.1463 3.06 42.2503 3.06C 40.5583 3.06 39.5263 4.44 39.5263 6.192C 39.5263 7.944 40.5943 9.132 42.3823 9.132C 43.3063 9.132 43.9423 8.928 44.3143 8.76L 44.1343 8.004C 43.7383 8.172 43.2823 8.304 42.5263 8.304C 41.4703 8.304 40.5583 7.716 40.5343 6.288L 44.6143 6.288ZM 40.5463 5.532C 40.6303 4.8 41.0983 3.816 42.1663 3.816C 43.3543 3.816 43.6423 4.86 43.6303 5.532L 40.5463 5.532ZM 45.958 9L 46.99 9L 46.99 5.496C 46.99 5.316 47.014 5.136 47.074 4.98C 47.242 4.452 47.722 3.924 48.382 3.924C 49.186 3.924 49.594 4.596 49.594 5.52L 49.594 9L 50.626 9L 50.626 5.412C 50.626 5.22 50.662 5.028 50.71 4.884C 50.89 4.368 51.358 3.924 51.958 3.924C 52.81 3.924 53.218 4.596 53.218 5.712L 53.218 9L 54.25 9L 54.25 5.58C 54.25 3.564 53.11 3.06 52.342 3.06C 51.79 3.06 51.406 3.204 51.058 3.468C 50.818 3.648 50.59 3.9 50.41 4.224L 50.386 4.224C 50.134 3.54 49.534 3.06 48.742 3.06C 47.782 3.06 47.242 3.576 46.918 4.128L 46.882 4.128L 46.834 3.192L 45.91 3.192C 45.946 3.672 45.958 4.164 45.958 4.764L 45.958 9ZM 60.6338 6.288C 60.6458 6.18 60.6698 6.012 60.6698 5.796C 60.6698 4.728 60.1658 3.06 58.2698 3.06C 56.5778 3.06 55.5458 4.44 55.5458 6.192C 55.5458 7.944 56.6138 9.132 58.4018 9.132C 59.3258 9.132 59.9618 8.928 60.3338 8.76L 60.1538 8.004C 59.7578 8.172 59.3018 8.304 58.5458 8.304C 57.4898 8.304 56.5778 7.716 56.5538 6.288L 60.6338 6.288ZM 56.5658 5.532C 56.6498 4.8 57.1178 3.816 58.1858 3.816C 59.3738 3.816 59.6618 4.86 59.6498 5.532L 56.5658 5.532ZM 61.5696 8.724C 61.9776 8.964 62.5656 9.132 63.2016 9.132C 64.5816 9.132 65.3736 8.4 65.3736 7.38C 65.3736 6.516 64.8576 6.012 63.8496 5.628C 63.0936 5.34 62.7456 5.124 62.7456 4.644C 62.7456 4.212 63.0936 3.852 63.7176 3.852C 64.2576 3.852 64.6776 4.044 64.9056 4.188L 65.1696 3.42C 64.8456 3.228 64.3296 3.06 63.7416 3.06C 62.4936 3.06 61.7376 3.828 61.7376 4.764C 61.7376 5.46 62.2296 6.036 63.2736 6.408C 64.0536 6.696 64.3536 6.972 64.3536 7.476C 64.3536 7.956 63.9936 8.34 63.2256 8.34C 62.6976 8.34 62.1456 8.124 61.8336 7.92L 61.5696 8.724ZM 66.9754 2.124L 66.9754 3.192L 66.0754 3.192L 66.0754 3.996L 66.9754 3.996L 66.9754 7.164C 66.9754 7.848 67.0834 8.364 67.3834 8.676C 67.6354 8.964 68.0314 9.132 68.5234 9.132C 68.9314 9.132 69.2554 9.06 69.4594 8.976L 69.4114 8.184C 69.2554 8.232 69.0874 8.256 68.7994 8.256C 68.2114 8.256 68.0074 7.848 68.0074 7.128L 68.0074 3.996L 69.5194 3.996L 69.5194 3.192L 68.0074 3.192L 68.0074 1.8L 66.9754 2.124ZM 75.3057 6.288C 75.3177 6.18 75.3417 6.012 75.3417 5.796C 75.3417 4.728 74.8377 3.06 72.9417 3.06C 71.2497 3.06 70.2177 4.44 70.2177 6.192C 70.2177 7.944 71.2857 9.132 73.0737 9.132C 73.9977 9.132 74.6337 8.928 75.0057 8.76L 74.8257 8.004C 74.4297 8.172 73.9737 8.304 73.2177 8.304C 72.1617 8.304 71.2497 7.716 71.2257 6.288L 75.3057 6.288ZM 71.2377 5.532C 71.3217 4.8 71.7897 3.816 72.8577 3.816C 74.0457 3.816 74.3337 4.86 74.3217 5.532L 71.2377 5.532ZM 76.6494 9L 77.6934 9L 77.6934 5.904C 77.6934 5.724 77.7174 5.556 77.7414 5.412C 77.8854 4.62 78.4134 4.056 79.1574 4.056C 79.3014 4.056 79.4094 4.068 79.5174 4.092L 79.5174 3.096C 79.4214 3.072 79.3374 3.06 79.2174 3.06C 78.5094 3.06 77.8734 3.552 77.6094 4.332L 77.5614 4.332L 77.5254 3.192L 76.6014 3.192C 76.6374 3.732 76.6494 4.32 76.6494 5.004L 76.6494 9Z"/>
<path id="path7_fill" d="M 4.8 9L 4.8 6.876L 5.892 6.876L 5.892 6.048L 4.8 6.048L 4.8 1.2L 3.66 1.2L 0.18 6.18L 0.18 6.876L 3.804 6.876L 3.804 9L 4.8 9ZM 1.248 6.048L 1.248 6.024L 3.156 3.372C 3.372 3.012 3.564 2.676 3.804 2.22L 3.84 2.22C 3.816 2.628 3.804 3.036 3.804 3.444L 3.804 6.048L 1.248 6.048ZM 7.48434 9.132C 7.92834 9.132 8.20434 8.808 8.20434 8.376C 8.20434 7.932 7.91634 7.62 7.49634 7.62C 7.07634 7.62 6.77634 7.932 6.77634 8.376C 6.77634 8.808 7.06434 9.132 7.47234 9.132L 7.48434 9.132ZM 12.0917 9L 13.1357 9L 13.1357 5.34L 16.1957 5.34L 16.1957 4.476L 13.1357 4.476L 13.1357 1.788L 16.4477 1.788L 16.4477 0.912L 12.0917 0.912L 12.0917 9ZM 21.4443 5.436C 21.4443 4.272 21.0123 3.06 19.2363 3.06C 18.5043 3.06 17.8083 3.264 17.3283 3.576L 17.5683 4.272C 17.9763 4.008 18.5403 3.84 19.0803 3.84C 20.2683 3.84 20.4003 4.704 20.4003 5.184L 20.4003 5.304C 18.1563 5.292 16.9083 6.06 16.9083 7.464C 16.9083 8.304 17.5083 9.132 18.6843 9.132C 19.5123 9.132 20.1363 8.724 20.4603 8.268L 20.4963 8.268L 20.5803 9L 21.5403 9C 21.4683 8.604 21.4443 8.112 21.4443 7.608L 21.4443 5.436ZM 20.4243 7.044C 20.4243 7.152 20.4003 7.272 20.3643 7.38C 20.1963 7.872 19.7163 8.352 18.9603 8.352C 18.4203 8.352 17.9643 8.028 17.9643 7.344C 17.9643 6.216 19.2723 6.012 20.4243 6.036L 20.4243 7.044ZM 27.1133 7.992C 26.8133 8.124 26.4173 8.28 25.8173 8.28C 24.6653 8.28 23.8013 7.452 23.8013 6.108C 23.8013 4.896 24.5213 3.912 25.8533 3.912C 26.4293 3.912 26.8253 4.044 27.0773 4.188L 27.3173 3.372C 27.0293 3.228 26.4773 3.072 25.8533 3.072C 23.9573 3.072 22.7333 4.368 22.7333 6.156C 22.7333 7.932 23.8733 9.132 25.6253 9.132C 26.4053 9.132 27.0173 8.928 27.2933 8.784L 27.1133 7.992ZM 28.5323 9L 29.5882 9L 29.5882 5.496C 29.5882 5.292 29.6003 5.136 29.6603 4.992C 29.8523 4.416 30.3923 3.936 31.0763 3.936C 32.0723 3.936 32.4203 4.728 32.4203 5.664L 32.4203 9L 33.4763 9L 33.4763 5.544C 33.4763 3.54 32.2283 3.06 31.4483 3.06C 31.0523 3.06 30.6803 3.18 30.3682 3.36C 30.0442 3.54 29.7802 3.804 29.6122 4.104L 29.5882 4.104L 29.5882 0.48L 28.5323 0.48L 28.5323 9ZM 34.7805 8.724C 35.1885 8.964 35.7765 9.132 36.4125 9.132C 37.7925 9.132 38.5845 8.4 38.5845 7.38C 38.5845 6.516 38.0685 6.012 37.0605 5.628C 36.3045 5.34 35.9565 5.124 35.9565 4.644C 35.9565 4.212 36.3045 3.852 36.9285 3.852C 37.4685 3.852 37.8885 4.044 38.1165 4.188L 38.3805 3.42C 38.0565 3.228 37.5405 3.06 36.9525 3.06C 35.7045 3.06 34.9485 3.828 34.9485 4.764C 34.9485 5.46 35.4405 6.036 36.4845 6.408C 37.2645 6.696 37.5645 6.972 37.5645 7.476C 37.5645 7.956 37.2045 8.34 36.4365 8.34C 35.9085 8.34 35.3565 8.124 35.0445 7.92L 34.7805 8.724ZM 44.6143 6.288C 44.6263 6.18 44.6503 6.012 44.6503 5.796C 44.6503 4.728 44.1463 3.06 42.2503 3.06C 40.5583 3.06 39.5263 4.44 39.5263 6.192C 39.5263 7.944 40.5943 9.132 42.3823 9.132C 43.3063 9.132 43.9423 8.928 44.3143 8.76L 44.1343 8.004C 43.7383 8.172 43.2823 8.304 42.5263 8.304C 41.4703 8.304 40.5583 7.716 40.5343 6.288L 44.6143 6.288ZM 40.5463 5.532C 40.6303 4.8 41.0983 3.816 42.1663 3.816C 43.3543 3.816 43.6423 4.86 43.6303 5.532L 40.5463 5.532ZM 45.958 9L 46.99 9L 46.99 5.496C 46.99 5.316 47.014 5.136 47.074 4.98C 47.242 4.452 47.722 3.924 48.382 3.924C 49.186 3.924 49.594 4.596 49.594 5.52L 49.594 9L 50.626 9L 50.626 5.412C 50.626 5.22 50.662 5.028 50.71 4.884C 50.89 4.368 51.358 3.924 51.958 3.924C 52.81 3.924 53.218 4.596 53.218 5.712L 53.218 9L 54.25 9L 54.25 5.58C 54.25 3.564 53.11 3.06 52.342 3.06C 51.79 3.06 51.406 3.204 51.058 3.468C 50.818 3.648 50.59 3.9 50.41 4.224L 50.386 4.224C 50.134 3.54 49.534 3.06 48.742 3.06C 47.782 3.06 47.242 3.576 46.918 4.128L 46.882 4.128L 46.834 3.192L 45.91 3.192C 45.946 3.672 45.958 4.164 45.958 4.764L 45.958 9ZM 60.6338 6.288C 60.6458 6.18 60.6698 6.012 60.6698 5.796C 60.6698 4.728 60.1658 3.06 58.2698 3.06C 56.5778 3.06 55.5458 4.44 55.5458 6.192C 55.5458 7.944 56.6138 9.132 58.4018 9.132C 59.3258 9.132 59.9618 8.928 60.3338 8.76L 60.1538 8.004C 59.7578 8.172 59.3018 8.304 58.5458 8.304C 57.4898 8.304 56.5778 7.716 56.5538 6.288L 60.6338 6.288ZM 56.5658 5.532C 56.6498 4.8 57.1178 3.816 58.1858 3.816C 59.3738 3.816 59.6618 4.86 59.6498 5.532L 56.5658 5.532ZM 61.5696 8.724C 61.9776 8.964 62.5656 9.132 63.2016 9.132C 64.5816 9.132 65.3736 8.4 65.3736 7.38C 65.3736 6.516 64.8576 6.012 63.8496 5.628C 63.0936 5.34 62.7456 5.124 62.7456 4.644C 62.7456 4.212 63.0936 3.852 63.7176 3.852C 64.2576 3.852 64.6776 4.044 64.9056 4.188L 65.1696 3.42C 64.8456 3.228 64.3296 3.06 63.7416 3.06C 62.4936 3.06 61.7376 3.828 61.7376 4.764C 61.7376 5.46 62.2296 6.036 63.2736 6.408C 64.0536 6.696 64.3536 6.972 64.3536 7.476C 64.3536 7.956 63.9936 8.34 63.2256 8.34C 62.6976 8.34 62.1456 8.124 61.8336 7.92L 61.5696 8.724ZM 66.9754 2.124L 66.9754 3.192L 66.0754 3.192L 66.0754 3.996L 66.9754 3.996L 66.9754 7.164C 66.9754 7.848 67.0834 8.364 67.3834 8.676C 67.6354 8.964 68.0314 9.132 68.5234 9.132C 68.9314 9.132 69.2554 9.06 69.4594 8.976L 69.4114 8.184C 69.2554 8.232 69.0874 8.256 68.7994 8.256C 68.2114 8.256 68.0074 7.848 68.0074 7.128L 68.0074 3.996L 69.5194 3.996L 69.5194 3.192L 68.0074 3.192L 68.0074 1.8L 66.9754 2.124ZM 75.3057 6.288C 75.3177 6.18 75.3417 6.012 75.3417 5.796C 75.3417 4.728 74.8377 3.06 72.9417 3.06C 71.2497 3.06 70.2177 4.44 70.2177 6.192C 70.2177 7.944 71.2857 9.132 73.0737 9.132C 73.9977 9.132 74.6337 8.928 75.0057 8.76L 74.8257 8.004C 74.4297 8.172 73.9737 8.304 73.2177 8.304C 72.1617 8.304 71.2497 7.716 71.2257 6.288L 75.3057 6.288ZM 71.2377 5.532C 71.3217 4.8 71.7897 3.816 72.8577 3.816C 74.0457 3.816 74.3337 4.86 74.3217 5.532L 71.2377 5.532ZM 76.6494 9L 77.6934 9L 77.6934 5.904C 77.6934 5.724 77.7174 5.556 77.7414 5.412C 77.8854 4.62 78.4134 4.056 79.1574 4.056C 79.3014 4.056 79.4094 4.068 79.5174 4.092L 79.5174 3.096C 79.4214 3.072 79.3374 3.06 79.2174 3.06C 78.5094 3.06 77.8734 3.552 77.6094 4.332L 77.5614 4.332L 77.5254 3.192L 76.6014 3.192C 76.6374 3.732 76.6494 4.32 76.6494 5.004L 76.6494 9Z"/>
<path id="path8_fill" d="M 5.196 1.2L 1.464 1.2L 0.96 4.944C 1.248 4.908 1.596 4.86 2.04 4.86C 3.6 4.86 4.272 5.58 4.284 6.588C 4.284 7.632 3.432 8.28 2.436 8.28C 1.728 8.28 1.092 8.04 0.768 7.848L 0.504 8.652C 0.876 8.892 1.596 9.132 2.448 9.132C 4.14 9.132 5.352 7.992 5.352 6.468C 5.352 5.484 4.848 4.812 4.236 4.464C 3.756 4.176 3.156 4.044 2.556 4.044C 2.268 4.044 2.1 4.068 1.92 4.092L 2.22 2.088L 5.196 2.088L 5.196 1.2ZM 7.48434 9.132C 7.92834 9.132 8.20434 8.808 8.20434 8.376C 8.20434 7.932 7.91634 7.62 7.49634 7.62C 7.07634 7.62 6.77634 7.932 6.77634 8.376C 6.77634 8.808 7.06434 9.132 7.47234 9.132L 7.48434 9.132ZM 12.0917 9L 13.1357 9L 13.1357 5.34L 16.1957 5.34L 16.1957 4.476L 13.1357 4.476L 13.1357 1.788L 16.4477 1.788L 16.4477 0.912L 12.0917 0.912L 12.0917 9ZM 21.4443 5.436C 21.4443 4.272 21.0123 3.06 19.2363 3.06C 18.5043 3.06 17.8083 3.264 17.3283 3.576L 17.5683 4.272C 17.9763 4.008 18.5403 3.84 19.0803 3.84C 20.2683 3.84 20.4003 4.704 20.4003 5.184L 20.4003 5.304C 18.1563 5.292 16.9083 6.06 16.9083 7.464C 16.9083 8.304 17.5083 9.132 18.6843 9.132C 19.5123 9.132 20.1363 8.724 20.4603 8.268L 20.4963 8.268L 20.5803 9L 21.5403 9C 21.4683 8.604 21.4443 8.112 21.4443 7.608L 21.4443 5.436ZM 20.4243 7.044C 20.4243 7.152 20.4003 7.272 20.3643 7.38C 20.1963 7.872 19.7163 8.352 18.9603 8.352C 18.4203 8.352 17.9643 8.028 17.9643 7.344C 17.9643 6.216 19.2723 6.012 20.4243 6.036L 20.4243 7.044ZM 27.1133 7.992C 26.8133 8.124 26.4173 8.28 25.8173 8.28C 24.6653 8.28 23.8013 7.452 23.8013 6.108C 23.8013 4.896 24.5213 3.912 25.8533 3.912C 26.4293 3.912 26.8253 4.044 27.0773 4.188L 27.3173 3.372C 27.0293 3.228 26.4773 3.072 25.8533 3.072C 23.9573 3.072 22.7333 4.368 22.7333 6.156C 22.7333 7.932 23.8733 9.132 25.6253 9.132C 26.4053 9.132 27.0173 8.928 27.2933 8.784L 27.1133 7.992ZM 28.5323 9L 29.5882 9L 29.5882 5.496C 29.5882 5.292 29.6003 5.136 29.6603 4.992C 29.8523 4.416 30.3923 3.936 31.0763 3.936C 32.0723 3.936 32.4203 4.728 32.4203 5.664L 32.4203 9L 33.4763 9L 33.4763 5.544C 33.4763 3.54 32.2283 3.06 31.4483 3.06C 31.0523 3.06 30.6803 3.18 30.3682 3.36C 30.0442 3.54 29.7802 3.804 29.6122 4.104L 29.5882 4.104L 29.5882 0.48L 28.5323 0.48L 28.5323 9ZM 34.7805 8.724C 35.1885 8.964 35.7765 9.132 36.4125 9.132C 37.7925 9.132 38.5845 8.4 38.5845 7.38C 38.5845 6.516 38.0685 6.012 37.0605 5.628C 36.3045 5.34 35.9565 5.124 35.9565 4.644C 35.9565 4.212 36.3045 3.852 36.9285 3.852C 37.4685 3.852 37.8885 4.044 38.1165 4.188L 38.3805 3.42C 38.0565 3.228 37.5405 3.06 36.9525 3.06C 35.7045 3.06 34.9485 3.828 34.9485 4.764C 34.9485 5.46 35.4405 6.036 36.4845 6.408C 37.2645 6.696 37.5645 6.972 37.5645 7.476C 37.5645 7.956 37.2045 8.34 36.4365 8.34C 35.9085 8.34 35.3565 8.124 35.0445 7.92L 34.7805 8.724ZM 44.6143 6.288C 44.6263 6.18 44.6503 6.012 44.6503 5.796C 44.6503 4.728 44.1463 3.06 42.2503 3.06C 40.5583 3.06 39.5263 4.44 39.5263 6.192C 39.5263 7.944 40.5943 9.132 42.3823 9.132C 43.3063 9.132 43.9423 8.928 44.3143 8.76L 44.1343 8.004C 43.7383 8.172 43.2823 8.304 42.5263 8.304C 41.4703 8.304 40.5583 7.716 40.5343 6.288L 44.6143 6.288ZM 40.5463 5.532C 40.6303 4.8 41.0983 3.816 42.1663 3.816C 43.3543 3.816 43.6423 4.86 43.6303 5.532L 40.5463 5.532ZM 45.958 9L 46.99 9L 46.99 5.496C 46.99 5.316 47.014 5.136 47.074 4.98C 47.242 4.452 47.722 3.924 48.382 3.924C 49.186 3.924 49.594 4.596 49.594 5.52L 49.594 9L 50.626 9L 50.626 5.412C 50.626 5.22 50.662 5.028 50.71 4.884C 50.89 4.368 51.358 3.924 51.958 3.924C 52.81 3.924 53.218 4.596 53.218 5.712L 53.218 9L 54.25 9L 54.25 5.58C 54.25 3.564 53.11 3.06 52.342 3.06C 51.79 3.06 51.406 3.204 51.058 3.468C 50.818 3.648 50.59 3.9 50.41 4.224L 50.386 4.224C 50.134 3.54 49.534 3.06 48.742 3.06C 47.782 3.06 47.242 3.576 46.918 4.128L 46.882 4.128L 46.834 3.192L 45.91 3.192C 45.946 3.672 45.958 4.164 45.958 4.764L 45.958 9ZM 60.6338 6.288C 60.6458 6.18 60.6698 6.012 60.6698 5.796C 60.6698 4.728 60.1658 3.06 58.2698 3.06C 56.5778 3.06 55.5458 4.44 55.5458 6.192C 55.5458 7.944 56.6138 9.132 58.4018 9.132C 59.3258 9.132 59.9618 8.928 60.3338 8.76L 60.1538 8.004C 59.7578 8.172 59.3018 8.304 58.5458 8.304C 57.4898 8.304 56.5778 7.716 56.5538 6.288L 60.6338 6.288ZM 56.5658 5.532C 56.6498 4.8 57.1178 3.816 58.1858 3.816C 59.3738 3.816 59.6618 4.86 59.6498 5.532L 56.5658 5.532ZM 61.5696 8.724C 61.9776 8.964 62.5656 9.132 63.2016 9.132C 64.5816 9.132 65.3736 8.4 65.3736 7.38C 65.3736 6.516 64.8576 6.012 63.8496 5.628C 63.0936 5.34 62.7456 5.124 62.7456 4.644C 62.7456 4.212 63.0936 3.852 63.7176 3.852C 64.2576 3.852 64.6776 4.044 64.9056 4.188L 65.1696 3.42C 64.8456 3.228 64.3296 3.06 63.7416 3.06C 62.4936 3.06 61.7376 3.828 61.7376 4.764C 61.7376 5.46 62.2296 6.036 63.2736 6.408C 64.0536 6.696 64.3536 6.972 64.3536 7.476C 64.3536 7.956 63.9936 8.34 63.2256 8.34C 62.6976 8.34 62.1456 8.124 61.8336 7.92L 61.5696 8.724ZM 66.9754 2.124L 66.9754 3.192L 66.0754 3.192L 66.0754 3.996L 66.9754 3.996L 66.9754 7.164C 66.9754 7.848 67.0834 8.364 67.3834 8.676C 67.6354 8.964 68.0314 9.132 68.5234 9.132C 68.9314 9.132 69.2554 9.06 69.4594 8.976L 69.4114 8.184C 69.2554 8.232 69.0874 8.256 68.7994 8.256C 68.2114 8.256 68.0074 7.848 68.0074 7.128L 68.0074 3.996L 69.5194 3.996L 69.5194 3.192L 68.0074 3.192L 68.0074 1.8L 66.9754 2.124ZM 75.3057 6.288C 75.3177 6.18 75.3417 6.012 75.3417 5.796C 75.3417 4.728 74.8377 3.06 72.9417 3.06C 71.2497 3.06 70.2177 4.44 70.2177 6.192C 70.2177 7.944 71.2857 9.132 73.0737 9.132C 73.9977 9.132 74.6337 8.928 75.0057 8.76L 74.8257 8.004C 74.4297 8.172 73.9737 8.304 73.2177 8.304C 72.1617 8.304 71.2497 7.716 71.2257 6.288L 75.3057 6.288ZM 71.2377 5.532C 71.3217 4.8 71.7897 3.816 72.8577 3.816C 74.0457 3.816 74.3337 4.86 74.3217 5.532L 71.2377 5.532ZM 76.6494 9L 77.6934 9L 77.6934 5.904C 77.6934 5.724 77.7174 5.556 77.7414 5.412C 77.8854 4.62 78.4134 4.056 79.1574 4.056C 79.3014 4.056 79.4094 4.068 79.5174 4.092L 79.5174 3.096C 79.4214 3.072 79.3374 3.06 79.2174 3.06C 78.5094 3.06 77.8734 3.552 77.6094 4.332L 77.5614 4.332L 77.5254 3.192L 76.6014 3.192C 76.6374 3.732 76.6494 4.32 76.6494 5.004L 76.6494 9Z"/>
<path id="path9_fill" d="M 4.992 1.08C 4.8 1.08 4.536 1.092 4.224 1.14C 3.24 1.26 2.376 1.656 1.728 2.292C 0.96 3.06 0.408 4.272 0.408 5.808C 0.408 7.836 1.5 9.132 3.168 9.132C 4.788 9.132 5.76 7.812 5.76 6.384C 5.76 4.86 4.788 3.864 3.408 3.864C 2.544 3.864 1.896 4.272 1.524 4.764L 1.488 4.764C 1.668 3.48 2.544 2.268 4.2 1.992C 4.5 1.944 4.776 1.932 4.992 1.944L 4.992 1.08ZM 3.168 8.316C 2.064 8.316 1.476 7.368 1.452 6.084C 1.452 5.892 1.5 5.736 1.572 5.616C 1.86 5.052 2.448 4.656 3.084 4.656C 4.056 4.656 4.692 5.328 4.692 6.444C 4.692 7.56 4.08 8.316 3.18 8.316L 3.168 8.316ZM 7.48434 9.132C 7.92834 9.132 8.20434 8.808 8.20434 8.376C 8.20434 7.932 7.91634 7.62 7.49634 7.62C 7.07634 7.62 6.77634 7.932 6.77634 8.376C 6.77634 8.808 7.06434 9.132 7.47234 9.132L 7.48434 9.132ZM 12.0917 9L 13.1357 9L 13.1357 5.34L 16.1957 5.34L 16.1957 4.476L 13.1357 4.476L 13.1357 1.788L 16.4477 1.788L 16.4477 0.912L 12.0917 0.912L 12.0917 9ZM 21.4443 5.436C 21.4443 4.272 21.0123 3.06 19.2363 3.06C 18.5043 3.06 17.8083 3.264 17.3283 3.576L 17.5683 4.272C 17.9763 4.008 18.5403 3.84 19.0803 3.84C 20.2683 3.84 20.4003 4.704 20.4003 5.184L 20.4003 5.304C 18.1563 5.292 16.9083 6.06 16.9083 7.464C 16.9083 8.304 17.5083 9.132 18.6843 9.132C 19.5123 9.132 20.1363 8.724 20.4603 8.268L 20.4963 8.268L 20.5803 9L 21.5403 9C 21.4683 8.604 21.4443 8.112 21.4443 7.608L 21.4443 5.436ZM 20.4243 7.044C 20.4243 7.152 20.4003 7.272 20.3643 7.38C 20.1963 7.872 19.7163 8.352 18.9603 8.352C 18.4203 8.352 17.9643 8.028 17.9643 7.344C 17.9643 6.216 19.2723 6.012 20.4243 6.036L 20.4243 7.044ZM 27.1133 7.992C 26.8133 8.124 26.4173 8.28 25.8173 8.28C 24.6653 8.28 23.8013 7.452 23.8013 6.108C 23.8013 4.896 24.5213 3.912 25.8533 3.912C 26.4293 3.912 26.8253 4.044 27.0773 4.188L 27.3173 3.372C 27.0293 3.228 26.4773 3.072 25.8533 3.072C 23.9573 3.072 22.7333 4.368 22.7333 6.156C 22.7333 7.932 23.8733 9.132 25.6253 9.132C 26.4053 9.132 27.0173 8.928 27.2933 8.784L 27.1133 7.992ZM 28.5323 9L 29.5882 9L 29.5882 5.496C 29.5882 5.292 29.6003 5.136 29.6603 4.992C 29.8523 4.416 30.3923 3.936 31.0763 3.936C 32.0723 3.936 32.4203 4.728 32.4203 5.664L 32.4203 9L 33.4763 9L 33.4763 5.544C 33.4763 3.54 32.2283 3.06 31.4483 3.06C 31.0523 3.06 30.6803 3.18 30.3682 3.36C 30.0442 3.54 29.7802 3.804 29.6122 4.104L 29.5882 4.104L 29.5882 0.48L 28.5323 0.48L 28.5323 9ZM 34.7805 8.724C 35.1885 8.964 35.7765 9.132 36.4125 9.132C 37.7925 9.132 38.5845 8.4 38.5845 7.38C 38.5845 6.516 38.0685 6.012 37.0605 5.628C 36.3045 5.34 35.9565 5.124 35.9565 4.644C 35.9565 4.212 36.3045 3.852 36.9285 3.852C 37.4685 3.852 37.8885 4.044 38.1165 4.188L 38.3805 3.42C 38.0565 3.228 37.5405 3.06 36.9525 3.06C 35.7045 3.06 34.9485 3.828 34.9485 4.764C 34.9485 5.46 35.4405 6.036 36.4845 6.408C 37.2645 6.696 37.5645 6.972 37.5645 7.476C 37.5645 7.956 37.2045 8.34 36.4365 8.34C 35.9085 8.34 35.3565 8.124 35.0445 7.92L 34.7805 8.724ZM 44.6143 6.288C 44.6263 6.18 44.6503 6.012 44.6503 5.796C 44.6503 4.728 44.1463 3.06 42.2503 3.06C 40.5583 3.06 39.5263 4.44 39.5263 6.192C 39.5263 7.944 40.5943 9.132 42.3823 9.132C 43.3063 9.132 43.9423 8.928 44.3143 8.76L 44.1343 8.004C 43.7383 8.172 43.2823 8.304 42.5263 8.304C 41.4703 8.304 40.5583 7.716 40.5343 6.288L 44.6143 6.288ZM 40.5463 5.532C 40.6303 4.8 41.0983 3.816 42.1663 3.816C 43.3543 3.816 43.6423 4.86 43.6303 5.532L 40.5463 5.532ZM 45.958 9L 46.99 9L 46.99 5.496C 46.99 5.316 47.014 5.136 47.074 4.98C 47.242 4.452 47.722 3.924 48.382 3.924C 49.186 3.924 49.594 4.596 49.594 5.52L 49.594 9L 50.626 9L 50.626 5.412C 50.626 5.22 50.662 5.028 50.71 4.884C 50.89 4.368 51.358 3.924 51.958 3.924C 52.81 3.924 53.218 4.596 53.218 5.712L 53.218 9L 54.25 9L 54.25 5.58C 54.25 3.564 53.11 3.06 52.342 3.06C 51.79 3.06 51.406 3.204 51.058 3.468C 50.818 3.648 50.59 3.9 50.41 4.224L 50.386 4.224C 50.134 3.54 49.534 3.06 48.742 3.06C 47.782 3.06 47.242 3.576 46.918 4.128L 46.882 4.128L 46.834 3.192L 45.91 3.192C 45.946 3.672 45.958 4.164 45.958 4.764L 45.958 9ZM 60.6338 6.288C 60.6458 6.18 60.6698 6.012 60.6698 5.796C 60.6698 4.728 60.1658 3.06 58.2698 3.06C 56.5778 3.06 55.5458 4.44 55.5458 6.192C 55.5458 7.944 56.6138 9.132 58.4018 9.132C 59.3258 9.132 59.9618 8.928 60.3338 8.76L 60.1538 8.004C 59.7578 8.172 59.3018 8.304 58.5458 8.304C 57.4898 8.304 56.5778 7.716 56.5538 6.288L 60.6338 6.288ZM 56.5658 5.532C 56.6498 4.8 57.1178 3.816 58.1858 3.816C 59.3738 3.816 59.6618 4.86 59.6498 5.532L 56.5658 5.532ZM 61.5696 8.724C 61.9776 8.964 62.5656 9.132 63.2016 9.132C 64.5816 9.132 65.3736 8.4 65.3736 7.38C 65.3736 6.516 64.8576 6.012 63.8496 5.628C 63.0936 5.34 62.7456 5.124 62.7456 4.644C 62.7456 4.212 63.0936 3.852 63.7176 3.852C 64.2576 3.852 64.6776 4.044 64.9056 4.188L 65.1696 3.42C 64.8456 3.228 64.3296 3.06 63.7416 3.06C 62.4936 3.06 61.7376 3.828 61.7376 4.764C 61.7376 5.46 62.2296 6.036 63.2736 6.408C 64.0536 6.696 64.3536 6.972 64.3536 7.476C 64.3536 7.956 63.9936 8.34 63.2256 8.34C 62.6976 8.34 62.1456 8.124 61.8336 7.92L 61.5696 8.724ZM 66.9754 2.124L 66.9754 3.192L 66.0754 3.192L 66.0754 3.996L 66.9754 3.996L 66.9754 7.164C 66.9754 7.848 67.0834 8.364 67.3834 8.676C 67.6354 8.964 68.0314 9.132 68.5234 9.132C 68.9314 9.132 69.2554 9.06 69.4594 8.976L 69.4114 8.184C 69.2554 8.232 69.0874 8.256 68.7994 8.256C 68.2114 8.256 68.0074 7.848 68.0074 7.128L 68.0074 3.996L 69.5194 3.996L 69.5194 3.192L 68.0074 3.192L 68.0074 1.8L 66.9754 2.124ZM 75.3057 6.288C 75.3177 6.18 75.3417 6.012 75.3417 5.796C 75.3417 4.728 74.8377 3.06 72.9417 3.06C 71.2497 3.06 70.2177 4.44 70.2177 6.192C 70.2177 7.944 71.2857 9.132 73.0737 9.132C 73.9977 9.132 74.6337 8.928 75.0057 8.76L 74.8257 8.004C 74.4297 8.172 73.9737 8.304 73.2177 8.304C 72.1617 8.304 71.2497 7.716 71.2257 6.288L 75.3057 6.288ZM 71.2377 5.532C 71.3217 4.8 71.7897 3.816 72.8577 3.816C 74.0457 3.816 74.3337 4.86 74.3217 5.532L 71.2377 5.532ZM 76.6494 9L 77.6934 9L 77.6934 5.904C 77.6934 5.724 77.7174 5.556 77.7414 5.412C 77.8854 4.62 78.4134 4.056 79.1574 4.056C 79.3014 4.056 79.4094 4.068 79.5174 4.092L 79.5174 3.096C 79.4214 3.072 79.3374 3.06 79.2174 3.06C 78.5094 3.06 77.8734 3.552 77.6094 4.332L 77.5614 4.332L 77.5254 3.192L 76.6014 3.192C 76.6374 3.732 76.6494 4.32 76.6494 5.004L 76.6494 9Z"/>
<path id="path10_fill" d="M 0 0L 508 0L 508 258L 0 258L 0 0Z"/>
<path id="path11_fill" d="M 1.008 17.208C 1.872 17.784 3.576 18.264 5.136 18.264C 8.952 18.264 10.8 16.08 10.8 13.584C 10.8 11.208 9.408 9.888 6.672 8.832C 4.44 7.968 3.456 7.224 3.456 5.712C 3.456 4.608 4.296 3.288 6.504 3.288C 7.968 3.288 9.048 3.768 9.576 4.056L 10.152 2.352C 9.432 1.944 8.232 1.56 6.576 1.56C 3.432 1.56 1.344 3.432 1.344 5.952C 1.344 8.232 2.976 9.6 5.616 10.536C 7.8 11.376 8.664 12.24 8.664 13.752C 8.664 15.384 7.416 16.512 5.28 16.512C 3.84 16.512 2.472 16.032 1.536 15.456L 1.008 17.208ZM 13.5879 22.752L 15.6759 22.752L 15.6759 16.44L 15.7239 16.44C 16.4199 17.592 17.7639 18.264 19.2999 18.264C 22.0359 18.264 24.5799 16.2 24.5799 12.024C 24.5799 8.496 22.4679 6.12 19.6599 6.12C 17.7639 6.12 16.3959 6.96 15.5319 8.376L 15.4839 8.376L 15.3879 6.384L 13.4919 6.384C 13.5399 7.488 13.5879 8.688 13.5879 10.176L 13.5879 22.752ZM 15.6759 11.28C 15.6759 10.992 15.7479 10.68 15.8199 10.416C 16.2279 8.832 17.5719 7.8 19.0119 7.8C 21.2439 7.8 22.4679 9.792 22.4679 12.12C 22.4679 14.784 21.1719 16.608 18.9399 16.608C 17.4279 16.608 16.1559 15.6 15.7719 14.136C 15.7239 13.872 15.6759 13.584 15.6759 13.272L 15.6759 11.28ZM 36.588 12.576C 36.612 12.36 36.66 12.024 36.66 11.592C 36.66 9.456 35.652 6.12 31.86 6.12C 28.476 6.12 26.412 8.88 26.412 12.384C 26.412 15.888 28.548 18.264 32.124 18.264C 33.972 18.264 35.244 17.856 35.988 17.52L 35.628 16.008C 34.836 16.344 33.924 16.608 32.412 16.608C 30.3 16.608 28.476 15.432 28.428 12.576L 36.588 12.576ZM 28.452 11.064C 28.62 9.6 29.556 7.632 31.692 7.632C 34.068 7.632 34.644 9.72 34.62 11.064L 28.452 11.064ZM 37.9554 18L 47.3874 18L 47.3874 16.32L 40.5954 16.32L 40.5954 16.272C 41.1234 15.672 41.6034 15.096 42.0834 14.448L 47.2674 7.704L 47.2914 6.384L 38.4354 6.384L 38.4354 8.088L 44.7234 8.088L 44.7234 8.136C 44.1954 8.76 43.7154 9.312 43.2114 9.936L 37.9554 16.776L 37.9554 18ZM 51.6531 18L 51.6531 6.384L 49.5411 6.384L 49.5411 18L 51.6531 18ZM 50.5971 1.8C 49.8291 1.8 49.2771 2.376 49.2771 3.12C 49.2771 3.84 49.8051 4.416 50.5491 4.416C 51.3891 4.416 51.9171 3.84 51.8931 3.12C 51.8931 2.376 51.3891 1.8 50.5971 1.8ZM 63.3261 10.872C 63.3261 8.544 62.4621 6.12 58.9101 6.12C 57.4461 6.12 56.0541 6.528 55.0941 7.152L 55.5741 8.544C 56.3901 8.016 57.5181 7.68 58.5981 7.68C 60.9741 7.68 61.2381 9.408 61.2381 10.368L 61.2381 10.608C 56.7501 10.584 54.2541 12.12 54.2541 14.928C 54.2541 16.608 55.4541 18.264 57.8061 18.264C 59.4621 18.264 60.7101 17.448 61.3581 16.536L 61.4301 16.536L 61.5981 18L 63.5181 18C 63.3741 17.208 63.3261 16.224 63.3261 15.216L 63.3261 10.872ZM 61.2861 14.088C 61.2861 14.304 61.2381 14.544 61.1661 14.76C 60.8301 15.744 59.8701 16.704 58.3581 16.704C 57.2781 16.704 56.3661 16.056 56.3661 14.688C 56.3661 12.432 58.9821 12.024 61.2861 12.072L 61.2861 14.088ZM 66.7442 18L 68.8562 18L 68.8562 0.96L 66.7442 0.96L 66.7442 18ZM 74.5281 18L 74.5281 6.384L 72.4161 6.384L 72.4161 18L 74.5281 18ZM 73.4721 1.8C 72.7041 1.8 72.1521 2.376 72.1521 3.12C 72.1521 3.84 72.6801 4.416 73.4241 4.416C 74.2641 4.416 74.7921 3.84 74.7681 3.12C 74.7681 2.376 74.2641 1.8 73.4721 1.8ZM 77.2251 17.448C 78.0411 17.928 79.2171 18.264 80.4891 18.264C 83.2491 18.264 84.8331 16.8 84.8331 14.76C 84.8331 13.032 83.8011 12.024 81.7851 11.256C 80.2731 10.68 79.5771 10.248 79.5771 9.288C 79.5771 8.424 80.2731 7.704 81.5211 7.704C 82.6011 7.704 83.4411 8.088 83.8971 8.376L 84.4251 6.84C 83.7771 6.456 82.7451 6.12 81.5691 6.12C 79.0731 6.12 77.5611 7.656 77.5611 9.528C 77.5611 10.92 78.5451 12.072 80.6331 12.816C 82.1931 13.392 82.7931 13.944 82.7931 14.952C 82.7931 15.912 82.0731 16.68 80.5371 16.68C 79.4811 16.68 78.3771 16.248 77.7531 15.84L 77.2251 17.448ZM 89.6687 18L 89.6687 6.384L 87.5567 6.384L 87.5567 18L 89.6687 18ZM 88.6127 1.8C 87.8447 1.8 87.2927 2.376 87.2927 3.12C 87.2927 3.84 87.8207 4.416 88.5647 4.416C 89.4047 4.416 89.9327 3.84 89.9087 3.12C 89.9087 2.376 89.4047 1.8 88.6127 1.8ZM 102.518 12.576C 102.542 12.36 102.59 12.024 102.59 11.592C 102.59 9.456 101.582 6.12 97.7897 6.12C 94.4057 6.12 92.3417 8.88 92.3417 12.384C 92.3417 15.888 94.4777 18.264 98.0537 18.264C 99.9017 18.264 101.174 17.856 101.918 17.52L 101.558 16.008C 100.766 16.344 99.8537 16.608 98.3417 16.608C 96.2297 16.608 94.4057 15.432 94.3577 12.576L 102.518 12.576ZM 94.3817 11.064C 94.5497 9.6 95.4857 7.632 97.6217 7.632C 99.9977 7.632 100.574 9.72 100.55 11.064L 94.3817 11.064ZM 105.205 18L 107.293 18L 107.293 11.808C 107.293 11.448 107.341 11.112 107.389 10.824C 107.677 9.24 108.733 8.112 110.221 8.112C 110.509 8.112 110.725 8.136 110.941 8.184L 110.941 6.192C 110.749 6.144 110.581 6.12 110.341 6.12C 108.925 6.12 107.653 7.104 107.125 8.664L 107.029 8.664L 106.957 6.384L 105.109 6.384C 105.181 7.464 105.205 8.64 105.205 10.008L 105.205 18ZM 122.777 6.384L 120.665 6.384L 120.665 13.512C 120.665 13.896 120.593 14.28 120.473 14.592C 120.089 15.528 119.105 16.512 117.689 16.512C 115.769 16.512 115.097 15.024 115.097 12.816L 115.097 6.384L 112.985 6.384L 112.985 13.176C 112.985 17.256 115.169 18.264 116.993 18.264C 119.057 18.264 120.281 17.04 120.833 16.104L 120.881 16.104L 121.001 18L 122.873 18C 122.801 17.088 122.777 16.032 122.777 14.832L 122.777 6.384ZM 126.275 18L 128.387 18L 128.387 11.016C 128.387 10.656 128.435 10.296 128.531 10.032C 128.891 8.856 129.971 7.872 131.363 7.872C 133.355 7.872 134.051 9.432 134.051 11.304L 134.051 18L 136.163 18L 136.163 11.064C 136.163 7.08 133.667 6.12 132.059 6.12C 130.139 6.12 128.795 7.2 128.219 8.304L 128.171 8.304L 128.051 6.384L 126.179 6.384C 126.251 7.344 126.275 8.328 126.275 9.528L 126.275 18ZM 149.5 9.576C 149.5 8.16 149.548 7.224 149.596 6.384L 147.748 6.384L 147.652 8.136L 147.604 8.136C 147.1 7.176 145.996 6.12 143.98 6.12C 141.316 6.12 138.748 8.352 138.748 12.288C 138.748 15.504 140.812 17.952 143.692 17.952C 145.492 17.952 146.74 17.088 147.388 16.008L 147.436 16.008L 147.436 17.304C 147.436 20.232 145.852 21.36 143.692 21.36C 142.252 21.36 141.052 20.928 140.284 20.448L 139.756 22.056C 140.692 22.68 142.228 23.016 143.62 23.016C 145.084 23.016 146.716 22.68 147.844 21.624C 148.972 20.616 149.5 18.984 149.5 16.32L 149.5 9.576ZM 147.412 13.056C 147.412 13.416 147.364 13.824 147.244 14.184C 146.788 15.528 145.612 16.344 144.316 16.344C 142.036 16.344 140.884 14.448 140.884 12.168C 140.884 9.48 142.324 7.776 144.34 7.776C 145.876 7.776 146.908 8.784 147.292 10.008C 147.388 10.296 147.412 10.608 147.412 10.968L 147.412 13.056Z"/>
<path id="path12_fill" d="M 0 0L 508 0L 508 256L 0 256L 0 0Z"/>
<path id="path13_fill" d="M 7.68 18L 13.464 1.824L 11.232 1.824L 8.496 9.816C 7.776 11.928 7.104 13.968 6.648 15.84L 6.6 15.84C 6.168 13.944 5.568 11.976 4.872 9.792L 2.352 1.824L 0.096 1.824L 5.376 18L 7.68 18ZM 23.6974 12.576C 23.7214 12.36 23.7694 12.024 23.7694 11.592C 23.7694 9.456 22.7614 6.12 18.9694 6.12C 15.5854 6.12 13.5214 8.88 13.5214 12.384C 13.5214 15.888 15.6574 18.264 19.2334 18.264C 21.0814 18.264 22.3534 17.856 23.0974 17.52L 22.7374 16.008C 21.9454 16.344 21.0334 16.608 19.5214 16.608C 17.4094 16.608 15.5854 15.432 15.5374 12.576L 23.6974 12.576ZM 15.5614 11.064C 15.7294 9.6 16.6654 7.632 18.8014 7.632C 21.1774 7.632 21.7534 9.72 21.7294 11.064L 15.5614 11.064ZM 26.3848 18L 28.4728 18L 28.4728 11.808C 28.4728 11.448 28.5208 11.112 28.5688 10.824C 28.8568 9.24 29.9128 8.112 31.4008 8.112C 31.6888 8.112 31.9048 8.136 32.1208 8.184L 32.1208 6.192C 31.9288 6.144 31.7608 6.12 31.5208 6.12C 30.1048 6.12 28.8328 7.104 28.3048 8.664L 28.2088 8.664L 28.1368 6.384L 26.2888 6.384C 26.3608 7.464 26.3848 8.64 26.3848 10.008L 26.3848 18ZM 35.2789 4.248L 35.2789 6.384L 33.4789 6.384L 33.4789 7.992L 35.2789 7.992L 35.2789 14.328C 35.2789 15.696 35.4949 16.728 36.0949 17.352C 36.5989 17.928 37.3909 18.264 38.3749 18.264C 39.1909 18.264 39.8389 18.12 40.2469 17.952L 40.1509 16.368C 39.8389 16.464 39.5029 16.512 38.9269 16.512C 37.7509 16.512 37.3429 15.696 37.3429 14.256L 37.3429 7.992L 40.3669 7.992L 40.3669 6.384L 37.3429 6.384L 37.3429 3.6L 35.2789 4.248ZM 44.8562 18L 44.8562 6.384L 42.7442 6.384L 42.7442 18L 44.8562 18ZM 43.8002 1.8C 43.0322 1.8 42.4802 2.376 42.4802 3.12C 42.4802 3.84 43.0082 4.416 43.7522 4.416C 44.5922 4.416 45.1202 3.84 45.0962 3.12C 45.0962 2.376 44.5922 1.8 43.8002 1.8ZM 57.7052 12.576C 57.7292 12.36 57.7772 12.024 57.7772 11.592C 57.7772 9.456 56.7692 6.12 52.9772 6.12C 49.5932 6.12 47.5292 8.88 47.5292 12.384C 47.5292 15.888 49.6652 18.264 53.2412 18.264C 55.0892 18.264 56.3612 17.856 57.1052 17.52L 56.7452 16.008C 55.9532 16.344 55.0412 16.608 53.5292 16.608C 51.4172 16.608 49.5932 15.432 49.5452 12.576L 57.7052 12.576ZM 49.5692 11.064C 49.7372 9.6 50.6732 7.632 52.8092 7.632C 55.1852 7.632 55.7612 9.72 55.7372 11.064L 49.5692 11.064ZM 62.6966 18L 62.6966 7.992L 65.5046 7.992L 65.5046 6.384L 62.6966 6.384L 62.6966 5.76C 62.6966 3.984 63.1526 2.4 64.9526 2.4C 65.5526 2.4 65.9846 2.52 66.2966 2.664L 66.5846 1.032C 66.1766 0.864 65.5286 0.696 64.7846 0.696C 63.8006 0.696 62.7446 1.008 61.9526 1.776C 60.9686 2.712 60.6086 4.2 60.6086 5.832L 60.6086 6.384L 58.9766 6.384L 58.9766 7.992L 60.6086 7.992L 60.6086 18L 62.6966 18ZM 77.1204 6.384L 75.0084 6.384L 75.0084 13.512C 75.0084 13.896 74.9364 14.28 74.8164 14.592C 74.4324 15.528 73.4484 16.512 72.0324 16.512C 70.1124 16.512 69.4404 15.024 69.4404 12.816L 69.4404 6.384L 67.3284 6.384L 67.3284 13.176C 67.3284 17.256 69.5124 18.264 71.3364 18.264C 73.4004 18.264 74.6244 17.04 75.1764 16.104L 75.2244 16.104L 75.3444 18L 77.2164 18C 77.1444 17.088 77.1204 16.032 77.1204 14.832L 77.1204 6.384ZM 80.6192 18L 82.7312 18L 82.7312 11.016C 82.7312 10.656 82.7792 10.296 82.8752 10.032C 83.2352 8.856 84.3152 7.872 85.7072 7.872C 87.6992 7.872 88.3952 9.432 88.3952 11.304L 88.3952 18L 90.5072 18L 90.5072 11.064C 90.5072 7.08 88.0112 6.12 86.4032 6.12C 84.4832 6.12 83.1392 7.2 82.5632 8.304L 82.5152 8.304L 82.3952 6.384L 80.5232 6.384C 80.5952 7.344 80.6192 8.328 80.6192 9.528L 80.6192 18ZM 103.844 9.576C 103.844 8.16 103.892 7.224 103.94 6.384L 102.092 6.384L 101.996 8.136L 101.948 8.136C 101.444 7.176 100.34 6.12 98.3237 6.12C 95.6597 6.12 93.0917 8.352 93.0917 12.288C 93.0917 15.504 95.1557 17.952 98.0357 17.952C 99.8357 17.952 101.084 17.088 101.732 16.008L 101.78 16.008L 101.78 17.304C 101.78 20.232 100.196 21.36 98.0357 21.36C 96.5957 21.36 95.3957 20.928 94.6277 20.448L 94.0997 22.056C 95.0357 22.68 96.5717 23.016 97.9637 23.016C 99.4277 23.016 101.06 22.68 102.188 21.624C 103.316 20.616 103.844 18.984 103.844 16.32L 103.844 9.576ZM 101.756 13.056C 101.756 13.416 101.708 13.824 101.588 14.184C 101.132 15.528 99.9557 16.344 98.6597 16.344C 96.3797 16.344 95.2277 14.448 95.2277 12.168C 95.2277 9.48 96.6677 7.776 98.6837 7.776C 100.22 7.776 101.252 8.784 101.636 10.008C 101.732 10.296 101.756 10.608 101.756 10.968L 101.756 13.056Z"/>
<path id="path14_fill" d="M 0 0L 508 0L 508 235L 0 235L 0 0Z"/>
<path id="path15_fill" d="M 14.136 9.504L 8.808 9.504L 8.808 11.184L 12.096 11.184L 12.096 16.008C 11.616 16.248 10.68 16.44 9.312 16.44C 5.544 16.44 3.072 14.016 3.072 9.912C 3.072 5.856 5.64 3.408 9.576 3.408C 11.208 3.408 12.288 3.72 13.152 4.104L 13.656 2.4C 12.96 2.064 11.496 1.656 9.624 1.656C 4.2 1.656 0.888 5.184 0.864 10.008C 0.864 12.528 1.728 14.688 3.12 16.032C 4.704 17.544 6.72 18.168 9.168 18.168C 11.352 18.168 13.2 17.616 14.136 17.28L 14.136 9.504ZM 17.2676 18L 19.3556 18L 19.3556 11.808C 19.3556 11.448 19.4036 11.112 19.4516 10.824C 19.7396 9.24 20.7956 8.112 22.2836 8.112C 22.5716 8.112 22.7876 8.136 23.0036 8.184L 23.0036 6.192C 22.8116 6.144 22.6436 6.12 22.4036 6.12C 20.9876 6.12 19.7156 7.104 19.1876 8.664L 19.0916 8.664L 19.0196 6.384L 17.1716 6.384C 17.2436 7.464 17.2676 8.64 17.2676 10.008L 17.2676 18ZM 34.8392 6.384L 32.7272 6.384L 32.7272 13.512C 32.7272 13.896 32.6552 14.28 32.5352 14.592C 32.1512 15.528 31.1672 16.512 29.7512 16.512C 27.8312 16.512 27.1592 15.024 27.1592 12.816L 27.1592 6.384L 25.0472 6.384L 25.0472 13.176C 25.0472 17.256 27.2312 18.264 29.0552 18.264C 31.1192 18.264 32.3432 17.04 32.8952 16.104L 32.9432 16.104L 33.0632 18L 34.9352 18C 34.8632 17.088 34.8392 16.032 34.8392 14.832L 34.8392 6.384ZM 38.3379 18L 40.4499 18L 40.4499 11.016C 40.4499 10.656 40.4979 10.296 40.5939 10.032C 40.9539 8.856 42.0339 7.872 43.4259 7.872C 45.4179 7.872 46.1139 9.432 46.1139 11.304L 46.1139 18L 48.2259 18L 48.2259 11.064C 48.2259 7.08 45.7299 6.12 44.1219 6.12C 42.2019 6.12 40.8579 7.2 40.2819 8.304L 40.2339 8.304L 40.1139 6.384L 38.2419 6.384C 38.3139 7.344 38.3379 8.328 38.3379 9.528L 38.3379 18ZM 59.5704 0.96L 59.5704 7.896L 59.5224 7.896C 58.9944 6.96 57.7944 6.12 56.0184 6.12C 53.1864 6.12 50.7864 8.496 50.8104 12.36C 50.8104 15.888 52.9704 18.264 55.7784 18.264C 57.6744 18.264 59.0904 17.28 59.7384 15.984L 59.7864 15.984L 59.8824 18L 61.7784 18C 61.7064 17.208 61.6824 16.032 61.6824 15L 61.6824 0.96L 59.5704 0.96ZM 59.5704 13.128C 59.5704 13.464 59.5464 13.752 59.4744 14.04C 59.0904 15.624 57.7944 16.56 56.3784 16.56C 54.0984 16.56 52.9464 14.616 52.9464 12.264C 52.9464 9.696 54.2424 7.776 56.4264 7.776C 58.0104 7.776 59.1624 8.88 59.4744 10.224C 59.5464 10.488 59.5704 10.848 59.5704 11.112L 59.5704 13.128ZM 65.1973 18L 67.3093 18L 67.3093 0.96L 65.1973 0.96L 65.1973 18ZM 79.0292 10.872C 79.0292 8.544 78.1652 6.12 74.6132 6.12C 73.1492 6.12 71.7572 6.528 70.7972 7.152L 71.2772 8.544C 72.0932 8.016 73.2212 7.68 74.3012 7.68C 76.6772 7.68 76.9412 9.408 76.9412 10.368L 76.9412 10.608C 72.4532 10.584 69.9572 12.12 69.9572 14.928C 69.9572 16.608 71.1572 18.264 73.5092 18.264C 75.1652 18.264 76.4132 17.448 77.0612 16.536L 77.1332 16.536L 77.3012 18L 79.2212 18C 79.0772 17.208 79.0292 16.224 79.0292 15.216L 79.0292 10.872ZM 76.9892 14.088C 76.9892 14.304 76.9412 14.544 76.8692 14.76C 76.5332 15.744 75.5732 16.704 74.0612 16.704C 72.9812 16.704 72.0692 16.056 72.0692 14.688C 72.0692 12.432 74.6852 12.024 76.9892 12.072L 76.9892 14.088ZM 92.3593 9.576C 92.3593 8.16 92.4073 7.224 92.4553 6.384L 90.6073 6.384L 90.5113 8.136L 90.4633 8.136C 89.9593 7.176 88.8553 6.12 86.8393 6.12C 84.1753 6.12 81.6073 8.352 81.6073 12.288C 81.6073 15.504 83.6713 17.952 86.5513 17.952C 88.3513 17.952 89.5993 17.088 90.2473 16.008L 90.2953 16.008L 90.2953 17.304C 90.2953 20.232 88.7113 21.36 86.5513 21.36C 85.1113 21.36 83.9113 20.928 83.1433 20.448L 82.6153 22.056C 83.5513 22.68 85.0873 23.016 86.4793 23.016C 87.9433 23.016 89.5753 22.68 90.7033 21.624C 91.8313 20.616 92.3593 18.984 92.3593 16.32L 92.3593 9.576ZM 90.2713 13.056C 90.2713 13.416 90.2233 13.824 90.1033 14.184C 89.6473 15.528 88.4713 16.344 87.1753 16.344C 84.8953 16.344 83.7433 14.448 83.7433 12.168C 83.7433 9.48 85.1833 7.776 87.1993 7.776C 88.7353 7.776 89.7673 8.784 90.1513 10.008C 90.2473 10.296 90.2713 10.608 90.2713 10.968L 90.2713 13.056ZM 105.19 12.576C 105.214 12.36 105.262 12.024 105.262 11.592C 105.262 9.456 104.254 6.12 100.462 6.12C 97.0776 6.12 95.0136 8.88 95.0136 12.384C 95.0136 15.888 97.1496 18.264 100.726 18.264C 102.574 18.264 103.846 17.856 104.59 17.52L 104.23 16.008C 103.438 16.344 102.526 16.608 101.014 16.608C 98.9016 16.608 97.0776 15.432 97.0296 12.576L 105.19 12.576ZM 97.0536 11.064C 97.2216 9.6 98.1576 7.632 100.294 7.632C 102.67 7.632 103.246 9.72 103.222 11.064L 97.0536 11.064ZM 107.877 18L 109.989 18L 109.989 11.016C 109.989 10.656 110.037 10.296 110.133 10.032C 110.493 8.856 111.573 7.872 112.965 7.872C 114.957 7.872 115.653 9.432 115.653 11.304L 115.653 18L 117.765 18L 117.765 11.064C 117.765 7.08 115.269 6.12 113.661 6.12C 111.741 6.12 110.397 7.2 109.821 8.304L 109.773 8.304L 109.653 6.384L 107.781 6.384C 107.853 7.344 107.877 8.328 107.877 9.528L 107.877 18Z"/>
</defs>
</svg>
