<svg width="758" height="462" viewBox="0 0 758 462" version="1.1" xmlns="http://www.w3.org/2000/svg" xmlns:xlink="http://www.w3.org/1999/xlink" xmlns:figma="http://www.figma.com/figma/ns">
<title>ba-studienphasen</title>
<desc>Created using Figma</desc>
<g id="Canvas" transform="translate(444 735)" figma:type="canvas">
<mask id="mask0_alpha" mask-type="alpha">
<path d="M -444 -735L 314 -735L 314 -273L -444 -273L -444 -735Z" fill="#FFFFFF"/>
</mask>
<g id="ba-studienphasen" style="mix-blend-mode:normal;" mask="url(#mask0_alpha)" figma:type="frame">
<path d="M -444 -735L 314 -735L 314 -273L -444 -273L -444 -735Z" fill="#FFFFFF"/>
<g id="Semester" style="mix-blend-mode:normal;" figma:type="frame">
<g id="Semester" style="mix-blend-mode:normal;" figma:type="symbol">
<g id="1. Fachsemester" style="mix-blend-mode:normal;" figma:type="text">
<use xlink:href="#path0_fill" transform="translate(-443.5 -338)" style="mix-blend-mode:normal;"/>
</g>
<g id="Line" style="mix-blend-mode:normal;" figma:type="line">
<use xlink:href="#path1_stroke" transform="translate(-444 -342)" fill="#E0E0E0" style="mix-blend-mode:normal;"/>
</g>
</g>
<g id="Semester" style="mix-blend-mode:normal;" figma:type="instance">
<g id="2. Fachsemester" style="mix-blend-mode:normal;" figma:type="text">
<use xlink:href="#path2_fill" transform="translate(-443.5 -408)" style="mix-blend-mode:normal;"/>
</g>
<g id="Line" style="mix-blend-mode:normal;" figma:type="line">
<use xlink:href="#path1_stroke" transform="translate(-444 -412)" fill="#E0E0E0" style="mix-blend-mode:normal;"/>
</g>
</g>
<g id="Semester" style="mix-blend-mode:normal;" figma:type="instance">
<g id="3. Fachsemester" style="mix-blend-mode:normal;" figma:type="text">
<use xlink:href="#path3_fill" transform="translate(-443.5 -499)" style="mix-blend-mode:normal;"/>
</g>
<g id="Line" style="mix-blend-mode:normal;" figma:type="line">
<use xlink:href="#path1_stroke" transform="translate(-444 -503)" fill="#E0E0E0" style="mix-blend-mode:normal;"/>
</g>
</g>
<g id="Semester" style="mix-blend-mode:normal;" figma:type="instance">
<g id="4. Fachsemester" style="mix-blend-mode:normal;" figma:type="text">
<use xlink:href="#path4_fill" transform="translate(-443.5 -568)" style="mix-blend-mode:normal;"/>
</g>
<g id="Line" style="mix-blend-mode:normal;" figma:type="line">
<use xlink:href="#path1_stroke" transform="translate(-444 -572)" fill="#E0E0E0" style="mix-blend-mode:normal;"/>
</g>
</g>
<g id="Semester" style="mix-blend-mode:normal;" figma:type="instance">
<g id="5. Fachsemester" style="mix-blend-mode:normal;" figma:type="text">
<use xlink:href="#path5_fill" transform="translate(-443.5 -658)" style="mix-blend-mode:normal;"/>
</g>
<g id="Line" style="mix-blend-mode:normal;" figma:type="line">
<use xlink:href="#path1_stroke" transform="translate(-444 -662)" fill="#E0E0E0" style="mix-blend-mode:normal;"/>
</g>
</g>
<g id="Semester" style="mix-blend-mode:normal;" figma:type="instance">
<g id="6. Fachsemester" style="mix-blend-mode:normal;" figma:type="text">
<use xlink:href="#path6_fill" transform="translate(-443.5 -729)" style="mix-blend-mode:normal;"/>
</g>
<g id="Line" style="mix-blend-mode:normal;" figma:type="line">
<use xlink:href="#path1_stroke" transform="translate(-444 -733)" fill="#E0E0E0" style="mix-blend-mode:normal;"/>
</g>
</g>
</g>
<g id="Spezialisierung" style="mix-blend-mode:normal;" figma:type="symbol">
<g id="Rectangle 3" style="mix-blend-mode:normal;" figma:type="rounded-rectangle">
<use xlink:href="#path7_fill" transform="translate(-286 -733)" fill="#4F4F4F" style="mix-blend-mode:normal;"/>
</g>
<g id="Spezialisierung" style="mix-blend-mode:normal;" figma:type="text">
<use xlink:href="#path8_fill" transform="translate(-278.283 -625.897)" fill="#FFFFFF" style="mix-blend-mode:normal;"/>
</g>
</g>
<g id="Vertiefung" style="mix-blend-mode:normal;" figma:type="symbol">
<g id="Rectangle 3" style="mix-blend-mode:normal;" figma:type="rounded-rectangle">
<use xlink:href="#path7_fill" transform="translate(-286 -573.396)" fill="#4F4F4F" fill-opacity="0.8" style="mix-blend-mode:normal;"/>
</g>
<g id="Vertiefung" style="mix-blend-mode:normal;" figma:type="text">
<use xlink:href="#path9_fill" transform="translate(-278.283 -468.404)" fill="#FFFFFF" style="mix-blend-mode:normal;"/>
</g>
</g>
<g id="Grundlagen" style="mix-blend-mode:normal;" figma:type="symbol">
<g id="Rectangle 3" style="mix-blend-mode:normal;" figma:type="rounded-rectangle">
<use xlink:href="#path7_fill" transform="translate(-286 -412.578)" fill="#4F4F4F" fill-opacity="0.5" style="mix-blend-mode:normal;"/>
</g>
<g id="Grundlagen" style="mix-blend-mode:normal;" figma:type="text">
<use xlink:href="#path10_fill" transform="translate(-278.283 -307.114)" fill="#FFFFFF" style="mix-blend-mode:normal;"/>
</g>
</g>
</g>
</g>
<defs>
<path id="path0_fill" d="M 2.832 9L 3.852 9L 3.852 1.2L 2.952 1.2L 1.248 2.112L 1.452 2.916L 2.808 2.184L 2.832 2.184L 2.832 9ZM 7.48434 9.132C 7.92834 9.132 8.20434 8.808 8.20434 8.376C 8.20434 7.932 7.91634 7.62 7.49634 7.62C 7.07634 7.62 6.77634 7.932 6.77634 8.376C 6.77634 8.808 7.06434 9.132 7.47234 9.132L 7.48434 9.132ZM 12.0917 9L 13.1357 9L 13.1357 5.34L 16.1957 5.34L 16.1957 4.476L 13.1357 4.476L 13.1357 1.788L 16.4477 1.788L 16.4477 0.912L 12.0917 0.912L 12.0917 9ZM 21.4443 5.436C 21.4443 4.272 21.0123 3.06 19.2363 3.06C 18.5043 3.06 17.8083 3.264 17.3283 3.576L 17.5683 4.272C 17.9763 4.008 18.5403 3.84 19.0803 3.84C 20.2683 3.84 20.4003 4.704 20.4003 5.184L 20.4003 5.304C 18.1563 5.292 16.9083 6.06 16.9083 7.464C 16.9083 8.304 17.5083 9.132 18.6843 9.132C 19.5123 9.132 20.1363 8.724 20.4603 8.268L 20.4963 8.268L 20.5803 9L 21.5403 9C 21.4683 8.604 21.4443 8.112 21.4443 7.608L 21.4443 5.436ZM 20.4243 7.044C 20.4243 7.152 20.4003 7.272 20.3643 7.38C 20.1963 7.872 19.7163 8.352 18.9603 8.352C 18.4203 8.352 17.9643 8.028 17.9643 7.344C 17.9643 6.216 19.2723 6.012 20.4243 6.036L 20.4243 7.044ZM 27.1133 7.992C 26.8133 8.124 26.4173 8.28 25.8173 8.28C 24.6653 8.28 23.8013 7.452 23.8013 6.108C 23.8013 4.896 24.5213 3.912 25.8533 3.912C 26.4293 3.912 26.8253 4.044 27.0773 4.188L 27.3173 3.372C 27.0293 3.228 26.4773 3.072 25.8533 3.072C 23.9573 3.072 22.7333 4.368 22.7333 6.156C 22.7333 7.932 23.8733 9.132 25.6253 9.132C 26.4053 9.132 27.0173 8.928 27.2933 8.784L 27.1133 7.992ZM 28.5322 9L 29.5882 9L 29.5882 5.496C 29.5882 5.292 29.6003 5.136 29.6602 4.992C 29.8522 4.416 30.3923 3.936 31.0762 3.936C 32.0723 3.936 32.4203 4.728 32.4203 5.664L 32.4203 9L 33.4763 9L 33.4763 5.544C 33.4763 3.54 32.2283 3.06 31.4483 3.06C 31.0522 3.06 30.6803 3.18 30.3682 3.36C 30.0443 3.54 29.7803 3.804 29.6123 4.104L 29.5882 4.104L 29.5882 0.48L 28.5322 0.48L 28.5322 9ZM 34.7805 8.724C 35.1885 8.964 35.7765 9.132 36.4125 9.132C 37.7925 9.132 38.5845 8.4 38.5845 7.38C 38.5845 6.516 38.0685 6.012 37.0605 5.628C 36.3045 5.34 35.9565 5.124 35.9565 4.644C 35.9565 4.212 36.3045 3.852 36.9285 3.852C 37.4685 3.852 37.8885 4.044 38.1165 4.188L 38.3805 3.42C 38.0565 3.228 37.5405 3.06 36.9525 3.06C 35.7045 3.06 34.9485 3.828 34.9485 4.764C 34.9485 5.46 35.4405 6.036 36.4845 6.408C 37.2645 6.696 37.5645 6.972 37.5645 7.476C 37.5645 7.956 37.2045 8.34 36.4365 8.34C 35.9085 8.34 35.3565 8.124 35.0445 7.92L 34.7805 8.724ZM 44.6143 6.288C 44.6263 6.18 44.6503 6.012 44.6503 5.796C 44.6503 4.728 44.1463 3.06 42.2503 3.06C 40.5583 3.06 39.5263 4.44 39.5263 6.192C 39.5263 7.944 40.5943 9.132 42.3823 9.132C 43.3063 9.132 43.9423 8.928 44.3143 8.76L 44.1343 8.004C 43.7383 8.172 43.2823 8.304 42.5263 8.304C 41.4703 8.304 40.5583 7.716 40.5343 6.288L 44.6143 6.288ZM 40.5463 5.532C 40.6303 4.8 41.0983 3.816 42.1663 3.816C 43.3543 3.816 43.6423 4.86 43.6303 5.532L 40.5463 5.532ZM 45.958 9L 46.99 9L 46.99 5.496C 46.99 5.316 47.014 5.136 47.074 4.98C 47.242 4.452 47.722 3.924 48.382 3.924C 49.186 3.924 49.594 4.596 49.594 5.52L 49.594 9L 50.626 9L 50.626 5.412C 50.626 5.22 50.662 5.028 50.71 4.884C 50.89 4.368 51.358 3.924 51.958 3.924C 52.81 3.924 53.218 4.596 53.218 5.712L 53.218 9L 54.25 9L 54.25 5.58C 54.25 3.564 53.11 3.06 52.342 3.06C 51.79 3.06 51.406 3.204 51.058 3.468C 50.818 3.648 50.59 3.9 50.41 4.224L 50.386 4.224C 50.134 3.54 49.534 3.06 48.742 3.06C 47.782 3.06 47.242 3.576 46.918 4.128L 46.882 4.128L 46.834 3.192L 45.91 3.192C 45.946 3.672 45.958 4.164 45.958 4.764L 45.958 9ZM 60.6338 6.288C 60.6458 6.18 60.6698 6.012 60.6698 5.796C 60.6698 4.728 60.1658 3.06 58.2698 3.06C 56.5778 3.06 55.5458 4.44 55.5458 6.192C 55.5458 7.944 56.6138 9.132 58.4018 9.132C 59.3258 9.132 59.9618 8.928 60.3338 8.76L 60.1538 8.004C 59.7578 8.172 59.3018 8.304 58.5458 8.304C 57.4898 8.304 56.5778 7.716 56.5538 6.288L 60.6338 6.288ZM 56.5658 5.532C 56.6498 4.8 57.1178 3.816 58.1858 3.816C 59.3738 3.816 59.6618 4.86 59.6498 5.532L 56.5658 5.532ZM 61.5696 8.724C 61.9776 8.964 62.5656 9.132 63.2016 9.132C 64.5816 9.132 65.3736 8.4 65.3736 7.38C 65.3736 6.516 64.8576 6.012 63.8496 5.628C 63.0936 5.34 62.7456 5.124 62.7456 4.644C 62.7456 4.212 63.0936 3.852 63.7176 3.852C 64.2576 3.852 64.6776 4.044 64.9056 4.188L 65.1696 3.42C 64.8456 3.228 64.3296 3.06 63.7416 3.06C 62.4936 3.06 61.7376 3.828 61.7376 4.764C 61.7376 5.46 62.2296 6.036 63.2736 6.408C 64.0536 6.696 64.3536 6.972 64.3536 7.476C 64.3536 7.956 63.9936 8.34 63.2256 8.34C 62.6976 8.34 62.1456 8.124 61.8336 7.92L 61.5696 8.724ZM 66.9754 2.124L 66.9754 3.192L 66.0754 3.192L 66.0754 3.996L 66.9754 3.996L 66.9754 7.164C 66.9754 7.848 67.0834 8.364 67.3834 8.676C 67.6354 8.964 68.0314 9.132 68.5234 9.132C 68.9314 9.132 69.2554 9.06 69.4594 8.976L 69.4114 8.184C 69.2554 8.232 69.0874 8.256 68.7994 8.256C 68.2114 8.256 68.0074 7.848 68.0074 7.128L 68.0074 3.996L 69.5194 3.996L 69.5194 3.192L 68.0074 3.192L 68.0074 1.8L 66.9754 2.124ZM 75.3057 6.288C 75.3177 6.18 75.3417 6.012 75.3417 5.796C 75.3417 4.728 74.8377 3.06 72.9417 3.06C 71.2497 3.06 70.2177 4.44 70.2177 6.192C 70.2177 7.944 71.2857 9.132 73.0737 9.132C 73.9977 9.132 74.6337 8.928 75.0057 8.76L 74.8257 8.004C 74.4297 8.172 73.9737 8.304 73.2177 8.304C 72.1617 8.304 71.2497 7.716 71.2257 6.288L 75.3057 6.288ZM 71.2377 5.532C 71.3217 4.8 71.7897 3.816 72.8577 3.816C 74.0457 3.816 74.3337 4.86 74.3217 5.532L 71.2377 5.532ZM 76.6494 9L 77.6934 9L 77.6934 5.904C 77.6934 5.724 77.7174 5.556 77.7414 5.412C 77.8854 4.62 78.4134 4.056 79.1574 4.056C 79.3014 4.056 79.4094 4.068 79.5174 4.092L 79.5174 3.096C 79.4214 3.072 79.3374 3.06 79.2174 3.06C 78.5094 3.06 77.8734 3.552 77.6094 4.332L 77.5614 4.332L 77.5254 3.192L 76.6014 3.192C 76.6374 3.732 76.6494 4.32 76.6494 5.004L 76.6494 9Z"/>
<path id="path1_stroke" d="M 0 0L 1302 0L 1302 -1L 0 -1L 0 0Z"/>
<path id="path2_fill" d="M 5.52 9L 5.52 8.124L 2.016 8.124L 2.016 8.1L 2.64 7.524C 4.284 5.94 5.328 4.776 5.328 3.336C 5.328 2.22 4.62 1.068 2.94 1.068C 2.04 1.068 1.272 1.404 0.732 1.86L 1.068 2.604C 1.428 2.304 2.016 1.944 2.724 1.944C 3.888 1.944 4.272 2.676 4.272 3.468C 4.26 4.644 3.36 5.652 1.368 7.548L 0.54 8.352L 0.54 9L 5.52 9ZM 7.48434 9.132C 7.92834 9.132 8.20434 8.808 8.20434 8.376C 8.20434 7.932 7.91634 7.62 7.49634 7.62C 7.07634 7.62 6.77634 7.932 6.77634 8.376C 6.77634 8.808 7.06434 9.132 7.47234 9.132L 7.48434 9.132ZM 12.0917 9L 13.1357 9L 13.1357 5.34L 16.1957 5.34L 16.1957 4.476L 13.1357 4.476L 13.1357 1.788L 16.4477 1.788L 16.4477 0.912L 12.0917 0.912L 12.0917 9ZM 21.4443 5.436C 21.4443 4.272 21.0123 3.06 19.2363 3.06C 18.5043 3.06 17.8083 3.264 17.3283 3.576L 17.5683 4.272C 17.9763 4.008 18.5403 3.84 19.0803 3.84C 20.2683 3.84 20.4003 4.704 20.4003 5.184L 20.4003 5.304C 18.1563 5.292 16.9083 6.06 16.9083 7.464C 16.9083 8.304 17.5083 9.132 18.6843 9.132C 19.5123 9.132 20.1363 8.724 20.4603 8.268L 20.4963 8.268L 20.5803 9L 21.5403 9C 21.4683 8.604 21.4443 8.112 21.4443 7.608L 21.4443 5.436ZM 20.4243 7.044C 20.4243 7.152 20.4003 7.272 20.3643 7.38C 20.1963 7.872 19.7163 8.352 18.9603 8.352C 18.4203 8.352 17.9643 8.028 17.9643 7.344C 17.9643 6.216 19.2723 6.012 20.4243 6.036L 20.4243 7.044ZM 27.1133 7.992C 26.8133 8.124 26.4173 8.28 25.8173 8.28C 24.6653 8.28 23.8013 7.452 23.8013 6.108C 23.8013 4.896 24.5213 3.912 25.8533 3.912C 26.4293 3.912 26.8253 4.044 27.0773 4.188L 27.3173 3.372C 27.0293 3.228 26.4773 3.072 25.8533 3.072C 23.9573 3.072 22.7333 4.368 22.7333 6.156C 22.7333 7.932 23.8733 9.132 25.6253 9.132C 26.4053 9.132 27.0173 8.928 27.2933 8.784L 27.1133 7.992ZM 28.5323 9L 29.5882 9L 29.5882 5.496C 29.5882 5.292 29.6003 5.136 29.6603 4.992C 29.8523 4.416 30.3923 3.936 31.0763 3.936C 32.0723 3.936 32.4203 4.728 32.4203 5.664L 32.4203 9L 33.4763 9L 33.4763 5.544C 33.4763 3.54 32.2283 3.06 31.4483 3.06C 31.0523 3.06 30.6803 3.18 30.3682 3.36C 30.0442 3.54 29.7802 3.804 29.6122 4.104L 29.5882 4.104L 29.5882 0.48L 28.5323 0.48L 28.5323 9ZM 34.7805 8.724C 35.1885 8.964 35.7765 9.132 36.4125 9.132C 37.7925 9.132 38.5845 8.4 38.5845 7.38C 38.5845 6.516 38.0685 6.012 37.0605 5.628C 36.3045 5.34 35.9565 5.124 35.9565 4.644C 35.9565 4.212 36.3045 3.852 36.9285 3.852C 37.4685 3.852 37.8885 4.044 38.1165 4.188L 38.3805 3.42C 38.0565 3.228 37.5405 3.06 36.9525 3.06C 35.7045 3.06 34.9485 3.828 34.9485 4.764C 34.9485 5.46 35.4405 6.036 36.4845 6.408C 37.2645 6.696 37.5645 6.972 37.5645 7.476C 37.5645 7.956 37.2045 8.34 36.4365 8.34C 35.9085 8.34 35.3565 8.124 35.0445 7.92L 34.7805 8.724ZM 44.6143 6.288C 44.6263 6.18 44.6503 6.012 44.6503 5.796C 44.6503 4.728 44.1463 3.06 42.2503 3.06C 40.5583 3.06 39.5263 4.44 39.5263 6.192C 39.5263 7.944 40.5943 9.132 42.3823 9.132C 43.3063 9.132 43.9423 8.928 44.3143 8.76L 44.1343 8.004C 43.7383 8.172 43.2823 8.304 42.5263 8.304C 41.4703 8.304 40.5583 7.716 40.5343 6.288L 44.6143 6.288ZM 40.5463 5.532C 40.6303 4.8 41.0983 3.816 42.1663 3.816C 43.3543 3.816 43.6423 4.86 43.6303 5.532L 40.5463 5.532ZM 45.958 9L 46.99 9L 46.99 5.496C 46.99 5.316 47.014 5.136 47.074 4.98C 47.242 4.452 47.722 3.924 48.382 3.924C 49.186 3.924 49.594 4.596 49.594 5.52L 49.594 9L 50.626 9L 50.626 5.412C 50.626 5.22 50.662 5.028 50.71 4.884C 50.89 4.368 51.358 3.924 51.958 3.924C 52.81 3.924 53.218 4.596 53.218 5.712L 53.218 9L 54.25 9L 54.25 5.58C 54.25 3.564 53.11 3.06 52.342 3.06C 51.79 3.06 51.406 3.204 51.058 3.468C 50.818 3.648 50.59 3.9 50.41 4.224L 50.386 4.224C 50.134 3.54 49.534 3.06 48.742 3.06C 47.782 3.06 47.242 3.576 46.918 4.128L 46.882 4.128L 46.834 3.192L 45.91 3.192C 45.946 3.672 45.958 4.164 45.958 4.764L 45.958 9ZM 60.6338 6.288C 60.6458 6.18 60.6698 6.012 60.6698 5.796C 60.6698 4.728 60.1658 3.06 58.2698 3.06C 56.5778 3.06 55.5458 4.44 55.5458 6.192C 55.5458 7.944 56.6138 9.132 58.4018 9.132C 59.3258 9.132 59.9618 8.928 60.3338 8.76L 60.1538 8.004C 59.7578 8.172 59.3018 8.304 58.5458 8.304C 57.4898 8.304 56.5778 7.716 56.5538 6.288L 60.6338 6.288ZM 56.5658 5.532C 56.6498 4.8 57.1178 3.816 58.1858 3.816C 59.3738 3.816 59.6618 4.86 59.6498 5.532L 56.5658 5.532ZM 61.5696 8.724C 61.9776 8.964 62.5656 9.132 63.2016 9.132C 64.5816 9.132 65.3736 8.4 65.3736 7.38C 65.3736 6.516 64.8576 6.012 63.8496 5.628C 63.0936 5.34 62.7456 5.124 62.7456 4.644C 62.7456 4.212 63.0936 3.852 63.7176 3.852C 64.2576 3.852 64.6776 4.044 64.9056 4.188L 65.1696 3.42C 64.8456 3.228 64.3296 3.06 63.7416 3.06C 62.4936 3.06 61.7376 3.828 61.7376 4.764C 61.7376 5.46 62.2296 6.036 63.2736 6.408C 64.0536 6.696 64.3536 6.972 64.3536 7.476C 64.3536 7.956 63.9936 8.34 63.2256 8.34C 62.6976 8.34 62.1456 8.124 61.8336 7.92L 61.5696 8.724ZM 66.9754 2.124L 66.9754 3.192L 66.0754 3.192L 66.0754 3.996L 66.9754 3.996L 66.9754 7.164C 66.9754 7.848 67.0834 8.364 67.3834 8.676C 67.6354 8.964 68.0314 9.132 68.5234 9.132C 68.9314 9.132 69.2554 9.06 69.4594 8.976L 69.4114 8.184C 69.2554 8.232 69.0874 8.256 68.7994 8.256C 68.2114 8.256 68.0074 7.848 68.0074 7.128L 68.0074 3.996L 69.5194 3.996L 69.5194 3.192L 68.0074 3.192L 68.0074 1.8L 66.9754 2.124ZM 75.3057 6.288C 75.3177 6.18 75.3417 6.012 75.3417 5.796C 75.3417 4.728 74.8377 3.06 72.9417 3.06C 71.2497 3.06 70.2177 4.44 70.2177 6.192C 70.2177 7.944 71.2857 9.132 73.0737 9.132C 73.9977 9.132 74.6337 8.928 75.0057 8.76L 74.8257 8.004C 74.4297 8.172 73.9737 8.304 73.2177 8.304C 72.1617 8.304 71.2497 7.716 71.2257 6.288L 75.3057 6.288ZM 71.2377 5.532C 71.3217 4.8 71.7897 3.816 72.8577 3.816C 74.0457 3.816 74.3337 4.86 74.3217 5.532L 71.2377 5.532ZM 76.6494 9L 77.6934 9L 77.6934 5.904C 77.6934 5.724 77.7174 5.556 77.7414 5.412C 77.8854 4.62 78.4134 4.056 79.1574 4.056C 79.3014 4.056 79.4094 4.068 79.5174 4.092L 79.5174 3.096C 79.4214 3.072 79.3374 3.06 79.2174 3.06C 78.5094 3.06 77.8734 3.552 77.6094 4.332L 77.5614 4.332L 77.5254 3.192L 76.6014 3.192C 76.6374 3.732 76.6494 4.32 76.6494 5.004L 76.6494 9Z"/>
<path id="path3_fill" d="M 0.504 8.604C 0.888 8.856 1.656 9.132 2.532 9.132C 4.404 9.132 5.376 8.04 5.376 6.792C 5.376 5.7 4.596 4.98 3.636 4.788L 3.636 4.764C 4.596 4.416 5.076 3.732 5.076 2.928C 5.076 1.98 4.38 1.068 2.844 1.068C 2.004 1.068 1.212 1.368 0.804 1.668L 1.08 2.436C 1.416 2.196 2.016 1.92 2.64 1.92C 3.612 1.92 4.008 2.472 4.008 3.096C 4.008 4.02 3.036 4.416 2.268 4.416L 1.68 4.416L 1.68 5.208L 2.268 5.208C 3.288 5.208 4.272 5.676 4.284 6.768C 4.296 7.416 3.876 8.28 2.52 8.28C 1.788 8.28 1.092 7.98 0.792 7.788L 0.504 8.604ZM 7.48434 9.132C 7.92834 9.132 8.20434 8.808 8.20434 8.376C 8.20434 7.932 7.91634 7.62 7.49634 7.62C 7.07634 7.62 6.77634 7.932 6.77634 8.376C 6.77634 8.808 7.06434 9.132 7.47234 9.132L 7.48434 9.132ZM 12.0917 9L 13.1357 9L 13.1357 5.34L 16.1957 5.34L 16.1957 4.476L 13.1357 4.476L 13.1357 1.788L 16.4477 1.788L 16.4477 0.912L 12.0917 0.912L 12.0917 9ZM 21.4443 5.436C 21.4443 4.272 21.0123 3.06 19.2363 3.06C 18.5043 3.06 17.8083 3.264 17.3283 3.576L 17.5683 4.272C 17.9763 4.008 18.5403 3.84 19.0803 3.84C 20.2683 3.84 20.4003 4.704 20.4003 5.184L 20.4003 5.304C 18.1563 5.292 16.9083 6.06 16.9083 7.464C 16.9083 8.304 17.5083 9.132 18.6843 9.132C 19.5123 9.132 20.1363 8.724 20.4603 8.268L 20.4963 8.268L 20.5803 9L 21.5403 9C 21.4683 8.604 21.4443 8.112 21.4443 7.608L 21.4443 5.436ZM 20.4243 7.044C 20.4243 7.152 20.4003 7.272 20.3643 7.38C 20.1963 7.872 19.7163 8.352 18.9603 8.352C 18.4203 8.352 17.9643 8.028 17.9643 7.344C 17.9643 6.216 19.2723 6.012 20.4243 6.036L 20.4243 7.044ZM 27.1133 7.992C 26.8133 8.124 26.4173 8.28 25.8173 8.28C 24.6653 8.28 23.8013 7.452 23.8013 6.108C 23.8013 4.896 24.5213 3.912 25.8533 3.912C 26.4293 3.912 26.8253 4.044 27.0773 4.188L 27.3173 3.372C 27.0293 3.228 26.4773 3.072 25.8533 3.072C 23.9573 3.072 22.7333 4.368 22.7333 6.156C 22.7333 7.932 23.8733 9.132 25.6253 9.132C 26.4053 9.132 27.0173 8.928 27.2933 8.784L 27.1133 7.992ZM 28.5323 9L 29.5882 9L 29.5882 5.496C 29.5882 5.292 29.6003 5.136 29.6603 4.992C 29.8523 4.416 30.3923 3.936 31.0763 3.936C 32.0723 3.936 32.4203 4.728 32.4203 5.664L 32.4203 9L 33.4763 9L 33.4763 5.544C 33.4763 3.54 32.2283 3.06 31.4483 3.06C 31.0523 3.06 30.6803 3.18 30.3682 3.36C 30.0442 3.54 29.7802 3.804 29.6122 4.104L 29.5882 4.104L 29.5882 0.48L 28.5323 0.48L 28.5323 9ZM 34.7805 8.724C 35.1885 8.964 35.7765 9.132 36.4125 9.132C 37.7925 9.132 38.5845 8.4 38.5845 7.38C 38.5845 6.516 38.0685 6.012 37.0605 5.628C 36.3045 5.34 35.9565 5.124 35.9565 4.644C 35.9565 4.212 36.3045 3.852 36.9285 3.852C 37.4685 3.852 37.8885 4.044 38.1165 4.188L 38.3805 3.42C 38.0565 3.228 37.5405 3.06 36.9525 3.06C 35.7045 3.06 34.9485 3.828 34.9485 4.764C 34.9485 5.46 35.4405 6.036 36.4845 6.408C 37.2645 6.696 37.5645 6.972 37.5645 7.476C 37.5645 7.956 37.2045 8.34 36.4365 8.34C 35.9085 8.34 35.3565 8.124 35.0445 7.92L 34.7805 8.724ZM 44.6143 6.288C 44.6263 6.18 44.6503 6.012 44.6503 5.796C 44.6503 4.728 44.1463 3.06 42.2503 3.06C 40.5583 3.06 39.5263 4.44 39.5263 6.192C 39.5263 7.944 40.5943 9.132 42.3823 9.132C 43.3063 9.132 43.9423 8.928 44.3143 8.76L 44.1343 8.004C 43.7383 8.172 43.2823 8.304 42.5263 8.304C 41.4703 8.304 40.5583 7.716 40.5343 6.288L 44.6143 6.288ZM 40.5463 5.532C 40.6303 4.8 41.0983 3.816 42.1663 3.816C 43.3543 3.816 43.6423 4.86 43.6303 5.532L 40.5463 5.532ZM 45.958 9L 46.99 9L 46.99 5.496C 46.99 5.316 47.014 5.136 47.074 4.98C 47.242 4.452 47.722 3.924 48.382 3.924C 49.186 3.924 49.594 4.596 49.594 5.52L 49.594 9L 50.626 9L 50.626 5.412C 50.626 5.22 50.662 5.028 50.71 4.884C 50.89 4.368 51.358 3.924 51.958 3.924C 52.81 3.924 53.218 4.596 53.218 5.712L 53.218 9L 54.25 9L 54.25 5.58C 54.25 3.564 53.11 3.06 52.342 3.06C 51.79 3.06 51.406 3.204 51.058 3.468C 50.818 3.648 50.59 3.9 50.41 4.224L 50.386 4.224C 50.134 3.54 49.534 3.06 48.742 3.06C 47.782 3.06 47.242 3.576 46.918 4.128L 46.882 4.128L 46.834 3.192L 45.91 3.192C 45.946 3.672 45.958 4.164 45.958 4.764L 45.958 9ZM 60.6338 6.288C 60.6458 6.18 60.6698 6.012 60.6698 5.796C 60.6698 4.728 60.1658 3.06 58.2698 3.06C 56.5778 3.06 55.5458 4.44 55.5458 6.192C 55.5458 7.944 56.6138 9.132 58.4018 9.132C 59.3258 9.132 59.9618 8.928 60.3338 8.76L 60.1538 8.004C 59.7578 8.172 59.3018 8.304 58.5458 8.304C 57.4898 8.304 56.5778 7.716 56.5538 6.288L 60.6338 6.288ZM 56.5658 5.532C 56.6498 4.8 57.1178 3.816 58.1858 3.816C 59.3738 3.816 59.6618 4.86 59.6498 5.532L 56.5658 5.532ZM 61.5696 8.724C 61.9776 8.964 62.5656 9.132 63.2016 9.132C 64.5816 9.132 65.3736 8.4 65.3736 7.38C 65.3736 6.516 64.8576 6.012 63.8496 5.628C 63.0936 5.34 62.7456 5.124 62.7456 4.644C 62.7456 4.212 63.0936 3.852 63.7176 3.852C 64.2576 3.852 64.6776 4.044 64.9056 4.188L 65.1696 3.42C 64.8456 3.228 64.3296 3.06 63.7416 3.06C 62.4936 3.06 61.7376 3.828 61.7376 4.764C 61.7376 5.46 62.2296 6.036 63.2736 6.408C 64.0536 6.696 64.3536 6.972 64.3536 7.476C 64.3536 7.956 63.9936 8.34 63.2256 8.34C 62.6976 8.34 62.1456 8.124 61.8336 7.92L 61.5696 8.724ZM 66.9754 2.124L 66.9754 3.192L 66.0754 3.192L 66.0754 3.996L 66.9754 3.996L 66.9754 7.164C 66.9754 7.848 67.0834 8.364 67.3834 8.676C 67.6354 8.964 68.0314 9.132 68.5234 9.132C 68.9314 9.132 69.2554 9.06 69.4594 8.976L 69.4114 8.184C 69.2554 8.232 69.0874 8.256 68.7994 8.256C 68.2114 8.256 68.0074 7.848 68.0074 7.128L 68.0074 3.996L 69.5194 3.996L 69.5194 3.192L 68.0074 3.192L 68.0074 1.8L 66.9754 2.124ZM 75.3057 6.288C 75.3177 6.18 75.3417 6.012 75.3417 5.796C 75.3417 4.728 74.8377 3.06 72.9417 3.06C 71.2497 3.06 70.2177 4.44 70.2177 6.192C 70.2177 7.944 71.2857 9.132 73.0737 9.132C 73.9977 9.132 74.6337 8.928 75.0057 8.76L 74.8257 8.004C 74.4297 8.172 73.9737 8.304 73.2177 8.304C 72.1617 8.304 71.2497 7.716 71.2257 6.288L 75.3057 6.288ZM 71.2377 5.532C 71.3217 4.8 71.7897 3.816 72.8577 3.816C 74.0457 3.816 74.3337 4.86 74.3217 5.532L 71.2377 5.532ZM 76.6494 9L 77.6934 9L 77.6934 5.904C 77.6934 5.724 77.7174 5.556 77.7414 5.412C 77.8854 4.62 78.4134 4.056 79.1574 4.056C 79.3014 4.056 79.4094 4.068 79.5174 4.092L 79.5174 3.096C 79.4214 3.072 79.3374 3.06 79.2174 3.06C 78.5094 3.06 77.8734 3.552 77.6094 4.332L 77.5614 4.332L 77.5254 3.192L 76.6014 3.192C 76.6374 3.732 76.6494 4.32 76.6494 5.004L 76.6494 9Z"/>
<path id="path4_fill" d="M 4.8 9L 4.8 6.876L 5.892 6.876L 5.892 6.048L 4.8 6.048L 4.8 1.2L 3.66 1.2L 0.18 6.18L 0.18 6.876L 3.804 6.876L 3.804 9L 4.8 9ZM 1.248 6.048L 1.248 6.024L 3.156 3.372C 3.372 3.012 3.564 2.676 3.804 2.22L 3.84 2.22C 3.816 2.628 3.804 3.036 3.804 3.444L 3.804 6.048L 1.248 6.048ZM 7.48434 9.132C 7.92834 9.132 8.20434 8.808 8.20434 8.376C 8.20434 7.932 7.91634 7.62 7.49634 7.62C 7.07634 7.62 6.77634 7.932 6.77634 8.376C 6.77634 8.808 7.06434 9.132 7.47234 9.132L 7.48434 9.132ZM 12.0917 9L 13.1357 9L 13.1357 5.34L 16.1957 5.34L 16.1957 4.476L 13.1357 4.476L 13.1357 1.788L 16.4477 1.788L 16.4477 0.912L 12.0917 0.912L 12.0917 9ZM 21.4443 5.436C 21.4443 4.272 21.0123 3.06 19.2363 3.06C 18.5043 3.06 17.8083 3.264 17.3283 3.576L 17.5683 4.272C 17.9763 4.008 18.5403 3.84 19.0803 3.84C 20.2683 3.84 20.4003 4.704 20.4003 5.184L 20.4003 5.304C 18.1563 5.292 16.9083 6.06 16.9083 7.464C 16.9083 8.304 17.5083 9.132 18.6843 9.132C 19.5123 9.132 20.1363 8.724 20.4603 8.268L 20.4963 8.268L 20.5803 9L 21.5403 9C 21.4683 8.604 21.4443 8.112 21.4443 7.608L 21.4443 5.436ZM 20.4243 7.044C 20.4243 7.152 20.4003 7.272 20.3643 7.38C 20.1963 7.872 19.7163 8.352 18.9603 8.352C 18.4203 8.352 17.9643 8.028 17.9643 7.344C 17.9643 6.216 19.2723 6.012 20.4243 6.036L 20.4243 7.044ZM 27.1133 7.992C 26.8133 8.124 26.4173 8.28 25.8173 8.28C 24.6653 8.28 23.8013 7.452 23.8013 6.108C 23.8013 4.896 24.5213 3.912 25.8533 3.912C 26.4293 3.912 26.8253 4.044 27.0773 4.188L 27.3173 3.372C 27.0293 3.228 26.4773 3.072 25.8533 3.072C 23.9573 3.072 22.7333 4.368 22.7333 6.156C 22.7333 7.932 23.8733 9.132 25.6253 9.132C 26.4053 9.132 27.0173 8.928 27.2933 8.784L 27.1133 7.992ZM 28.5323 9L 29.5882 9L 29.5882 5.496C 29.5882 5.292 29.6003 5.136 29.6603 4.992C 29.8523 4.416 30.3923 3.936 31.0763 3.936C 32.0723 3.936 32.4203 4.728 32.4203 5.664L 32.4203 9L 33.4763 9L 33.4763 5.544C 33.4763 3.54 32.2283 3.06 31.4483 3.06C 31.0523 3.06 30.6803 3.18 30.3682 3.36C 30.0442 3.54 29.7802 3.804 29.6122 4.104L 29.5882 4.104L 29.5882 0.48L 28.5323 0.48L 28.5323 9ZM 34.7805 8.724C 35.1885 8.964 35.7765 9.132 36.4125 9.132C 37.7925 9.132 38.5845 8.4 38.5845 7.38C 38.5845 6.516 38.0685 6.012 37.0605 5.628C 36.3045 5.34 35.9565 5.124 35.9565 4.644C 35.9565 4.212 36.3045 3.852 36.9285 3.852C 37.4685 3.852 37.8885 4.044 38.1165 4.188L 38.3805 3.42C 38.0565 3.228 37.5405 3.06 36.9525 3.06C 35.7045 3.06 34.9485 3.828 34.9485 4.764C 34.9485 5.46 35.4405 6.036 36.4845 6.408C 37.2645 6.696 37.5645 6.972 37.5645 7.476C 37.5645 7.956 37.2045 8.34 36.4365 8.34C 35.9085 8.34 35.3565 8.124 35.0445 7.92L 34.7805 8.724ZM 44.6143 6.288C 44.6263 6.18 44.6503 6.012 44.6503 5.796C 44.6503 4.728 44.1463 3.06 42.2503 3.06C 40.5583 3.06 39.5263 4.44 39.5263 6.192C 39.5263 7.944 40.5943 9.132 42.3823 9.132C 43.3063 9.132 43.9423 8.928 44.3143 8.76L 44.1343 8.004C 43.7383 8.172 43.2823 8.304 42.5263 8.304C 41.4703 8.304 40.5583 7.716 40.5343 6.288L 44.6143 6.288ZM 40.5463 5.532C 40.6303 4.8 41.0983 3.816 42.1663 3.816C 43.3543 3.816 43.6423 4.86 43.6303 5.532L 40.5463 5.532ZM 45.958 9L 46.99 9L 46.99 5.496C 46.99 5.316 47.014 5.136 47.074 4.98C 47.242 4.452 47.722 3.924 48.382 3.924C 49.186 3.924 49.594 4.596 49.594 5.52L 49.594 9L 50.626 9L 50.626 5.412C 50.626 5.22 50.662 5.028 50.71 4.884C 50.89 4.368 51.358 3.924 51.958 3.924C 52.81 3.924 53.218 4.596 53.218 5.712L 53.218 9L 54.25 9L 54.25 5.58C 54.25 3.564 53.11 3.06 52.342 3.06C 51.79 3.06 51.406 3.204 51.058 3.468C 50.818 3.648 50.59 3.9 50.41 4.224L 50.386 4.224C 50.134 3.54 49.534 3.06 48.742 3.06C 47.782 3.06 47.242 3.576 46.918 4.128L 46.882 4.128L 46.834 3.192L 45.91 3.192C 45.946 3.672 45.958 4.164 45.958 4.764L 45.958 9ZM 60.6338 6.288C 60.6458 6.18 60.6698 6.012 60.6698 5.796C 60.6698 4.728 60.1658 3.06 58.2698 3.06C 56.5778 3.06 55.5458 4.44 55.5458 6.192C 55.5458 7.944 56.6138 9.132 58.4018 9.132C 59.3258 9.132 59.9618 8.928 60.3338 8.76L 60.1538 8.004C 59.7578 8.172 59.3018 8.304 58.5458 8.304C 57.4898 8.304 56.5778 7.716 56.5538 6.288L 60.6338 6.288ZM 56.5658 5.532C 56.6498 4.8 57.1178 3.816 58.1858 3.816C 59.3738 3.816 59.6618 4.86 59.6498 5.532L 56.5658 5.532ZM 61.5696 8.724C 61.9776 8.964 62.5656 9.132 63.2016 9.132C 64.5816 9.132 65.3736 8.4 65.3736 7.38C 65.3736 6.516 64.8576 6.012 63.8496 5.628C 63.0936 5.34 62.7456 5.124 62.7456 4.644C 62.7456 4.212 63.0936 3.852 63.7176 3.852C 64.2576 3.852 64.6776 4.044 64.9056 4.188L 65.1696 3.42C 64.8456 3.228 64.3296 3.06 63.7416 3.06C 62.4936 3.06 61.7376 3.828 61.7376 4.764C 61.7376 5.46 62.2296 6.036 63.2736 6.408C 64.0536 6.696 64.3536 6.972 64.3536 7.476C 64.3536 7.956 63.9936 8.34 63.2256 8.34C 62.6976 8.34 62.1456 8.124 61.8336 7.92L 61.5696 8.724ZM 66.9754 2.124L 66.9754 3.192L 66.0754 3.192L 66.0754 3.996L 66.9754 3.996L 66.9754 7.164C 66.9754 7.848 67.0834 8.364 67.3834 8.676C 67.6354 8.964 68.0314 9.132 68.5234 9.132C 68.9314 9.132 69.2554 9.06 69.4594 8.976L 69.4114 8.184C 69.2554 8.232 69.0874 8.256 68.7994 8.256C 68.2114 8.256 68.0074 7.848 68.0074 7.128L 68.0074 3.996L 69.5194 3.996L 69.5194 3.192L 68.0074 3.192L 68.0074 1.8L 66.9754 2.124ZM 75.3057 6.288C 75.3177 6.18 75.3417 6.012 75.3417 5.796C 75.3417 4.728 74.8377 3.06 72.9417 3.06C 71.2497 3.06 70.2177 4.44 70.2177 6.192C 70.2177 7.944 71.2857 9.132 73.0737 9.132C 73.9977 9.132 74.6337 8.928 75.0057 8.76L 74.8257 8.004C 74.4297 8.172 73.9737 8.304 73.2177 8.304C 72.1617 8.304 71.2497 7.716 71.2257 6.288L 75.3057 6.288ZM 71.2377 5.532C 71.3217 4.8 71.7897 3.816 72.8577 3.816C 74.0457 3.816 74.3337 4.86 74.3217 5.532L 71.2377 5.532ZM 76.6494 9L 77.6934 9L 77.6934 5.904C 77.6934 5.724 77.7174 5.556 77.7414 5.412C 77.8854 4.62 78.4134 4.056 79.1574 4.056C 79.3014 4.056 79.4094 4.068 79.5174 4.092L 79.5174 3.096C 79.4214 3.072 79.3374 3.06 79.2174 3.06C 78.5094 3.06 77.8734 3.552 77.6094 4.332L 77.5614 4.332L 77.5254 3.192L 76.6014 3.192C 76.6374 3.732 76.6494 4.32 76.6494 5.004L 76.6494 9Z"/>
<path id="path5_fill" d="M 5.196 1.2L 1.464 1.2L 0.96 4.944C 1.248 4.908 1.596 4.86 2.04 4.86C 3.6 4.86 4.272 5.58 4.284 6.588C 4.284 7.632 3.432 8.28 2.436 8.28C 1.728 8.28 1.092 8.04 0.768 7.848L 0.504 8.652C 0.876 8.892 1.596 9.132 2.448 9.132C 4.14 9.132 5.352 7.992 5.352 6.468C 5.352 5.484 4.848 4.812 4.236 4.464C 3.756 4.176 3.156 4.044 2.556 4.044C 2.268 4.044 2.1 4.068 1.92 4.092L 2.22 2.088L 5.196 2.088L 5.196 1.2ZM 7.48434 9.132C 7.92834 9.132 8.20434 8.808 8.20434 8.376C 8.20434 7.932 7.91634 7.62 7.49634 7.62C 7.07634 7.62 6.77634 7.932 6.77634 8.376C 6.77634 8.808 7.06434 9.132 7.47234 9.132L 7.48434 9.132ZM 12.0917 9L 13.1357 9L 13.1357 5.34L 16.1957 5.34L 16.1957 4.476L 13.1357 4.476L 13.1357 1.788L 16.4477 1.788L 16.4477 0.912L 12.0917 0.912L 12.0917 9ZM 21.4443 5.436C 21.4443 4.272 21.0123 3.06 19.2363 3.06C 18.5043 3.06 17.8083 3.264 17.3283 3.576L 17.5683 4.272C 17.9763 4.008 18.5403 3.84 19.0803 3.84C 20.2683 3.84 20.4003 4.704 20.4003 5.184L 20.4003 5.304C 18.1563 5.292 16.9083 6.06 16.9083 7.464C 16.9083 8.304 17.5083 9.132 18.6843 9.132C 19.5123 9.132 20.1363 8.724 20.4603 8.268L 20.4963 8.268L 20.5803 9L 21.5403 9C 21.4683 8.604 21.4443 8.112 21.4443 7.608L 21.4443 5.436ZM 20.4243 7.044C 20.4243 7.152 20.4003 7.272 20.3643 7.38C 20.1963 7.872 19.7163 8.352 18.9603 8.352C 18.4203 8.352 17.9643 8.028 17.9643 7.344C 17.9643 6.216 19.2723 6.012 20.4243 6.036L 20.4243 7.044ZM 27.1133 7.992C 26.8133 8.124 26.4173 8.28 25.8173 8.28C 24.6653 8.28 23.8013 7.452 23.8013 6.108C 23.8013 4.896 24.5213 3.912 25.8533 3.912C 26.4293 3.912 26.8253 4.044 27.0773 4.188L 27.3173 3.372C 27.0293 3.228 26.4773 3.072 25.8533 3.072C 23.9573 3.072 22.7333 4.368 22.7333 6.156C 22.7333 7.932 23.8733 9.132 25.6253 9.132C 26.4053 9.132 27.0173 8.928 27.2933 8.784L 27.1133 7.992ZM 28.5323 9L 29.5882 9L 29.5882 5.496C 29.5882 5.292 29.6003 5.136 29.6603 4.992C 29.8523 4.416 30.3923 3.936 31.0763 3.936C 32.0723 3.936 32.4203 4.728 32.4203 5.664L 32.4203 9L 33.4763 9L 33.4763 5.544C 33.4763 3.54 32.2283 3.06 31.4483 3.06C 31.0523 3.06 30.6803 3.18 30.3682 3.36C 30.0442 3.54 29.7802 3.804 29.6122 4.104L 29.5882 4.104L 29.5882 0.48L 28.5323 0.48L 28.5323 9ZM 34.7805 8.724C 35.1885 8.964 35.7765 9.132 36.4125 9.132C 37.7925 9.132 38.5845 8.4 38.5845 7.38C 38.5845 6.516 38.0685 6.012 37.0605 5.628C 36.3045 5.34 35.9565 5.124 35.9565 4.644C 35.9565 4.212 36.3045 3.852 36.9285 3.852C 37.4685 3.852 37.8885 4.044 38.1165 4.188L 38.3805 3.42C 38.0565 3.228 37.5405 3.06 36.9525 3.06C 35.7045 3.06 34.9485 3.828 34.9485 4.764C 34.9485 5.46 35.4405 6.036 36.4845 6.408C 37.2645 6.696 37.5645 6.972 37.5645 7.476C 37.5645 7.956 37.2045 8.34 36.4365 8.34C 35.9085 8.34 35.3565 8.124 35.0445 7.92L 34.7805 8.724ZM 44.6143 6.288C 44.6263 6.18 44.6503 6.012 44.6503 5.796C 44.6503 4.728 44.1463 3.06 42.2503 3.06C 40.5583 3.06 39.5263 4.44 39.5263 6.192C 39.5263 7.944 40.5943 9.132 42.3823 9.132C 43.3063 9.132 43.9423 8.928 44.3143 8.76L 44.1343 8.004C 43.7383 8.172 43.2823 8.304 42.5263 8.304C 41.4703 8.304 40.5583 7.716 40.5343 6.288L 44.6143 6.288ZM 40.5463 5.532C 40.6303 4.8 41.0983 3.816 42.1663 3.816C 43.3543 3.816 43.6423 4.86 43.6303 5.532L 40.5463 5.532ZM 45.958 9L 46.99 9L 46.99 5.496C 46.99 5.316 47.014 5.136 47.074 4.98C 47.242 4.452 47.722 3.924 48.382 3.924C 49.186 3.924 49.594 4.596 49.594 5.52L 49.594 9L 50.626 9L 50.626 5.412C 50.626 5.22 50.662 5.028 50.71 4.884C 50.89 4.368 51.358 3.924 51.958 3.924C 52.81 3.924 53.218 4.596 53.218 5.712L 53.218 9L 54.25 9L 54.25 5.58C 54.25 3.564 53.11 3.06 52.342 3.06C 51.79 3.06 51.406 3.204 51.058 3.468C 50.818 3.648 50.59 3.9 50.41 4.224L 50.386 4.224C 50.134 3.54 49.534 3.06 48.742 3.06C 47.782 3.06 47.242 3.576 46.918 4.128L 46.882 4.128L 46.834 3.192L 45.91 3.192C 45.946 3.672 45.958 4.164 45.958 4.764L 45.958 9ZM 60.6338 6.288C 60.6458 6.18 60.6698 6.012 60.6698 5.796C 60.6698 4.728 60.1658 3.06 58.2698 3.06C 56.5778 3.06 55.5458 4.44 55.5458 6.192C 55.5458 7.944 56.6138 9.132 58.4018 9.132C 59.3258 9.132 59.9618 8.928 60.3338 8.76L 60.1538 8.004C 59.7578 8.172 59.3018 8.304 58.5458 8.304C 57.4898 8.304 56.5778 7.716 56.5538 6.288L 60.6338 6.288ZM 56.5658 5.532C 56.6498 4.8 57.1178 3.816 58.1858 3.816C 59.3738 3.816 59.6618 4.86 59.6498 5.532L 56.5658 5.532ZM 61.5696 8.724C 61.9776 8.964 62.5656 9.132 63.2016 9.132C 64.5816 9.132 65.3736 8.4 65.3736 7.38C 65.3736 6.516 64.8576 6.012 63.8496 5.628C 63.0936 5.34 62.7456 5.124 62.7456 4.644C 62.7456 4.212 63.0936 3.852 63.7176 3.852C 64.2576 3.852 64.6776 4.044 64.9056 4.188L 65.1696 3.42C 64.8456 3.228 64.3296 3.06 63.7416 3.06C 62.4936 3.06 61.7376 3.828 61.7376 4.764C 61.7376 5.46 62.2296 6.036 63.2736 6.408C 64.0536 6.696 64.3536 6.972 64.3536 7.476C 64.3536 7.956 63.9936 8.34 63.2256 8.34C 62.6976 8.34 62.1456 8.124 61.8336 7.92L 61.5696 8.724ZM 66.9754 2.124L 66.9754 3.192L 66.0754 3.192L 66.0754 3.996L 66.9754 3.996L 66.9754 7.164C 66.9754 7.848 67.0834 8.364 67.3834 8.676C 67.6354 8.964 68.0314 9.132 68.5234 9.132C 68.9314 9.132 69.2554 9.06 69.4594 8.976L 69.4114 8.184C 69.2554 8.232 69.0874 8.256 68.7994 8.256C 68.2114 8.256 68.0074 7.848 68.0074 7.128L 68.0074 3.996L 69.5194 3.996L 69.5194 3.192L 68.0074 3.192L 68.0074 1.8L 66.9754 2.124ZM 75.3057 6.288C 75.3177 6.18 75.3417 6.012 75.3417 5.796C 75.3417 4.728 74.8377 3.06 72.9417 3.06C 71.2497 3.06 70.2177 4.44 70.2177 6.192C 70.2177 7.944 71.2857 9.132 73.0737 9.132C 73.9977 9.132 74.6337 8.928 75.0057 8.76L 74.8257 8.004C 74.4297 8.172 73.9737 8.304 73.2177 8.304C 72.1617 8.304 71.2497 7.716 71.2257 6.288L 75.3057 6.288ZM 71.2377 5.532C 71.3217 4.8 71.7897 3.816 72.8577 3.816C 74.0457 3.816 74.3337 4.86 74.3217 5.532L 71.2377 5.532ZM 76.6494 9L 77.6934 9L 77.6934 5.904C 77.6934 5.724 77.7174 5.556 77.7414 5.412C 77.8854 4.62 78.4134 4.056 79.1574 4.056C 79.3014 4.056 79.4094 4.068 79.5174 4.092L 79.5174 3.096C 79.4214 3.072 79.3374 3.06 79.2174 3.06C 78.5094 3.06 77.8734 3.552 77.6094 4.332L 77.5614 4.332L 77.5254 3.192L 76.6014 3.192C 76.6374 3.732 76.6494 4.32 76.6494 5.004L 76.6494 9Z"/>
<path id="path6_fill" d="M 4.992 1.08C 4.8 1.08 4.536 1.092 4.224 1.14C 3.24 1.26 2.376 1.656 1.728 2.292C 0.96 3.06 0.408 4.272 0.408 5.808C 0.408 7.836 1.5 9.132 3.168 9.132C 4.788 9.132 5.76 7.812 5.76 6.384C 5.76 4.86 4.788 3.864 3.408 3.864C 2.544 3.864 1.896 4.272 1.524 4.764L 1.488 4.764C 1.668 3.48 2.544 2.268 4.2 1.992C 4.5 1.944 4.776 1.932 4.992 1.944L 4.992 1.08ZM 3.168 8.316C 2.064 8.316 1.476 7.368 1.452 6.084C 1.452 5.892 1.5 5.736 1.572 5.616C 1.86 5.052 2.448 4.656 3.084 4.656C 4.056 4.656 4.692 5.328 4.692 6.444C 4.692 7.56 4.08 8.316 3.18 8.316L 3.168 8.316ZM 7.48434 9.132C 7.92834 9.132 8.20434 8.808 8.20434 8.376C 8.20434 7.932 7.91634 7.62 7.49634 7.62C 7.07634 7.62 6.77634 7.932 6.77634 8.376C 6.77634 8.808 7.06434 9.132 7.47234 9.132L 7.48434 9.132ZM 12.0917 9L 13.1357 9L 13.1357 5.34L 16.1957 5.34L 16.1957 4.476L 13.1357 4.476L 13.1357 1.788L 16.4477 1.788L 16.4477 0.912L 12.0917 0.912L 12.0917 9ZM 21.4443 5.436C 21.4443 4.272 21.0123 3.06 19.2363 3.06C 18.5043 3.06 17.8083 3.264 17.3283 3.576L 17.5683 4.272C 17.9763 4.008 18.5403 3.84 19.0803 3.84C 20.2683 3.84 20.4003 4.704 20.4003 5.184L 20.4003 5.304C 18.1563 5.292 16.9083 6.06 16.9083 7.464C 16.9083 8.304 17.5083 9.132 18.6843 9.132C 19.5123 9.132 20.1363 8.724 20.4603 8.268L 20.4963 8.268L 20.5803 9L 21.5403 9C 21.4683 8.604 21.4443 8.112 21.4443 7.608L 21.4443 5.436ZM 20.4243 7.044C 20.4243 7.152 20.4003 7.272 20.3643 7.38C 20.1963 7.872 19.7163 8.352 18.9603 8.352C 18.4203 8.352 17.9643 8.028 17.9643 7.344C 17.9643 6.216 19.2723 6.012 20.4243 6.036L 20.4243 7.044ZM 27.1133 7.992C 26.8133 8.124 26.4173 8.28 25.8173 8.28C 24.6653 8.28 23.8013 7.452 23.8013 6.108C 23.8013 4.896 24.5213 3.912 25.8533 3.912C 26.4293 3.912 26.8253 4.044 27.0773 4.188L 27.3173 3.372C 27.0293 3.228 26.4773 3.072 25.8533 3.072C 23.9573 3.072 22.7333 4.368 22.7333 6.156C 22.7333 7.932 23.8733 9.132 25.6253 9.132C 26.4053 9.132 27.0173 8.928 27.2933 8.784L 27.1133 7.992ZM 28.5323 9L 29.5882 9L 29.5882 5.496C 29.5882 5.292 29.6003 5.136 29.6603 4.992C 29.8523 4.416 30.3923 3.936 31.0763 3.936C 32.0723 3.936 32.4203 4.728 32.4203 5.664L 32.4203 9L 33.4763 9L 33.4763 5.544C 33.4763 3.54 32.2283 3.06 31.4483 3.06C 31.0523 3.06 30.6803 3.18 30.3682 3.36C 30.0442 3.54 29.7802 3.804 29.6122 4.104L 29.5882 4.104L 29.5882 0.48L 28.5323 0.48L 28.5323 9ZM 34.7805 8.724C 35.1885 8.964 35.7765 9.132 36.4125 9.132C 37.7925 9.132 38.5845 8.4 38.5845 7.38C 38.5845 6.516 38.0685 6.012 37.0605 5.628C 36.3045 5.34 35.9565 5.124 35.9565 4.644C 35.9565 4.212 36.3045 3.852 36.9285 3.852C 37.4685 3.852 37.8885 4.044 38.1165 4.188L 38.3805 3.42C 38.0565 3.228 37.5405 3.06 36.9525 3.06C 35.7045 3.06 34.9485 3.828 34.9485 4.764C 34.9485 5.46 35.4405 6.036 36.4845 6.408C 37.2645 6.696 37.5645 6.972 37.5645 7.476C 37.5645 7.956 37.2045 8.34 36.4365 8.34C 35.9085 8.34 35.3565 8.124 35.0445 7.92L 34.7805 8.724ZM 44.6143 6.288C 44.6263 6.18 44.6503 6.012 44.6503 5.796C 44.6503 4.728 44.1463 3.06 42.2503 3.06C 40.5583 3.06 39.5263 4.44 39.5263 6.192C 39.5263 7.944 40.5943 9.132 42.3823 9.132C 43.3063 9.132 43.9423 8.928 44.3143 8.76L 44.1343 8.004C 43.7383 8.172 43.2823 8.304 42.5263 8.304C 41.4703 8.304 40.5583 7.716 40.5343 6.288L 44.6143 6.288ZM 40.5463 5.532C 40.6303 4.8 41.0983 3.816 42.1663 3.816C 43.3543 3.816 43.6423 4.86 43.6303 5.532L 40.5463 5.532ZM 45.958 9L 46.99 9L 46.99 5.496C 46.99 5.316 47.014 5.136 47.074 4.98C 47.242 4.452 47.722 3.924 48.382 3.924C 49.186 3.924 49.594 4.596 49.594 5.52L 49.594 9L 50.626 9L 50.626 5.412C 50.626 5.22 50.662 5.028 50.71 4.884C 50.89 4.368 51.358 3.924 51.958 3.924C 52.81 3.924 53.218 4.596 53.218 5.712L 53.218 9L 54.25 9L 54.25 5.58C 54.25 3.564 53.11 3.06 52.342 3.06C 51.79 3.06 51.406 3.204 51.058 3.468C 50.818 3.648 50.59 3.9 50.41 4.224L 50.386 4.224C 50.134 3.54 49.534 3.06 48.742 3.06C 47.782 3.06 47.242 3.576 46.918 4.128L 46.882 4.128L 46.834 3.192L 45.91 3.192C 45.946 3.672 45.958 4.164 45.958 4.764L 45.958 9ZM 60.6338 6.288C 60.6458 6.18 60.6698 6.012 60.6698 5.796C 60.6698 4.728 60.1658 3.06 58.2698 3.06C 56.5778 3.06 55.5458 4.44 55.5458 6.192C 55.5458 7.944 56.6138 9.132 58.4018 9.132C 59.3258 9.132 59.9618 8.928 60.3338 8.76L 60.1538 8.004C 59.7578 8.172 59.3018 8.304 58.5458 8.304C 57.4898 8.304 56.5778 7.716 56.5538 6.288L 60.6338 6.288ZM 56.5658 5.532C 56.6498 4.8 57.1178 3.816 58.1858 3.816C 59.3738 3.816 59.6618 4.86 59.6498 5.532L 56.5658 5.532ZM 61.5696 8.724C 61.9776 8.964 62.5656 9.132 63.2016 9.132C 64.5816 9.132 65.3736 8.4 65.3736 7.38C 65.3736 6.516 64.8576 6.012 63.8496 5.628C 63.0936 5.34 62.7456 5.124 62.7456 4.644C 62.7456 4.212 63.0936 3.852 63.7176 3.852C 64.2576 3.852 64.6776 4.044 64.9056 4.188L 65.1696 3.42C 64.8456 3.228 64.3296 3.06 63.7416 3.06C 62.4936 3.06 61.7376 3.828 61.7376 4.764C 61.7376 5.46 62.2296 6.036 63.2736 6.408C 64.0536 6.696 64.3536 6.972 64.3536 7.476C 64.3536 7.956 63.9936 8.34 63.2256 8.34C 62.6976 8.34 62.1456 8.124 61.8336 7.92L 61.5696 8.724ZM 66.9754 2.124L 66.9754 3.192L 66.0754 3.192L 66.0754 3.996L 66.9754 3.996L 66.9754 7.164C 66.9754 7.848 67.0834 8.364 67.3834 8.676C 67.6354 8.964 68.0314 9.132 68.5234 9.132C 68.9314 9.132 69.2554 9.06 69.4594 8.976L 69.4114 8.184C 69.2554 8.232 69.0874 8.256 68.7994 8.256C 68.2114 8.256 68.0074 7.848 68.0074 7.128L 68.0074 3.996L 69.5194 3.996L 69.5194 3.192L 68.0074 3.192L 68.0074 1.8L 66.9754 2.124ZM 75.3057 6.288C 75.3177 6.18 75.3417 6.012 75.3417 5.796C 75.3417 4.728 74.8377 3.06 72.9417 3.06C 71.2497 3.06 70.2177 4.44 70.2177 6.192C 70.2177 7.944 71.2857 9.132 73.0737 9.132C 73.9977 9.132 74.6337 8.928 75.0057 8.76L 74.8257 8.004C 74.4297 8.172 73.9737 8.304 73.2177 8.304C 72.1617 8.304 71.2497 7.716 71.2257 6.288L 75.3057 6.288ZM 71.2377 5.532C 71.3217 4.8 71.7897 3.816 72.8577 3.816C 74.0457 3.816 74.3337 4.86 74.3217 5.532L 71.2377 5.532ZM 76.6494 9L 77.6934 9L 77.6934 5.904C 77.6934 5.724 77.7174 5.556 77.7414 5.412C 77.8854 4.62 78.4134 4.056 79.1574 4.056C 79.3014 4.056 79.4094 4.068 79.5174 4.092L 79.5174 3.096C 79.4214 3.072 79.3374 3.06 79.2174 3.06C 78.5094 3.06 77.8734 3.552 77.6094 4.332L 77.5614 4.332L 77.5254 3.192L 76.6014 3.192C 76.6374 3.732 76.6494 4.32 76.6494 5.004L 76.6494 9Z"/>
<path id="path7_fill" d="M 0 0L 600 0L 600 140L 0 140L 0 0Z"/>
<path id="path8_fill" d="M 1.008 17.184C 1.872 17.76 3.576 18.24 5.136 18.24C 8.952 18.24 10.776 16.056 10.776 13.584C 10.776 11.208 9.408 9.912 6.672 8.832C 4.44 7.968 3.456 7.224 3.456 5.736C 3.456 4.632 4.296 3.312 6.504 3.312C 7.968 3.312 9.048 3.768 9.552 4.08L 10.128 2.352C 9.432 1.968 8.208 1.584 6.576 1.584C 3.432 1.584 1.344 3.456 1.344 5.976C 1.344 8.232 2.976 9.624 5.616 10.536C 7.8 11.352 8.664 12.24 8.664 13.752C 8.664 15.384 7.416 16.488 5.28 16.488C 3.84 16.488 2.496 16.032 1.56 15.456L 1.008 17.184ZM 13.5879 22.752L 15.6999 22.752L 15.6999 16.44L 15.7479 16.44C 16.4439 17.592 17.7639 18.264 19.3239 18.264C 22.0359 18.264 24.6039 16.2 24.6039 12.024C 24.6039 8.496 22.4919 6.12 19.6599 6.12C 17.7879 6.12 16.3959 6.936 15.5559 8.376L 15.5079 8.376L 15.3879 6.384L 13.4919 6.384C 13.5639 7.488 13.5879 8.688 13.5879 10.176L 13.5879 22.752ZM 15.6999 11.256C 15.6999 10.992 15.7719 10.68 15.8199 10.416C 16.2279 8.808 17.5959 7.8 19.0359 7.8C 21.2679 7.8 22.4679 9.792 22.4679 12.12C 22.4679 14.784 21.1719 16.608 18.9399 16.608C 17.4519 16.608 16.1559 15.6 15.7959 14.136C 15.7239 13.872 15.6999 13.56 15.6999 13.272L 15.6999 11.256ZM 36.588 12.576C 36.636 12.336 36.66 12.024 36.66 11.592C 36.66 9.456 35.676 6.12 31.884 6.12C 28.5 6.12 26.412 8.88 26.412 12.384C 26.412 15.864 28.572 18.24 32.124 18.24C 33.972 18.24 35.268 17.832 36.012 17.496L 35.628 15.984C 34.86 16.32 33.924 16.584 32.412 16.584C 30.3 16.584 28.5 15.408 28.452 12.576L 36.588 12.576ZM 28.476 11.064C 28.644 9.6 29.556 7.632 31.716 7.632C 34.068 7.632 34.644 9.72 34.62 11.064L 28.476 11.064ZM 37.9554 18L 47.3874 18L 47.3874 16.32L 40.5954 16.32L 40.5954 16.272C 41.1234 15.696 41.6034 15.096 42.0834 14.472L 47.2914 7.704L 47.2914 6.384L 38.4354 6.384L 38.4354 8.064L 44.7474 8.064L 44.7474 8.112C 44.1954 8.736 43.7394 9.288 43.2114 9.936L 37.9554 16.776L 37.9554 18ZM 51.6531 18L 51.6531 6.384L 49.5411 6.384L 49.5411 18L 51.6531 18ZM 50.5731 4.416C 51.3891 4.416 51.8931 3.816 51.8931 3.12C 51.8931 2.376 51.3651 1.8 50.5971 1.8C 49.8051 1.8 49.2771 2.376 49.2771 3.12C 49.2771 3.816 49.7811 4.416 50.5491 4.416L 50.5731 4.416ZM 63.3501 10.872C 63.3501 8.544 62.4861 6.12 58.9101 6.12C 57.4461 6.12 56.0301 6.528 55.0701 7.128L 55.5501 8.544C 56.3661 7.992 57.4941 7.68 58.5981 7.68C 60.9741 7.656 61.2381 9.408 61.2381 10.368L 61.2381 10.608C 56.7501 10.584 54.2541 12.12 54.2541 14.928C 54.2541 16.608 55.4541 18.264 57.8061 18.264C 59.4621 18.264 60.7341 17.448 61.3581 16.536L 61.4301 16.536L 61.6221 18L 63.5181 18C 63.3981 17.208 63.3501 16.224 63.3501 15.216L 63.3501 10.872ZM 61.2861 14.088C 61.2861 14.304 61.2621 14.544 61.1901 14.76C 60.8541 15.744 59.8701 16.704 58.3341 16.704C 57.2781 16.704 56.3661 16.08 56.3661 14.688C 56.3661 12.432 58.9821 12.024 61.2861 12.072L 61.2861 14.088ZM 66.7442 18L 68.8562 18L 68.8562 0.960001L 66.7442 0.960001L 66.7442 18ZM 74.5281 18L 74.5281 6.384L 72.4161 6.384L 72.4161 18L 74.5281 18ZM 73.4481 4.416C 74.2641 4.416 74.7681 3.816 74.7681 3.12C 74.7681 2.376 74.2401 1.8 73.4721 1.8C 72.6801 1.8 72.1521 2.376 72.1521 3.12C 72.1521 3.816 72.6561 4.416 73.4241 4.416L 73.4481 4.416ZM 77.2491 17.424C 78.0651 17.904 79.2411 18.24 80.5131 18.24C 83.2251 18.24 84.8331 16.8 84.8331 14.736C 84.8331 13.008 83.7771 12 81.7851 11.256C 80.2731 10.656 79.6011 10.224 79.6011 9.264C 79.6011 8.4 80.2731 7.68 81.5211 7.68C 82.6011 7.68 83.4411 8.088 83.8971 8.352L 84.4011 6.84C 83.7771 6.432 82.7451 6.12 81.5691 6.12C 79.0971 6.12 77.5611 7.656 77.5611 9.528C 77.5611 10.896 78.5451 12.048 80.6571 12.816C 82.1931 13.392 82.7931 13.92 82.7931 14.928C 82.7931 15.912 82.0731 16.656 80.5611 16.656C 79.5051 16.656 78.4011 16.224 77.7531 15.84L 77.2491 17.424ZM 89.6687 18L 89.6687 6.384L 87.5567 6.384L 87.5567 18L 89.6687 18ZM 88.5887 4.416C 89.4047 4.416 89.9087 3.816 89.9087 3.12C 89.9087 2.376 89.3807 1.8 88.6127 1.8C 87.8207 1.8 87.2927 2.376 87.2927 3.12C 87.2927 3.816 87.7967 4.416 88.5647 4.416L 88.5887 4.416ZM 102.518 12.576C 102.566 12.336 102.59 12.024 102.59 11.592C 102.59 9.456 101.606 6.12 97.8137 6.12C 94.4297 6.12 92.3417 8.88 92.3417 12.384C 92.3417 15.864 94.5017 18.24 98.0537 18.24C 99.9017 18.24 101.198 17.832 101.942 17.496L 101.558 15.984C 100.79 16.32 99.8537 16.584 98.3417 16.584C 96.2297 16.584 94.4297 15.408 94.3817 12.576L 102.518 12.576ZM 94.4057 11.064C 94.5737 9.6 95.4857 7.632 97.6457 7.632C 99.9977 7.632 100.574 9.72 100.55 11.064L 94.4057 11.064ZM 105.205 18L 107.317 18L 107.317 11.784C 107.317 11.448 107.341 11.112 107.389 10.8C 107.677 9.24 108.733 8.112 110.221 8.112C 110.509 8.112 110.725 8.136 110.941 8.16L 110.941 6.168C 110.749 6.144 110.581 6.12 110.365 6.12C 108.949 6.12 107.653 7.104 107.125 8.664L 107.053 8.664L 106.957 6.384L 105.109 6.384C 105.181 7.464 105.205 8.64 105.205 10.008L 105.205 18ZM 122.777 6.384L 120.665 6.384L 120.665 13.488C 120.665 13.896 120.593 14.28 120.473 14.568C 120.089 15.528 119.105 16.512 117.689 16.512C 115.793 16.512 115.097 15 115.097 12.792L 115.097 6.384L 112.985 6.384L 112.985 13.176C 112.985 17.232 115.169 18.264 116.993 18.264C 119.057 18.264 120.305 17.04 120.833 16.104L 120.881 16.104L 121.001 18L 122.873 18C 122.801 17.088 122.777 16.032 122.777 14.808L 122.777 6.384ZM 126.275 18L 128.387 18L 128.387 10.992C 128.387 10.656 128.435 10.272 128.531 10.008C 128.915 8.832 129.995 7.848 131.363 7.848C 133.355 7.848 134.051 9.432 134.051 11.304L 134.051 18L 136.163 18L 136.163 11.064C 136.163 7.08 133.667 6.12 132.059 6.12C 130.139 6.12 128.795 7.2 128.219 8.28L 128.171 8.28L 128.051 6.384L 126.179 6.384C 126.251 7.344 126.275 8.304 126.275 9.528L 126.275 18ZM 149.524 9.552C 149.524 8.16 149.548 7.2 149.62 6.384L 147.748 6.384L 147.676 8.136L 147.628 8.136C 147.1 7.152 146.02 6.12 144.004 6.12C 141.316 6.12 138.748 8.328 138.748 12.264C 138.748 15.504 140.812 17.952 143.692 17.952C 145.492 17.952 146.764 17.088 147.388 16.008L 147.436 16.008L 147.436 17.28C 147.436 20.232 145.852 21.36 143.692 21.36C 142.252 21.36 141.052 20.928 140.284 20.424L 139.756 22.056C 140.692 22.68 142.228 23.016 143.62 23.016C 145.084 23.016 146.716 22.656 147.868 21.624C 148.972 20.592 149.524 18.984 149.524 16.296L 149.524 9.552ZM 147.412 13.032C 147.412 13.416 147.364 13.824 147.244 14.16C 146.812 15.528 145.636 16.344 144.316 16.344C 142.06 16.344 140.884 14.424 140.884 12.168C 140.884 9.456 142.324 7.752 144.34 7.752C 145.9 7.752 146.908 8.76 147.292 10.008C 147.388 10.296 147.412 10.608 147.412 10.944L 147.412 13.032Z"/>
<path id="path9_fill" d="M 7.68 18L 13.464 1.824L 11.232 1.824L 8.496 9.816C 7.752 11.928 7.104 13.968 6.648 15.84L 6.6 15.84C 6.144 13.968 5.544 11.976 4.872 9.792L 2.352 1.824L 0.072 1.824L 5.376 18L 7.68 18ZM 23.6974 12.576C 23.7454 12.336 23.7694 12.024 23.7694 11.592C 23.7694 9.456 22.7854 6.12 18.9934 6.12C 15.6094 6.12 13.5214 8.88 13.5214 12.384C 13.5214 15.864 15.6814 18.24 19.2334 18.24C 21.0814 18.24 22.3774 17.832 23.1214 17.496L 22.7374 15.984C 21.9694 16.32 21.0334 16.584 19.5214 16.584C 17.4094 16.584 15.6094 15.408 15.5614 12.576L 23.6974 12.576ZM 15.5854 11.064C 15.7534 9.6 16.6654 7.632 18.8254 7.632C 21.1774 7.632 21.7534 9.72 21.7294 11.064L 15.5854 11.064ZM 26.3848 18L 28.4968 18L 28.4968 11.784C 28.4968 11.448 28.5208 11.112 28.5688 10.8C 28.8568 9.24 29.9128 8.112 31.4008 8.112C 31.6888 8.112 31.9048 8.136 32.1208 8.16L 32.1208 6.168C 31.9288 6.144 31.7608 6.12 31.5448 6.12C 30.1288 6.12 28.8328 7.104 28.3048 8.664L 28.2328 8.664L 28.1368 6.384L 26.2888 6.384C 26.3608 7.464 26.3848 8.64 26.3848 10.008L 26.3848 18ZM 35.2789 4.248L 35.2789 6.384L 33.4789 6.384L 33.4789 7.992L 35.2789 7.992L 35.2789 14.304C 35.2789 15.672 35.5189 16.704 36.0949 17.352C 36.5989 17.904 37.3909 18.24 38.3749 18.24C 39.1909 18.24 39.8389 18.096 40.2469 17.952L 40.1509 16.344C 39.8389 16.44 39.5029 16.488 38.9269 16.488C 37.7509 16.488 37.3429 15.672 37.3429 14.232L 37.3429 7.992L 40.3669 7.992L 40.3669 6.384L 37.3429 6.384L 37.3429 3.6L 35.2789 4.248ZM 44.8562 18L 44.8562 6.384L 42.7442 6.384L 42.7442 18L 44.8562 18ZM 43.7762 4.416C 44.5922 4.416 45.0962 3.816 45.0962 3.12C 45.0962 2.376 44.5682 1.8 43.8002 1.8C 43.0082 1.8 42.4802 2.376 42.4802 3.12C 42.4802 3.816 42.9842 4.416 43.7522 4.416L 43.7762 4.416ZM 57.7052 12.576C 57.7532 12.336 57.7772 12.024 57.7772 11.592C 57.7772 9.456 56.7932 6.12 53.0012 6.12C 49.6172 6.12 47.5292 8.88 47.5292 12.384C 47.5292 15.864 49.6892 18.24 53.2412 18.24C 55.0892 18.24 56.3852 17.832 57.1292 17.496L 56.7452 15.984C 55.9772 16.32 55.0412 16.584 53.5292 16.584C 51.4172 16.584 49.6172 15.408 49.5692 12.576L 57.7052 12.576ZM 49.5932 11.064C 49.7612 9.6 50.6732 7.632 52.8332 7.632C 55.1852 7.632 55.7612 9.72 55.7372 11.064L 49.5932 11.064ZM 62.6966 18L 62.6966 7.992L 65.4806 7.992L 65.4806 6.384L 62.6726 6.384L 62.6726 5.76C 62.6726 3.984 63.1526 2.4 64.9286 2.4C 65.5526 2.4 65.9606 2.52 66.2966 2.664L 66.5606 1.032C 66.1526 0.864 65.5286 0.696 64.7606 0.696C 63.8006 0.696 62.7446 1.008 61.9526 1.776C 60.9686 2.712 60.5846 4.2 60.5846 5.832L 60.5846 6.384L 58.9766 6.384L 58.9766 7.992L 60.5846 7.992L 60.5846 18L 62.6966 18ZM 77.1204 6.384L 75.0084 6.384L 75.0084 13.488C 75.0084 13.896 74.9364 14.28 74.8164 14.568C 74.4324 15.528 73.4484 16.512 72.0324 16.512C 70.1364 16.512 69.4404 15 69.4404 12.792L 69.4404 6.384L 67.3284 6.384L 67.3284 13.176C 67.3284 17.232 69.5124 18.264 71.3364 18.264C 73.4004 18.264 74.6484 17.04 75.1764 16.104L 75.2244 16.104L 75.3444 18L 77.2164 18C 77.1444 17.088 77.1204 16.032 77.1204 14.808L 77.1204 6.384ZM 80.6192 18L 82.7312 18L 82.7312 10.992C 82.7312 10.656 82.7792 10.272 82.8752 10.008C 83.2592 8.832 84.3392 7.848 85.7072 7.848C 87.6992 7.848 88.3952 9.432 88.3952 11.304L 88.3952 18L 90.5072 18L 90.5072 11.064C 90.5072 7.08 88.0112 6.12 86.4032 6.12C 84.4832 6.12 83.1392 7.2 82.5632 8.28L 82.5152 8.28L 82.3952 6.384L 80.5232 6.384C 80.5952 7.344 80.6192 8.304 80.6192 9.528L 80.6192 18ZM 103.868 9.552C 103.868 8.16 103.892 7.2 103.964 6.384L 102.092 6.384L 102.02 8.136L 101.972 8.136C 101.444 7.152 100.364 6.12 98.3477 6.12C 95.6597 6.12 93.0917 8.328 93.0917 12.264C 93.0917 15.504 95.1557 17.952 98.0357 17.952C 99.8357 17.952 101.108 17.088 101.732 16.008L 101.78 16.008L 101.78 17.28C 101.78 20.232 100.196 21.36 98.0357 21.36C 96.5957 21.36 95.3957 20.928 94.6277 20.424L 94.0997 22.056C 95.0357 22.68 96.5717 23.016 97.9637 23.016C 99.4277 23.016 101.06 22.656 102.212 21.624C 103.316 20.592 103.868 18.984 103.868 16.296L 103.868 9.552ZM 101.756 13.032C 101.756 13.416 101.708 13.824 101.588 14.16C 101.156 15.528 99.9797 16.344 98.6597 16.344C 96.4037 16.344 95.2277 14.424 95.2277 12.168C 95.2277 9.456 96.6677 7.752 98.6837 7.752C 100.244 7.752 101.252 8.76 101.636 10.008C 101.732 10.296 101.756 10.608 101.756 10.944L 101.756 13.032Z"/>
<path id="path10_fill" d="M 14.16 9.504L 8.832 9.504L 8.832 11.184L 12.096 11.184L 12.096 16.008C 11.616 16.248 10.68 16.44 9.312 16.44C 5.52 16.44 3.072 14.016 3.072 9.912C 3.072 5.856 5.64 3.408 9.576 3.408C 11.208 3.408 12.288 3.696 13.152 4.104L 13.68 2.4C 12.984 2.064 11.496 1.656 9.624 1.656C 4.2 1.656 0.864 5.184 0.864 10.008C 0.864 12.528 1.728 14.688 3.12 16.032C 4.704 17.544 6.72 18.168 9.168 18.168C 11.352 18.168 13.224 17.64 14.16 17.28L 14.16 9.504ZM 17.2676 18L 19.3796 18L 19.3796 11.784C 19.3796 11.448 19.4036 11.112 19.4516 10.8C 19.7396 9.24 20.7956 8.112 22.2836 8.112C 22.5716 8.112 22.7876 8.136 23.0036 8.16L 23.0036 6.168C 22.8116 6.144 22.6436 6.12 22.4276 6.12C 21.0116 6.12 19.7156 7.104 19.1876 8.664L 19.1156 8.664L 19.0196 6.384L 17.1716 6.384C 17.2436 7.464 17.2676 8.64 17.2676 10.008L 17.2676 18ZM 34.8392 6.384L 32.7272 6.384L 32.7272 13.488C 32.7272 13.896 32.6552 14.28 32.5352 14.568C 32.1512 15.528 31.1672 16.512 29.7512 16.512C 27.8552 16.512 27.1592 15 27.1592 12.792L 27.1592 6.384L 25.0472 6.384L 25.0472 13.176C 25.0472 17.232 27.2312 18.264 29.0552 18.264C 31.1192 18.264 32.3672 17.04 32.8952 16.104L 32.9432 16.104L 33.0632 18L 34.9352 18C 34.8632 17.088 34.8392 16.032 34.8392 14.808L 34.8392 6.384ZM 38.3379 18L 40.4499 18L 40.4499 10.992C 40.4499 10.656 40.4979 10.272 40.5939 10.008C 40.9779 8.832 42.0579 7.848 43.4259 7.848C 45.4179 7.848 46.1139 9.432 46.1139 11.304L 46.1139 18L 48.2259 18L 48.2259 11.064C 48.2259 7.08 45.7299 6.12 44.1219 6.12C 42.2019 6.12 40.8579 7.2 40.2819 8.28L 40.2339 8.28L 40.1139 6.384L 38.2419 6.384C 38.3139 7.344 38.3379 8.304 38.3379 9.528L 38.3379 18ZM 59.5704 0.960001L 59.5704 7.872L 59.5224 7.872C 59.0184 6.96 57.8184 6.12 56.0184 6.12C 53.2104 6.12 50.7864 8.472 50.8104 12.36C 50.8104 15.888 52.9944 18.264 55.8024 18.264C 57.6984 18.264 59.0904 17.28 59.7384 15.984L 59.7864 15.984L 59.8824 18L 61.7784 18C 61.7064 17.208 61.6824 16.032 61.6824 15L 61.6824 0.960001L 59.5704 0.960001ZM 59.5704 13.128C 59.5704 13.464 59.5464 13.752 59.4744 14.016C 59.0904 15.6 57.7944 16.56 56.3784 16.56C 54.1224 16.56 52.9464 14.616 52.9464 12.24C 52.9464 9.696 54.2424 7.776 56.4264 7.776C 58.0104 7.776 59.1624 8.88 59.4744 10.2C 59.5464 10.488 59.5704 10.824 59.5704 11.112L 59.5704 13.128ZM 65.1973 18L 67.3093 18L 67.3093 0.960001L 65.1973 0.960001L 65.1973 18ZM 79.0532 10.872C 79.0532 8.544 78.1892 6.12 74.6132 6.12C 73.1492 6.12 71.7332 6.528 70.7732 7.128L 71.2532 8.544C 72.0692 7.992 73.1972 7.68 74.3012 7.68C 76.6772 7.656 76.9412 9.408 76.9412 10.368L 76.9412 10.608C 72.4532 10.584 69.9572 12.12 69.9572 14.928C 69.9572 16.608 71.1572 18.264 73.5092 18.264C 75.1652 18.264 76.4372 17.448 77.0612 16.536L 77.1332 16.536L 77.3252 18L 79.2212 18C 79.1012 17.208 79.0532 16.224 79.0532 15.216L 79.0532 10.872ZM 76.9892 14.088C 76.9892 14.304 76.9652 14.544 76.8932 14.76C 76.5572 15.744 75.5732 16.704 74.0372 16.704C 72.9812 16.704 72.0692 16.08 72.0692 14.688C 72.0692 12.432 74.6852 12.024 76.9892 12.072L 76.9892 14.088ZM 92.3833 9.552C 92.3833 8.16 92.4073 7.2 92.4793 6.384L 90.6073 6.384L 90.5353 8.136L 90.4873 8.136C 89.9593 7.152 88.8793 6.12 86.8633 6.12C 84.1753 6.12 81.6073 8.328 81.6073 12.264C 81.6073 15.504 83.6713 17.952 86.5513 17.952C 88.3513 17.952 89.6233 17.088 90.2473 16.008L 90.2953 16.008L 90.2953 17.28C 90.2953 20.232 88.7113 21.36 86.5513 21.36C 85.1113 21.36 83.9113 20.928 83.1433 20.424L 82.6153 22.056C 83.5513 22.68 85.0873 23.016 86.4793 23.016C 87.9433 23.016 89.5753 22.656 90.7273 21.624C 91.8313 20.592 92.3833 18.984 92.3833 16.296L 92.3833 9.552ZM 90.2713 13.032C 90.2713 13.416 90.2233 13.824 90.1033 14.16C 89.6713 15.528 88.4953 16.344 87.1753 16.344C 84.9193 16.344 83.7433 14.424 83.7433 12.168C 83.7433 9.456 85.1833 7.752 87.1993 7.752C 88.7593 7.752 89.7673 8.76 90.1513 10.008C 90.2473 10.296 90.2713 10.608 90.2713 10.944L 90.2713 13.032ZM 105.19 12.576C 105.238 12.336 105.262 12.024 105.262 11.592C 105.262 9.456 104.278 6.12 100.486 6.12C 97.1016 6.12 95.0136 8.88 95.0136 12.384C 95.0136 15.864 97.1736 18.24 100.726 18.24C 102.574 18.24 103.87 17.832 104.614 17.496L 104.23 15.984C 103.462 16.32 102.526 16.584 101.014 16.584C 98.9016 16.584 97.1016 15.408 97.0536 12.576L 105.19 12.576ZM 97.0776 11.064C 97.2456 9.6 98.1576 7.632 100.318 7.632C 102.67 7.632 103.246 9.72 103.222 11.064L 97.0776 11.064ZM 107.877 18L 109.989 18L 109.989 10.992C 109.989 10.656 110.037 10.272 110.133 10.008C 110.517 8.832 111.597 7.848 112.965 7.848C 114.957 7.848 115.653 9.432 115.653 11.304L 115.653 18L 117.765 18L 117.765 11.064C 117.765 7.08 115.269 6.12 113.661 6.12C 111.741 6.12 110.397 7.2 109.821 8.28L 109.773 8.28L 109.653 6.384L 107.781 6.384C 107.853 7.344 107.877 8.304 107.877 9.528L 107.877 18Z"/>
</defs>
</svg>
