<?xml version="1.0" encoding="UTF-8" standalone="no"?>
<svg width="600px" height="218px" viewBox="0 0 600 218" version="1.1" xmlns="http://www.w3.org/2000/svg" xmlns:xlink="http://www.w3.org/1999/xlink">
    <!-- Generator: Sketch 42 (36781) - http://www.bohemiancoding.com/sketch -->
    <title>Artboard</title>
    <desc>Created with Sketch.</desc>
    <defs>
        <polygon id="path-1" points="0 0 744.1125 0 744.1125 1052.3625 0 1052.3625"></polygon>
        <polygon id="path-3" points="0 0 744.1125 0 744.1125 1052.3625 0 1052.3625"></polygon>
        <polygon id="path-5" points="0 0.1125 600 0.1125 600 41.3625 0 41.3625"></polygon>
        <polygon id="path-7" points="0 0.1125 600 0.1125 600 42.6125 0 42.6125"></polygon>
        <polygon id="path-9" points="0 0.1125 600 0.1125 600 42.6125 0 42.6125"></polygon>
        <polygon id="path-11" points="0 0.1125 600 0.1125 600 45.1125 0 45.1125"></polygon>
        <polygon id="path-13" points="0 0.1125 600 0.1125 600 46.3625 0 46.3625"></polygon>
        <polygon id="path-15" points="0 0.1125 600 0.1125 600 46.3625 0 46.3625"></polygon>
        <polygon id="path-17" points="0 0.1125 600 0.1125 600 46.3625 0 46.3625"></polygon>
        <polygon id="path-19" points="0 0.1125 600 0.1125 600 45.1125 0 45.1125"></polygon>
        <polygon id="path-21" points="0 0.1125 600 0.1125 600 46.3625 0 46.3625"></polygon>
        <polygon id="path-23" points="0 0.1125 600 0.1125 600 46.3625 0 46.3625"></polygon>
        <polygon id="path-25" points="0 0.1125 600 0.1125 600 46.3625 0 46.3625"></polygon>
        <polygon id="path-27" points="0 0.1125 600 0.1125 600 45.1125 0 45.1125"></polygon>
        <polygon id="path-29" points="0 0.1125 600 0.1125 600 46.3625 0 46.3625"></polygon>
        <polygon id="path-31" points="0 0.1125 600 0.1125 600 46.3625 0 46.3625"></polygon>
        <polygon id="path-33" points="0 0.1125 600 0.1125 600 46.3625 0 46.3625"></polygon>
        <polygon id="path-35" points="0 0.1125 600 0.1125 600 45.1125 0 45.1125"></polygon>
        <polygon id="path-37" points="0 0.1125 600 0.1125 600 46.3625 0 46.3625"></polygon>
        <polygon id="path-39" points="0 0.1125 600 0.1125 600 46.3625 0 46.3625"></polygon>
        <polygon id="path-41" points="0 0.1125 600 0.1125 600 46.3625 0 46.3625"></polygon>
    </defs>
    <g id="Page-1" stroke="none" stroke-width="1" fill="none" fill-rule="evenodd">
        <g id="g14" transform="translate(308.500000, 461.112500) scale(-1, 1) rotate(-180.000000) translate(-308.500000, -461.112500) translate(-64.000000, -65.137500)">
            <g id="g16-Clipped">
                <mask id="mask-2" fill="white">
                    <use xlink:href="#path-1"></use>
                </mask>
                <g id="path20"></g>
                <g id="g16" mask="url(#mask-2)" fill-rule="nonzero" fill="#FFFFFF">
                    <g transform="translate(62.500000, 941.250000)" id="path22">
                        <polygon points="0 43.6125 600 43.6125 600 1.1125 0 1.1125"></polygon>
                    </g>
                </g>
            </g>
        </g>
        <g id="g290" transform="translate(308.500000, 461.112500) scale(-1, 1) rotate(-180.000000) translate(-308.500000, -461.112500) translate(-64.000000, -65.137500)">
            <g id="g292-Clipped">
                <mask id="mask-4" fill="white">
                    <use xlink:href="#path-3"></use>
                </mask>
                <g id="path296"></g>
                <g id="g292" mask="url(#mask-4)" fill-rule="nonzero" fill="#000000">
                    <g transform="translate(62.500000, 806.250000)">
                        <polygon id="path298" points="0 137.3625 600 137.3625 600 136.1125 0 136.1125"></polygon>
                        <polygon id="path300" points="0 92.3625 600 92.3625 600 91.1125 0 91.1125"></polygon>
                        <polygon id="path302" points="0 47.3625 600 47.3625 600 46.1125 0 46.1125"></polygon>
                        <polygon id="path304" points="0 2.3625 600 2.3625 600 1.1125 0 1.1125"></polygon>
                    </g>
                </g>
            </g>
        </g>
        <g id="Artboard">
            <g id="g24" transform="translate(299.750000, 24.112500) scale(-1, 1) rotate(-180.000000) translate(-299.750000, -24.112500) translate(-0.250000, 3.112500)">
                <g id="g26-Clipped" transform="translate(0.000000, 0.000000)">
                    <mask id="mask-6" fill="white">
                        <use xlink:href="#path-5"></use>
                    </mask>
                    <g id="path30"></g>
                    <g id="g26" mask="url(#mask-6)" font-size="12" font-family="Helvetica" font-weight="normal">
                        <g transform="translate(220.000000, 11.500000)" id="g32">
                            <g transform="translate(0.000000, 0.112500)">
                                <g id="text34" transform="translate(41.500000, 9.500000) scale(-1, 1) rotate(-180.000000) translate(-41.500000, -9.500000) translate(0.000000, 0.500000)" fill="#000000">
                                    <text id="tspan36">
                                        <tspan x="0" y="11">WS 2010/11</tspan>
                                    </text>
                                </g>
                            </g>
                        </g>
                    </g>
                </g>
            </g>
            <g id="g38" transform="translate(299.750000, 24.862500) scale(-1, 1) rotate(-180.000000) translate(-299.750000, -24.862500) translate(-0.250000, 3.362500)">
                <g id="g40-Clipped" transform="translate(0.000000, 0.000000)">
                    <mask id="mask-8" fill="white">
                        <use xlink:href="#path-7"></use>
                    </mask>
                    <g id="path44"></g>
                    <g id="g40" mask="url(#mask-8)" font-size="12" font-family="Helvetica" font-weight="normal">
                        <g transform="translate(355.000000, 12.750000)" id="g46">
                            <g transform="translate(0.000000, 0.112500)">
                                <g id="text48" transform="translate(41.500000, 9.500000) scale(-1, 1) rotate(-180.000000) translate(-41.500000, -9.500000) translate(0.000000, 0.500000)" fill="#000000">
                                    <text id="tspan50">
                                        <tspan x="0" y="11">WS 2011/12</tspan>
                                    </text>
                                </g>
                            </g>
                        </g>
                    </g>
                </g>
            </g>
            <g id="g52" transform="translate(299.750000, 24.862500) scale(-1, 1) rotate(-180.000000) translate(-299.750000, -24.862500) translate(-0.250000, 3.362500)">
                <g id="g54-Clipped" transform="translate(0.000000, 0.000000)">
                    <mask id="mask-10" fill="white">
                        <use xlink:href="#path-9"></use>
                    </mask>
                    <g id="path58"></g>
                    <g id="g54" mask="url(#mask-10)" font-size="12" font-family="Helvetica" font-weight="normal">
                        <g transform="translate(490.000000, 12.750000)" id="g60">
                            <g transform="translate(0.000000, 0.112500)">
                                <g id="text62" transform="translate(42.000000, 9.500000) scale(-1, 1) rotate(-180.000000) translate(-42.000000, -9.500000) translate(0.000000, 0.500000)" fill="#000000">
                                    <text id="tspan64">
                                        <tspan x="0" y="11">WS 2012/13</tspan>
                                    </text>
                                </g>
                            </g>
                        </g>
                    </g>
                </g>
            </g>
            <g id="g66" transform="translate(299.750000, 67.112500) scale(-1, 1) rotate(-180.000000) translate(-299.750000, -67.112500) translate(-0.250000, 44.112500)">
                <g id="g68-Clipped" transform="translate(0.000000, 0.000000)">
                    <mask id="mask-12" fill="white">
                        <use xlink:href="#path-11"></use>
                    </mask>
                    <g id="path72"></g>
                    <g id="g68" mask="url(#mask-12)" font-size="12" font-family="Helvetica" font-weight="normal">
                        <g transform="translate(2.500000, 12.750000)" id="g74">
                            <g transform="translate(0.000000, 0.112500)">
                                <g id="text76" transform="translate(83.500000, 9.500000) scale(-1, 1) rotate(-180.000000) translate(-83.500000, -9.500000) translate(0.000000, 0.500000)" fill="#000000">
                                    <text id="tspan78">
                                        <tspan x="3.99680289e-15" y="11">Einschreibungen gesamt</tspan>
                                    </text>
                                </g>
                            </g>
                        </g>
                    </g>
                </g>
            </g>
            <g id="g80" transform="translate(299.750000, 67.862500) scale(-1, 1) rotate(-180.000000) translate(-299.750000, -67.862500) translate(-0.250000, 44.362500)">
                <g id="g82-Clipped" transform="translate(0.000000, -0.000000)">
                    <mask id="mask-14" fill="white">
                        <use xlink:href="#path-13"></use>
                    </mask>
                    <g id="path86"></g>
                    <g id="g82" mask="url(#mask-14)" font-size="12" font-family="Helvetica" font-weight="normal">
                        <g transform="translate(252.500000, 14.000000)" id="g88">
                            <g transform="translate(0.000000, 0.112500)">
                                <g id="text90" transform="translate(9.000000, 9.500000) scale(-1, 1) rotate(-180.000000) translate(-9.000000, -9.500000) translate(0.000000, 0.500000)" fill="#000000">
                                    <text id="tspan92">
                                        <tspan x="-1.77635684e-15" y="11">96</tspan>
                                    </text>
                                </g>
                            </g>
                        </g>
                    </g>
                </g>
            </g>
            <g id="g94" transform="translate(299.750000, 67.862500) scale(-1, 1) rotate(-180.000000) translate(-299.750000, -67.862500) translate(-0.250000, 44.362500)">
                <g id="g96-Clipped" transform="translate(0.000000, -0.000000)">
                    <mask id="mask-16" fill="white">
                        <use xlink:href="#path-15"></use>
                    </mask>
                    <g id="path100"></g>
                    <g id="g96" mask="url(#mask-16)" font-size="12" font-family="Helvetica" font-weight="normal">
                        <g transform="translate(383.750000, 14.000000)" id="g102">
                            <g transform="translate(0.000000, 0.112500)">
                                <g id="text104" transform="translate(13.500000, 9.500000) scale(-1, 1) rotate(-180.000000) translate(-13.500000, -9.500000) translate(0.000000, 0.500000)" fill="#000000">
                                    <text id="tspan106">
                                        <tspan x="-1.77635684e-15" y="11">141</tspan>
                                    </text>
                                </g>
                            </g>
                        </g>
                    </g>
                </g>
            </g>
            <g id="g108" transform="translate(299.750000, 67.862500) scale(-1, 1) rotate(-180.000000) translate(-299.750000, -67.862500) translate(-0.250000, 44.362500)">
                <g id="g110-Clipped" transform="translate(0.000000, -0.000000)">
                    <mask id="mask-18" fill="white">
                        <use xlink:href="#path-17"></use>
                    </mask>
                    <g id="path114"></g>
                    <g id="g110" mask="url(#mask-18)" font-size="12" font-family="Helvetica" font-weight="normal">
                        <g transform="translate(518.750000, 14.000000)" id="g116">
                            <g transform="translate(0.000000, 0.112500)">
                                <g id="text118" transform="translate(13.500000, 9.500000) scale(-1, 1) rotate(-180.000000) translate(-13.500000, -9.500000) translate(0.000000, 0.500000)" fill="#000000">
                                    <text id="tspan120">
                                        <tspan x="-1.77635684e-15" y="11">144</tspan>
                                    </text>
                                </g>
                            </g>
                        </g>
                    </g>
                </g>
            </g>
            <g id="g122" transform="translate(299.750000, 112.112500) scale(-1, 1) rotate(-180.000000) translate(-299.750000, -112.112500) translate(-0.250000, 89.112500)">
                <g id="g124-Clipped" transform="translate(0.000000, 0.000000)">
                    <mask id="mask-20" fill="white">
                        <use xlink:href="#path-19"></use>
                    </mask>
                    <g id="path128"></g>
                    <g id="g124" mask="url(#mask-20)" font-size="12" font-family="Helvetica" font-weight="normal">
                        <g transform="translate(2.500000, 12.750000)" id="g130">
                            <g transform="translate(0.000000, 0.112500)">
                                <g id="text132" transform="translate(80.000000, 9.500000) scale(-1, 1) rotate(-180.000000) translate(-80.000000, -9.500000) translate(0.000000, 0.500000)" fill="#000000">
                                    <text id="tspan134">
                                        <tspan x="3.55271368e-15" y="11">Davon noch im Studium</tspan>
                                    </text>
                                </g>
                            </g>
                        </g>
                    </g>
                </g>
            </g>
            <g id="g136" transform="translate(299.750000, 112.862500) scale(-1, 1) rotate(-180.000000) translate(-299.750000, -112.862500) translate(-0.250000, 89.362500)">
                <g id="g138-Clipped" transform="translate(0.000000, 0.000000)">
                    <mask id="mask-22" fill="white">
                        <use xlink:href="#path-21"></use>
                    </mask>
                    <g id="path142"></g>
                    <g id="g138" mask="url(#mask-22)" font-size="12" font-family="Helvetica" font-weight="normal">
                        <g transform="translate(226.250000, 14.000000)" id="g144">
                            <g transform="translate(0.000000, 0.112500)">
                                <g id="text146" transform="translate(37.000000, 9.500000) scale(-1, 1) rotate(-180.000000) translate(-37.000000, -9.500000) translate(0.000000, 0.500000)" fill="#000000">
                                    <text id="tspan148">
                                        <tspan x="2.84217094e-14" y="11">28 (29,2%)</tspan>
                                    </text>
                                </g>
                            </g>
                        </g>
                    </g>
                </g>
            </g>
            <g id="g150" transform="translate(299.750000, 112.862500) scale(-1, 1) rotate(-180.000000) translate(-299.750000, -112.862500) translate(-0.250000, 89.362500)">
                <g id="g152-Clipped" transform="translate(0.000000, 0.000000)">
                    <mask id="mask-24" fill="white">
                        <use xlink:href="#path-23"></use>
                    </mask>
                    <g id="path156"></g>
                    <g id="g152" mask="url(#mask-24)" font-size="12" font-family="Helvetica" font-weight="normal">
                        <g transform="translate(361.250000, 14.000000)" id="g158">
                            <g transform="translate(0.000000, 0.112500)">
                                <g id="text160" transform="translate(37.000000, 9.500000) scale(-1, 1) rotate(-180.000000) translate(-37.000000, -9.500000) translate(0.000000, 0.500000)" fill="#000000">
                                    <text id="tspan162">
                                        <tspan x="0" y="11">59 (41,8%)</tspan>
                                    </text>
                                </g>
                            </g>
                        </g>
                    </g>
                </g>
            </g>
            <g id="g164" transform="translate(299.750000, 112.862500) scale(-1, 1) rotate(-180.000000) translate(-299.750000, -112.862500) translate(-0.250000, 89.362500)">
                <g id="g166-Clipped" transform="translate(0.000000, 0.000000)">
                    <mask id="mask-26" fill="white">
                        <use xlink:href="#path-25"></use>
                    </mask>
                    <g id="path170"></g>
                    <g id="g166" mask="url(#mask-26)" font-size="12" font-family="Helvetica" font-weight="normal">
                        <g transform="translate(496.250000, 14.000000)" id="g172">
                            <g transform="translate(0.000000, 0.112500)">
                                <g id="text174" transform="translate(37.000000, 9.500000) scale(-1, 1) rotate(-180.000000) translate(-37.000000, -9.500000) translate(0.000000, 0.500000)" fill="#000000">
                                    <text id="tspan176">
                                        <tspan x="0" y="11">78 (54,2%)</tspan>
                                    </text>
                                </g>
                            </g>
                        </g>
                    </g>
                </g>
            </g>
            <g id="g178" transform="translate(299.750000, 157.112500) scale(-1, 1) rotate(-180.000000) translate(-299.750000, -157.112500) translate(-0.250000, 134.112500)">
                <g id="g180-Clipped" transform="translate(0.000000, 0.000000)">
                    <mask id="mask-28" fill="white">
                        <use xlink:href="#path-27"></use>
                    </mask>
                    <g id="path184"></g>
                    <g id="g180" mask="url(#mask-28)" font-size="12" font-family="Helvetica" font-weight="normal">
                        <g transform="translate(2.500000, 12.750000)" id="g186">
                            <g transform="translate(0.000000, 0.112500)">
                                <g id="text188" transform="translate(52.000000, 9.500000) scale(-1, 1) rotate(-180.000000) translate(-52.000000, -9.500000) translate(0.000000, 0.500000)" fill="#000000">
                                    <text id="tspan190">
                                        <tspan x="3.99680289e-15" y="11">Davon Abbruch</tspan>
                                    </text>
                                </g>
                            </g>
                        </g>
                    </g>
                </g>
            </g>
            <g id="g192" transform="translate(299.750000, 157.862500) scale(-1, 1) rotate(-180.000000) translate(-299.750000, -157.862500) translate(-0.250000, 134.362500)">
                <g id="g194-Clipped" transform="translate(0.000000, 0.000000)">
                    <mask id="mask-30" fill="white">
                        <use xlink:href="#path-29"></use>
                    </mask>
                    <g id="path198"></g>
                    <g id="g194" mask="url(#mask-30)" font-size="12" font-family="Helvetica" font-weight="normal">
                        <g transform="translate(226.250000, 14.000000)" id="g200">
                            <g transform="translate(0.000000, 0.112500)">
                                <g id="text202" transform="translate(37.000000, 9.500000) scale(-1, 1) rotate(-180.000000) translate(-37.000000, -9.500000) translate(0.000000, 0.500000)" fill="#000000">
                                    <text id="tspan204">
                                        <tspan x="0" y="11">30 (31,3%)</tspan>
                                    </text>
                                </g>
                            </g>
                        </g>
                    </g>
                </g>
            </g>
            <g id="g206" transform="translate(299.750000, 157.862500) scale(-1, 1) rotate(-180.000000) translate(-299.750000, -157.862500) translate(-0.250000, 134.362500)">
                <g id="g208-Clipped" transform="translate(0.000000, 0.000000)">
                    <mask id="mask-32" fill="white">
                        <use xlink:href="#path-31"></use>
                    </mask>
                    <g id="path212"></g>
                    <g id="g208" mask="url(#mask-32)" font-size="12" font-family="Helvetica" font-weight="normal">
                        <g transform="translate(361.250000, 14.000000)" id="g214">
                            <g transform="translate(0.000000, 0.112500)">
                                <g id="text216" transform="translate(37.000000, 9.500000) scale(-1, 1) rotate(-180.000000) translate(-37.000000, -9.500000) translate(0.000000, 0.500000)" fill="#000000">
                                    <text id="tspan218">
                                        <tspan x="0" y="11">48 (34,0%)</tspan>
                                    </text>
                                </g>
                            </g>
                        </g>
                    </g>
                </g>
            </g>
            <g id="g220" transform="translate(299.750000, 157.862500) scale(-1, 1) rotate(-180.000000) translate(-299.750000, -157.862500) translate(-0.250000, 134.362500)">
                <g id="g222-Clipped" transform="translate(0.000000, 0.000000)">
                    <mask id="mask-34" fill="white">
                        <use xlink:href="#path-33"></use>
                    </mask>
                    <g id="path226"></g>
                    <g id="g222" mask="url(#mask-34)" font-size="12" font-family="Helvetica" font-weight="normal">
                        <g transform="translate(496.250000, 14.000000)" id="g228">
                            <g transform="translate(0.000000, 0.112500)">
                                <g id="text230" transform="translate(37.000000, 9.500000) scale(-1, 1) rotate(-180.000000) translate(-37.000000, -9.500000) translate(0.000000, 0.500000)" fill="#000000">
                                    <text id="tspan232">
                                        <tspan x="0" y="11">42 (29,2%)</tspan>
                                    </text>
                                </g>
                            </g>
                        </g>
                    </g>
                </g>
            </g>
            <g id="g234" transform="translate(299.750000, 202.112500) scale(-1, 1) rotate(-180.000000) translate(-299.750000, -202.112500) translate(-0.250000, 179.112500)">
                <g id="g236-Clipped" transform="translate(0.000000, 0.000000)">
                    <mask id="mask-36" fill="white">
                        <use xlink:href="#path-35"></use>
                    </mask>
                    <g id="path240"></g>
                    <g id="g236" mask="url(#mask-36)" font-size="12" font-family="Helvetica" font-weight="normal">
                        <g transform="translate(2.500000, 12.750000)" id="g242">
                            <g transform="translate(0.000000, 0.112500)">
                                <g id="text244" transform="translate(58.500000, 9.500000) scale(-1, 1) rotate(-180.000000) translate(-58.500000, -9.500000) translate(0.000000, 0.500000)" fill="#000000">
                                    <text id="tspan246">
                                        <tspan x="3.99680289e-15" y="11">Davon Abschluss</tspan>
                                    </text>
                                </g>
                            </g>
                        </g>
                    </g>
                </g>
            </g>
            <g id="g248" transform="translate(299.750000, 202.862500) scale(-1, 1) rotate(-180.000000) translate(-299.750000, -202.862500) translate(-0.250000, 179.362500)">
                <g id="g250-Clipped" transform="translate(0.000000, 0.000000)">
                    <mask id="mask-38" fill="white">
                        <use xlink:href="#path-37"></use>
                    </mask>
                    <g id="path254"></g>
                    <g id="g250" mask="url(#mask-38)" font-size="12" font-family="Helvetica" font-weight="normal">
                        <g transform="translate(226.250000, 14.000000)" id="g256">
                            <g transform="translate(0.000000, 0.112500)">
                                <g id="text258" transform="translate(37.000000, 9.500000) scale(-1, 1) rotate(-180.000000) translate(-37.000000, -9.500000) translate(0.000000, 0.500000)" fill="#000000">
                                    <text id="tspan260">
                                        <tspan x="0" y="11">25 (26,0%)</tspan>
                                    </text>
                                </g>
                            </g>
                        </g>
                    </g>
                </g>
            </g>
            <g id="g262" transform="translate(299.750000, 202.862500) scale(-1, 1) rotate(-180.000000) translate(-299.750000, -202.862500) translate(-0.250000, 179.362500)">
                <g id="g264-Clipped" transform="translate(0.000000, 0.000000)">
                    <mask id="mask-40" fill="white">
                        <use xlink:href="#path-39"></use>
                    </mask>
                    <g id="path268"></g>
                    <g id="g264" mask="url(#mask-40)" font-size="12" font-family="Helvetica" font-weight="normal">
                        <g transform="translate(361.250000, 14.000000)" id="g270">
                            <g transform="translate(0.000000, 0.112500)">
                                <g id="text272" transform="translate(37.000000, 9.500000) scale(-1, 1) rotate(-180.000000) translate(-37.000000, -9.500000) translate(0.000000, 0.500000)" fill="#000000">
                                    <text id="tspan274">
                                        <tspan x="0" y="11">15 (10,6%)</tspan>
                                    </text>
                                </g>
                            </g>
                        </g>
                    </g>
                </g>
            </g>
            <g id="g276" transform="translate(299.750000, 202.862500) scale(-1, 1) rotate(-180.000000) translate(-299.750000, -202.862500) translate(-0.250000, 179.362500)">
                <g id="g278-Clipped" transform="translate(0.000000, 0.000000)">
                    <mask id="mask-42" fill="white">
                        <use xlink:href="#path-41"></use>
                    </mask>
                    <g id="path282"></g>
                    <g id="g278" mask="url(#mask-42)" font-size="12" font-family="Helvetica" font-weight="normal">
                        <g transform="translate(505.000000, 14.000000)" id="g284">
                            <g transform="translate(0.000000, 0.112500)">
                                <g id="text286" transform="translate(29.000000, 9.500000) scale(-1, 1) rotate(-180.000000) translate(-29.000000, -9.500000) translate(0.000000, 0.500000)" fill="#000000">
                                    <text id="tspan288">
                                        <tspan x="0" y="11">2 (1,4%)</tspan>
                                    </text>
                                </g>
                            </g>
                        </g>
                    </g>
                </g>
            </g>
        </g>
    </g>
</svg>