<svg width="232" height="61" viewBox="0 0 232 61" fill="none" xmlns="http://www.w3.org/2000/svg">
<g clip-path="url(#clip0_6_9)">
<rect width="232" height="61" fill="white"/>
<path d="M1.988 24V5.38C3.22 5.156 4.928 4.988 7.252 4.988C9.772 4.988 11.62 5.52 12.824 6.528C13.944 7.452 14.672 8.936 14.672 10.7C14.672 12.492 14.112 13.976 13.048 14.984C11.676 16.356 9.52 17 7.084 17C6.44 17 5.852 16.972 5.404 16.888V24H1.988ZM5.404 7.788V14.172C5.824 14.284 6.384 14.312 7.084 14.312C9.66 14.312 11.228 13.052 11.228 10.84C11.228 8.74 9.772 7.62 7.392 7.62C6.44 7.62 5.768 7.704 5.404 7.788ZM17.1605 24V14.76C17.1605 12.912 17.1325 11.596 17.0485 10.364H20.0445L20.1565 12.968H20.2685C20.9405 11.036 22.5365 10.056 23.9925 10.056C24.3285 10.056 24.5245 10.084 24.8045 10.14V13.388C24.5245 13.332 24.2165 13.276 23.7965 13.276C22.1445 13.276 21.0245 14.34 20.7165 15.88C20.6605 16.188 20.6045 16.552 20.6045 16.944V24H17.1605ZM33.0829 10.056C37.1429 10.056 39.8589 12.912 39.8589 17.056C39.8589 22.068 36.3309 24.308 32.8589 24.308C28.9949 24.308 26.0269 21.648 26.0269 17.28C26.0269 12.8 28.9669 10.056 33.0829 10.056ZM32.9989 12.576C30.5629 12.576 29.5829 14.928 29.5829 17.196C29.5829 19.828 30.8709 21.816 32.9709 21.816C34.9309 21.816 36.3029 19.884 36.3029 17.14C36.3029 15.012 35.3509 12.576 32.9989 12.576ZM40.0116 29.852L39.6756 27.164C40.7956 27.08 41.6916 26.772 42.2516 26.184C42.8956 25.484 43.1476 24.42 43.1476 21.452V10.364H46.5916V22.432C46.5916 25.26 46.0596 27.024 44.8276 28.256C43.6236 29.376 41.7196 29.852 40.0116 29.852ZM44.8836 4.68C46.0596 4.68 46.7876 5.492 46.7876 6.556C46.7876 7.564 46.0596 8.404 44.8276 8.404C43.6796 8.404 42.9516 7.564 42.9516 6.556C42.9516 5.492 43.7076 4.68 44.8836 4.68ZM61.8104 18.148H52.6824C52.7664 20.612 54.6984 21.676 56.8824 21.676C58.4784 21.676 59.6264 21.452 60.6624 21.06L61.1664 23.44C59.9904 23.916 58.3664 24.28 56.4064 24.28C51.9824 24.28 49.3784 21.564 49.3784 17.392C49.3784 13.612 51.6744 10.056 56.0424 10.056C60.4664 10.056 61.9224 13.696 61.9224 16.692C61.9224 17.336 61.8664 17.84 61.8104 18.148ZM52.6824 15.74H58.6744C58.7024 14.48 58.1424 12.408 55.8464 12.408C53.7184 12.408 52.8224 14.34 52.6824 15.74ZM74.2319 21.032L74.7079 23.58C73.9799 23.916 72.5519 24.28 70.8439 24.28C66.5879 24.28 63.8159 21.564 63.8159 17.336C63.8159 13.248 66.6159 10.056 71.4039 10.056C72.6639 10.056 73.9519 10.336 74.7359 10.7L74.1199 13.276C73.5599 13.024 72.7479 12.744 71.5159 12.744C68.8839 12.744 67.3159 14.676 67.3439 17.168C67.3439 19.968 69.1639 21.564 71.5159 21.564C72.7199 21.564 73.5599 21.312 74.2319 21.032ZM78.2602 7.284L81.6202 6.472V10.364H84.8962V12.94H81.6202V18.96C81.6202 20.612 82.0682 21.48 83.3842 21.48C83.9722 21.48 84.4202 21.396 84.7282 21.312L84.7842 23.944C84.2802 24.14 83.3842 24.28 82.2922 24.28C81.0322 24.28 79.9682 23.86 79.3242 23.16C78.5962 22.376 78.2602 21.144 78.2602 19.352V12.94H76.3002V10.364H78.2602V7.284ZM86.6486 23.328L87.3206 20.836C88.1046 21.312 89.5886 21.816 90.8206 21.816C92.3326 21.816 93.0046 21.2 93.0046 20.304C93.0046 19.38 92.4446 18.904 90.7646 18.316C88.1046 17.392 86.9846 15.936 87.0126 14.34C87.0126 11.932 89.0006 10.056 92.1646 10.056C93.6766 10.056 94.9926 10.448 95.7766 10.868L95.1046 13.304C94.5166 12.968 93.4246 12.52 92.2206 12.52C90.9886 12.52 90.3166 13.108 90.3166 13.948C90.3166 14.816 90.9606 15.236 92.6966 15.852C95.1606 16.748 96.3086 18.008 96.3366 20.024C96.3366 22.488 94.4046 24.28 90.7926 24.28C89.1406 24.28 87.6566 23.888 86.6486 23.328ZM111.372 10.364V19.912C111.372 21.536 111.428 22.88 111.484 24H108.46L108.292 21.928H108.236C107.648 22.908 106.304 24.308 103.868 24.308C101.376 24.308 99.1084 22.824 99.1084 18.372V10.364H102.552V17.784C102.552 20.052 103.28 21.508 105.1 21.508C106.472 21.508 107.368 20.528 107.732 19.66C107.844 19.352 107.928 18.988 107.928 18.596V10.364H111.372ZM115.106 24V14.76C115.106 12.912 115.078 11.596 114.994 10.364H117.99L118.102 12.968H118.214C118.886 11.036 120.482 10.056 121.938 10.056C122.274 10.056 122.47 10.084 122.75 10.14V13.388C122.47 13.332 122.162 13.276 121.742 13.276C120.09 13.276 118.97 14.34 118.662 15.88C118.606 16.188 118.55 16.552 118.55 16.944V24H115.106ZM124.175 10.364H127.899L130.111 17.28C130.503 18.484 130.783 19.576 131.035 20.696H131.119C131.371 19.576 131.679 18.512 132.043 17.28L134.199 10.364H137.839L132.631 24H129.243L124.175 10.364ZM143.406 24H139.934V10.364H143.406V24ZM141.67 4.68C142.846 4.68 143.574 5.492 143.602 6.556C143.602 7.592 142.846 8.404 141.642 8.404C140.494 8.404 139.738 7.592 139.738 6.556C139.738 5.492 140.522 4.68 141.67 4.68ZM145.558 10.364H149.282L151.494 17.28C151.886 18.484 152.166 19.576 152.418 20.696H152.502C152.754 19.576 153.062 18.512 153.426 17.28L155.582 10.364H159.222L154.014 24H150.626L145.558 10.364ZM171.933 24H168.825L168.601 22.488H168.517C167.677 23.552 166.249 24.308 164.485 24.308C161.741 24.308 160.201 22.32 160.201 20.248C160.201 16.804 163.253 15.068 168.293 15.096V14.872C168.293 13.976 167.929 12.492 165.521 12.492C164.177 12.492 162.777 12.912 161.853 13.5L161.181 11.26C162.189 10.644 163.953 10.056 166.109 10.056C170.477 10.056 171.737 12.828 171.737 15.796V20.724C171.737 21.956 171.793 23.16 171.933 24ZM168.377 19.212V17.336C165.941 17.28 163.617 17.812 163.617 19.884C163.617 21.228 164.485 21.844 165.577 21.844C166.949 21.844 167.957 20.948 168.265 19.968C168.349 19.716 168.377 19.436 168.377 19.212ZM175.371 24V4.12H178.843V24H175.371ZM192.755 24H189.507V19.38H181.275V17.14L188.695 5.8H192.755V16.776H195.107V19.38H192.755V24ZM184.551 16.776H189.507V11.82C189.507 10.784 189.535 9.72 189.619 8.656H189.507C188.947 9.804 188.471 10.728 187.911 11.736L184.579 16.72L184.551 16.776ZM207.487 18.652H201.495L199.871 24H196.315L202.363 5.128H206.759L212.891 24H209.195L207.487 18.652ZM202.055 16.048H206.899L205.415 11.4C205.051 10.252 204.743 8.964 204.463 7.872H204.407C204.127 8.964 203.847 10.28 203.511 11.4L202.055 16.048ZM215.239 24V4.12H218.711V24H215.239ZM222.43 24V4.12H225.902V24H222.43Z" fill="url(#paint0_linear_6_9)"/>
<path d="M9.2 56V35.444H2.288V31.736H20.612V35.444H13.628V56H9.2ZM23.4701 31.736H27.8981V41.456H38.1581V31.736H42.5861V56H38.1581V45.308H27.8981V56H23.4701V31.736ZM53.6347 44.876H62.8147V47.936H53.6347V44.876ZM73.9193 56V31.736H78.3113V42.896H78.4193C78.9953 41.96 79.6073 41.096 80.1833 40.268L86.5193 31.736H91.9913L83.6393 42.068L92.5313 56H87.3473L80.4713 44.876L78.3113 47.468V56H73.9193ZM102.332 38.072C107.552 38.072 111.044 41.744 111.044 47.072C111.044 53.516 106.508 56.396 102.044 56.396C97.076 56.396 93.26 52.976 93.26 47.36C93.26 41.6 97.04 38.072 102.332 38.072ZM102.224 41.312C99.092 41.312 97.832 44.336 97.832 47.252C97.832 50.636 99.488 53.192 102.188 53.192C104.708 53.192 106.472 50.708 106.472 47.18C106.472 44.444 105.248 41.312 102.224 41.312ZM98.588 35.732C97.292 35.732 96.356 34.724 96.356 33.536C96.356 32.276 97.328 31.304 98.624 31.304C99.812 31.304 100.748 32.24 100.748 33.536C100.748 34.724 99.848 35.732 98.588 35.732ZM105.752 35.732C104.456 35.732 103.556 34.724 103.556 33.536C103.556 32.276 104.492 31.304 105.752 31.304C107.012 31.304 107.912 32.24 107.912 33.536C107.912 34.724 107.012 35.732 105.752 35.732ZM114.696 56V30.44H119.16V56H114.696ZM123.942 56V43.688C123.942 41.672 123.906 39.98 123.798 38.468H127.686L127.902 41.096H128.01C128.766 39.728 130.674 38.072 133.59 38.072C136.65 38.072 139.818 40.052 139.818 45.596V56H135.39V46.1C135.39 43.58 134.454 41.672 132.042 41.672C130.278 41.672 129.054 42.932 128.586 44.264C128.442 44.66 128.406 45.2 128.406 45.704V56H123.942Z" fill="black"/>
</g>
<defs>
<linearGradient id="paint0_linear_6_9" x1="0" y1="17" x2="228" y2="17" gradientUnits="userSpaceOnUse">
<stop stop-color="#EA5F33"/>
<stop offset="0.51" stop-color="#C60300"/>
<stop offset="1" stop-color="#B73781"/>
</linearGradient>
<clipPath id="clip0_6_9">
<rect width="232" height="61" fill="white"/>
</clipPath>
</defs>
</svg>
