<svg width="36px" height="35px" viewBox="0 0 36 35" xmlns="http://www.w3.org/2000/svg">
  <g id="Page-1" fill="none" fill-rule="evenodd">
    <g id="Frontpage-1-(Final-von-Tobi-abgesegnet)" fill="#FFF">
      <g id="socMed-und-Padi">
        <g id="social_media_icons">
          <g id="opak">
            <g id="Instagram_logo_2016">
              <g id="Shape-+-Shape-+-Shape-Mask">
                <path d="M18.115.146c-4.71 0-5.3.02-7.15.105-1.847.086-3.107.378-4.21.807-1.14.443-2.107 1.036-3.07 2-.966.966-1.558 1.934-2.003 3.075-.43 1.104-.722 2.365-.805 4.212-.083 1.85-.105 2.443-.105 7.156 0 4.713.02 5.303.105 7.154.085 1.847.377 3.108.806 4.212.443 1.14 1.035 2.11 2 3.074.963.965 1.93 1.56 3.07 2.003 1.104.43 2.364.72 4.21.806 1.85.083 2.44.104 7.15.104 4.71 0 5.3-.02 7.15-.105 1.845-.086 3.107-.378 4.21-.807 1.14-.443 2.106-1.038 3.07-2.003.964-.965 1.557-1.933 2-3.074.427-1.104.72-2.365.807-4.212.083-1.85.105-2.44.105-7.154 0-4.713-.022-5.304-.105-7.156-.087-1.847-.38-3.108-.806-4.21-.444-1.143-1.037-2.11-2-3.076-.966-.965-1.93-1.558-3.072-2C28.366.627 27.105.335 25.26.25 23.41.168 22.82.147 18.11.147h.005zM16.56 3.273h1.555c4.63 0 5.18.017 7.007.1 1.69.078 2.61.36 3.22.598.81.315 1.386.69 1.993 1.3.607.606.983 1.185 1.298 1.994.237.61.52 1.53.597 3.222.083 1.83.1 2.38.1 7.01s-.017 5.18-.1 7.01c-.077 1.692-.36 2.61-.597 3.222-.315.81-.69 1.386-1.298 1.993-.607.608-1.183.984-1.993 1.3-.61.238-1.53.52-3.22.597-1.828.083-2.377.1-7.007.1s-5.18-.017-7.007-.1c-1.69-.078-2.61-.36-3.22-.598-.81-.316-1.388-.692-1.995-1.3-.607-.607-.982-1.184-1.297-1.994-.238-.61-.52-1.53-.598-3.22-.083-1.83-.1-2.38-.1-7.014 0-4.635.017-5.18.1-7.01.078-1.693.36-2.61.598-3.223.314-.81.69-1.39 1.297-1.996.607-.608 1.185-.984 1.995-1.3.61-.238 1.53-.52 3.22-.597 1.6-.073 2.22-.094 5.45-.098v.003zM27.37 6.155c-1.15 0-2.08.932-2.08 2.082s.93 2.082 2.08 2.082 2.08-.934 2.08-2.083c0-1.15-.93-2.083-2.08-2.083zm-9.257 2.433c-4.918 0-8.906 3.99-8.906 8.912 0 4.922 3.987 8.91 8.905 8.91 4.918 0 8.904-3.988 8.904-8.91 0-4.922-3.987-8.912-8.905-8.912zm0 3.127c3.192 0 5.78 2.59 5.78 5.785 0 3.195-2.588 5.785-5.78 5.785-3.193 0-5.78-2.59-5.78-5.785 0-3.195 2.587-5.785 5.78-5.785z" id="Shape"/>
              </g>
            </g>
          </g>
        </g>
      </g>
    </g>
  </g>
</svg>
