<svg width="29px" height="34px" viewBox="0 0 29 34" xmlns="http://www.w3.org/2000/svg">
  <g id="Page-1" fill="none" fill-rule="evenodd">
    <g id="Frontpage-1-(Final-von-Tobi-abgesegnet)" fill="#FFF">
      <g id="socMed-und-Padi">
        <g id="social_media_icons">
          <g id="opak">
            <g id="yt">
              <path d="M24.38 25.07h-1.822l.008-1.05c0-.467.386-.848.858-.848h.116c.473 0 .86.38.86.848l-.02 1.05zm-6.833-2.25c-.462 0-.84.308-.84.685v5.102c0 .376.378.683.84.683.464 0 .843-.307.843-.683v-5.1c0-.378-.38-.687-.843-.687zm11.095-2.854v9.708c0 2.328-2.036 4.234-4.524 4.234H5.51c-2.49 0-4.526-1.905-4.526-4.234v-9.708c0-2.328 2.037-4.234 4.526-4.234h18.608c2.488 0 4.524 1.906 4.524 4.234zm-21.89 10.76l-.003-10.224h2.306V18.99l-6.15-.01v1.49l1.92.005v10.254H6.75zm6.914-8.702h-1.924v5.462c0 .79.05 1.185-.002 1.323-.156.422-.86.873-1.133.046-.047-.146-.006-.583-.007-1.334l-.008-5.498H8.68l.005 5.412c0 .83-.02 1.448.007 1.73.047.495.03 1.074.495 1.406.865.618 2.523-.093 2.94-.976l-.005 1.128h1.545v-8.7zm6.15 6.254l-.002-4.544c0-1.732-1.308-2.77-3.08-1.37l.007-3.377-1.92.002-.01 11.663 1.58-.024.144-.727c2.017 1.836 3.287.577 3.283-1.625zm6.02-.603l-1.442.007-.003.195v.797c0 .428-.355.776-.788.776h-.282c-.432 0-.788-.348-.788-.776v-2.098h3.3v-1.234c0-.9-.02-1.8-.096-2.316-.236-1.628-2.542-1.887-3.707-1.053-.366.26-.645.61-.808 1.076-.163.47-.245 1.11-.245 1.922v2.71c0 4.505 5.517 3.87 4.86-.007zm-7.396-14.71c.1.24.253.432.463.58.206.143.47.215.787.215.276 0 .522-.074.736-.227.213-.153.393-.38.54-.684l-.037.747h2.142v-9.04h-1.687v7.035c0 .38-.316.693-.703.693-.384 0-.702-.313-.702-.693V4.556h-1.76v6.097c0 .776.014 1.295.037 1.558.023.263.084.51.183.754zm-6.498-5.106c0-.87.073-1.546.22-2.036.144-.487.407-.877.787-1.173.378-.295.863-.445 1.452-.445.496 0 .922.097 1.275.287.358.19.633.437.823.74.194.306.326.622.397.942.072.325.107.818.107 1.48V9.94c0 .837-.034 1.454-.1 1.847-.065.394-.206.757-.422 1.1-.214.337-.49.59-.826.75-.34.164-.726.244-1.163.244-.488 0-.9-.067-1.24-.207-.34-.138-.603-.348-.79-.626-.19-.278-.322-.618-.402-1.013-.08-.397-.118-.99-.118-1.784V7.86zm1.68 3.59c0 .51.384.93.852.93.468 0 .852-.42.852-.93V6.637c0-.512-.382-.93-.852-.93-.468 0-.852.418-.852.93v4.81zM7.69 13.88h2.02l.004-6.934 2.39-5.94H9.89l-1.27 4.41L7.33.994H5.143l2.542 5.955.006 6.932z" id="YouTube"/>
            </g>
          </g>
        </g>
      </g>
    </g>
  </g>
</svg>
